<svg width="201" height="132" viewBox="0 0 201 132" fill="none" xmlns="http://www.w3.org/2000/svg">
<mask id="mask0" mask-type="alpha" maskUnits="userSpaceOnUse" x="0" y="0" width="201" height="132">
<rect x="0.0452881" y="0.518982" width="200.412" height="131.463" fill="#C4C4C4"/>
</mask>
<g mask="url(#mask0)">
<path d="M199.832 100.814H28.1804C28.1125 100.814 28.0473 100.787 27.9993 100.739C27.9513 100.691 27.9243 100.625 27.9243 100.558C27.9243 100.49 27.9513 100.424 27.9993 100.376C28.0473 100.328 28.1125 100.301 28.1804 100.301H199.832C199.9 100.301 199.965 100.328 200.013 100.376C200.061 100.424 200.088 100.49 200.088 100.558C200.088 100.625 200.061 100.691 200.013 100.739C199.965 100.787 199.9 100.814 199.832 100.814Z" fill="#D1D3D4"/>
<path d="M178.644 37.594C178.898 36.6638 179.09 35.7176 179.218 34.7619C179.344 33.7975 179.134 32.8191 178.624 31.9911C178.419 31.6599 178.109 31.4073 177.743 31.2741C177.561 31.2178 177.367 31.2164 177.185 31.2702C177.003 31.324 176.84 31.4305 176.719 31.5763C176.443 31.2192 176.08 30.9403 175.664 30.7671C173.958 29.9477 171.602 29.8657 170.322 31.4841C169.935 32.0151 169.664 32.6211 169.525 33.2632C169.387 33.9054 169.384 34.5694 169.518 35.2125C169.907 37.3841 171.054 37.8501 173.103 38.2854C173.834 38.4674 174.591 38.5228 175.341 38.4493C175.715 38.4084 176.078 38.2936 176.407 38.1116C176.737 37.9296 177.027 37.6841 177.262 37.3892" fill="white"/>
<path d="M174.701 38.7412C174.134 38.7311 173.569 38.6624 173.016 38.5364C171.08 38.1318 169.677 37.6555 169.241 35.2586C169.1 34.5785 169.104 33.8764 169.252 33.1978C169.4 32.5192 169.69 31.8795 170.102 31.3202C171.485 29.5738 174.004 29.6865 175.761 30.5315C176.122 30.6853 176.449 30.908 176.724 31.1871C176.881 31.0771 177.062 31.0048 177.252 30.9755C177.442 30.9462 177.636 30.9607 177.82 31.018C178.244 31.167 178.606 31.456 178.844 31.8375C179.385 32.7164 179.609 33.7536 179.479 34.7772C179.401 35.4969 179.265 36.2093 179.075 36.9077C179.018 37.1536 178.957 37.4199 178.9 37.6452C178.894 37.6793 178.88 37.7116 178.861 37.7403C178.841 37.7689 178.816 37.7934 178.787 37.812C178.758 37.8307 178.725 37.8433 178.691 37.8489C178.657 37.8546 178.622 37.8532 178.588 37.845C178.554 37.8377 178.522 37.8238 178.494 37.8042C178.466 37.7845 178.442 37.7594 178.423 37.7304C178.405 37.7013 178.392 37.6689 178.386 37.6349C178.38 37.601 178.381 37.5662 178.388 37.5326C178.445 37.2816 178.501 37.0204 178.562 36.7848C178.744 36.1127 178.876 35.4279 178.957 34.7362C179.068 33.8322 178.876 32.9167 178.409 32.1345C178.232 31.8591 177.972 31.6474 177.666 31.5302C177.536 31.4851 177.395 31.48 177.262 31.5156C177.128 31.5512 177.009 31.6259 176.918 31.7299C176.893 31.7648 176.86 31.7932 176.822 31.8128C176.784 31.8324 176.741 31.8426 176.698 31.8426C176.655 31.8425 176.613 31.8317 176.576 31.8111C176.538 31.7905 176.506 31.7609 176.483 31.7248C176.234 31.4081 175.908 31.1611 175.536 31.0078C173.958 30.2498 171.715 30.132 170.517 31.648C170.153 32.1499 169.899 32.722 169.769 33.3278C169.64 33.9337 169.638 34.5599 169.764 35.1664C170.127 37.1792 171.111 37.594 173.129 38.0191C173.829 38.1894 174.552 38.243 175.269 38.1779C175.607 38.1416 175.933 38.0388 176.23 37.8753C176.528 37.7117 176.789 37.4908 177 37.2253C177.021 37.1971 177.046 37.1732 177.076 37.1551C177.106 37.137 177.139 37.1249 177.173 37.1197C177.207 37.1144 177.242 37.1161 177.276 37.1245C177.31 37.133 177.341 37.1481 177.369 37.1689C177.426 37.21 177.464 37.2717 177.475 37.3407C177.487 37.4097 177.471 37.4805 177.431 37.5377C177.175 37.8605 176.857 38.1295 176.497 38.329C176.137 38.5286 175.74 38.6548 175.331 38.7003C175.122 38.7285 174.911 38.7422 174.701 38.7412Z" fill="#231F20"/>
<path d="M167.162 43.919C167.162 43.919 164.796 53.3528 164.325 53.4194C163.853 53.486 153.692 48.8971 153.692 48.8971L153.237 55.9391C153.237 55.9391 165.221 63.4524 167.162 61.7469C169.103 60.0415 167.162 43.919 167.162 43.919Z" fill="#EE3384"/>
<path d="M162.819 72.4508L180.171 77.7772C185.666 67.9542 187.069 49.271 185.517 46.3927C183.966 43.5145 178.107 42.4646 178.107 42.4646C178.107 42.4646 169.451 40.4877 167.162 43.9191C165.8 45.9625 162.819 72.4508 162.819 72.4508Z" fill="#EE3384"/>
<path d="M169.723 73.1063H169.687C169.652 73.1013 169.619 73.0895 169.589 73.0716C169.559 73.0537 169.532 73.03 169.512 73.002C169.491 72.9739 169.475 72.942 169.467 72.9081C169.458 72.8741 169.456 72.8388 169.461 72.8042L173.134 48.0521C173.138 48.0171 173.149 47.9834 173.167 47.953C173.185 47.9226 173.208 47.896 173.237 47.875C173.265 47.8539 173.297 47.8388 173.331 47.8305C173.365 47.8222 173.401 47.8209 173.436 47.8267C173.505 47.8381 173.567 47.8761 173.608 47.9327C173.649 47.9892 173.666 48.0597 173.656 48.1289L169.984 72.881C169.974 72.9434 169.943 73.0004 169.895 73.0417C169.847 73.083 169.786 73.1059 169.723 73.1063Z" fill="#231F20"/>
<path d="M171.843 41.8653L171.566 45.2967C171.566 45.2967 172.591 47.4273 174.803 46.91C175.458 46.7524 176.069 46.4509 176.593 46.0275C177.116 45.604 177.539 45.0692 177.83 44.4619L177.861 38.2137C177.861 38.2137 176.227 37.3226 176.744 33.7632C174.926 34.5267 172.935 34.785 170.983 34.5109C170.983 34.5109 169.958 38.3674 170.194 40.0831C170.429 41.7988 171.843 41.8653 171.843 41.8653Z" fill="white"/>
<path d="M174.127 47.2583C172.232 47.2583 171.336 45.435 171.326 45.4145C171.307 45.3708 171.299 45.3237 171.3 45.2763L171.561 42.0856C171.118 41.9707 170.723 41.7195 170.431 41.3675C170.138 41.0155 169.964 40.5805 169.933 40.1241C169.677 38.3725 170.686 34.6031 170.727 34.4443C170.742 34.3814 170.781 34.3267 170.835 34.2907C170.889 34.2547 170.954 34.2401 171.018 34.2497C172.919 34.5098 174.854 34.2606 176.626 33.5276C176.667 33.5016 176.714 33.4877 176.762 33.4877C176.81 33.4877 176.857 33.5016 176.898 33.5276C176.938 33.555 176.969 33.5931 176.988 33.6375C177.007 33.6819 177.013 33.7308 177.005 33.7785C176.524 37.0768 177.973 37.9474 177.989 37.9577C178.03 37.9808 178.064 38.0142 178.088 38.0546C178.113 38.095 178.126 38.141 178.127 38.1881L178.091 44.4363C178.098 44.4701 178.098 44.505 178.091 44.5388C177.785 45.1859 177.338 45.756 176.782 46.2072C176.226 46.6584 175.576 46.979 174.88 47.1456C174.634 47.211 174.382 47.2488 174.127 47.2583ZM171.833 45.2455C172.093 45.7691 172.52 46.1914 173.047 46.4463C173.573 46.7011 174.169 46.7742 174.742 46.6539C175.347 46.5053 175.913 46.2268 176.401 45.8377C176.888 45.4486 177.285 44.9582 177.564 44.4005L177.594 38.352C177.205 38.0499 176.145 36.9692 176.427 34.1831C174.75 34.7929 172.955 35.005 171.182 34.8028C170.967 35.6428 170.25 38.6337 170.455 40.0472C170.66 41.4608 171.812 41.5837 171.858 41.5837C171.894 41.5854 171.928 41.5945 171.96 41.6104C171.992 41.6263 172.02 41.6486 172.043 41.6759C172.066 41.7023 172.084 41.7331 172.096 41.7665C172.107 41.7999 172.112 41.8352 172.109 41.8705L171.833 45.2455Z" fill="#231F20"/>
<path d="M171.787 43.5759C172.195 43.6248 172.609 43.5861 173.001 43.4625C173.393 43.3389 173.754 43.1331 174.061 42.8589C175.044 41.9268 174.962 41.3788 174.962 41.3788C174.032 41.8655 172.976 42.055 171.935 41.9217L171.787 43.5759Z" fill="#231F20"/>
<path d="M172.125 43.8525C171.997 43.8603 171.868 43.8603 171.741 43.8525C171.678 43.8401 171.622 43.8051 171.583 43.7542C171.544 43.7032 171.526 43.6398 171.531 43.5759L171.679 41.9268C171.682 41.8907 171.693 41.8556 171.711 41.8238C171.729 41.7921 171.753 41.7644 171.782 41.7424C171.842 41.7022 171.915 41.6858 171.986 41.6963C172.969 41.8156 173.964 41.6372 174.844 41.1842C174.881 41.1653 174.921 41.1555 174.962 41.1555C175.003 41.1555 175.043 41.1653 175.08 41.1842C175.116 41.2024 175.147 41.2292 175.17 41.2623C175.193 41.2953 175.208 41.3336 175.213 41.3737C175.213 41.4403 175.285 42.0805 174.235 43.074C173.655 43.5908 172.901 43.869 172.125 43.8525ZM172.063 43.3403C172.734 43.3579 173.387 43.1178 173.886 42.6694C174.154 42.4277 174.382 42.1461 174.562 41.8346C173.804 42.152 172.98 42.2837 172.161 42.2187L172.063 43.3403Z" fill="#231F20"/>
<path d="M158.737 55.8573C158.652 54.7611 158.433 53.6794 158.087 52.6358C157.95 52.2458 157.881 51.8353 157.882 51.4221C157.889 50.8975 158.028 50.3832 158.286 49.9266C158.667 49.1874 158.799 48.3446 158.66 47.5246C158.632 46.9225 158.436 46.3403 158.094 45.8442C157.752 45.3481 157.277 44.9579 156.724 44.718C156.397 44.5746 156.269 44.421 156.397 44.0574C156.76 44.0881 156.806 43.8474 156.796 43.5452C156.786 43.2431 156.796 42.8231 156.796 42.4595C156.807 42.368 156.798 42.2752 156.768 42.1879C156.739 42.1006 156.69 42.021 156.626 41.9551C156.561 41.8892 156.483 41.8387 156.396 41.8072C156.309 41.7757 156.217 41.7641 156.125 41.7732C155.388 41.7732 154.65 41.7732 153.918 41.7732C153.827 41.7628 153.735 41.7729 153.648 41.8028C153.561 41.8327 153.482 41.8816 153.417 41.946C153.352 42.0103 153.302 42.0884 153.27 42.1746C153.239 42.2608 153.228 42.3529 153.237 42.4441C153.237 42.818 153.237 43.1918 153.237 43.5657C153.237 43.8628 153.308 44.0779 153.641 44.0471C153.759 44.4261 153.641 44.5593 153.313 44.6976C152.929 44.8484 152.581 45.0808 152.295 45.3787C152.008 45.6767 151.79 46.0331 151.654 46.4235C151.416 46.9821 151.303 47.5862 151.323 48.1932C151.343 48.8003 151.497 49.3954 151.772 49.9368C152.012 50.3905 152.146 50.8934 152.161 51.4067C152.165 51.7813 152.104 52.1537 151.982 52.5078C151.624 53.5885 151.393 54.7075 151.296 55.8419C151.208 56.9204 151.198 58.0038 151.265 59.0838C151.256 59.2592 151.285 59.4346 151.35 59.5977C151.415 59.7608 151.515 59.9078 151.643 60.0286C151.77 60.1493 151.922 60.241 152.089 60.2971C152.255 60.3533 152.432 60.3727 152.607 60.3539H157.431C157.606 60.3746 157.783 60.3566 157.95 60.301C158.117 60.2455 158.27 60.1538 158.398 60.0326C158.525 59.9113 158.625 59.7635 158.689 59.5995C158.753 59.4355 158.78 59.2594 158.768 59.0838C158.834 58.0089 158.824 56.9307 158.737 55.8573Z" fill="white"/>
<path d="M155.014 60.6254H152.602C152.393 60.6431 152.182 60.616 151.984 60.5459C151.787 60.4758 151.606 60.3643 151.455 60.2189C151.304 60.0734 151.185 59.8974 151.107 59.7026C151.03 59.5077 150.994 59.2985 151.004 59.0889C150.936 57.9987 150.946 56.9051 151.034 55.8163C151.134 54.6609 151.37 53.5212 151.736 52.4208C151.848 52.0911 151.904 51.7447 151.9 51.3965C151.891 50.9219 151.768 50.4565 151.541 50.0393C151.248 49.4671 151.084 48.8375 151.061 48.195C151.038 47.5525 151.157 46.9128 151.408 46.3211C151.554 45.8953 151.791 45.5068 152.104 45.1829C152.416 44.859 152.796 44.6076 153.216 44.4466C153.37 44.3852 153.426 44.3493 153.426 44.2674C153.322 44.2431 153.227 44.1918 153.15 44.1188C153.082 44.04 153.031 43.9477 153.001 43.848C152.971 43.7483 152.962 43.6434 152.975 43.5401C152.975 43.3609 152.975 43.1765 152.975 42.9921C152.975 42.8077 152.975 42.6131 152.975 42.4236C152.967 42.2995 152.985 42.175 153.029 42.0586C153.073 41.9422 153.142 41.8367 153.23 41.7492C153.319 41.6617 153.425 41.5943 153.542 41.5516C153.659 41.5089 153.784 41.4919 153.908 41.5018C154.645 41.5018 155.383 41.5018 156.12 41.5018C156.244 41.4943 156.368 41.5132 156.483 41.5571C156.599 41.601 156.705 41.6691 156.792 41.7567C156.88 41.8443 156.948 41.9495 156.992 42.0654C157.036 42.1812 157.055 42.3051 157.047 42.4288V42.9409C157.047 43.1304 157.047 43.3199 157.047 43.5094C157.062 43.6207 157.054 43.7339 157.022 43.8416C156.99 43.9493 156.936 44.049 156.863 44.1342C156.787 44.2015 156.695 44.2474 156.596 44.2674C156.596 44.3339 156.658 44.3749 156.822 44.4466C158.02 44.9588 158.722 45.9831 158.911 47.4529C159.06 48.3283 158.916 49.2284 158.502 50.0137C158.265 50.4346 158.138 50.9084 158.133 51.3913C158.131 51.775 158.195 52.1562 158.322 52.5181C158.678 53.581 158.901 54.6835 158.988 55.8009C159.072 56.8916 159.081 57.9868 159.014 59.0787C159.024 59.2868 158.988 59.4946 158.911 59.688C158.833 59.8813 158.715 60.0556 158.563 60.199C158.412 60.3424 158.232 60.4515 158.035 60.5189C157.838 60.5863 157.628 60.6104 157.421 60.5895L155.014 60.6254ZM153.636 43.8218C153.691 43.8215 153.744 43.8387 153.789 43.871C153.833 43.9032 153.866 43.9488 153.882 44.001C153.925 44.0953 153.946 44.198 153.944 44.3015C153.943 44.405 153.918 44.5069 153.872 44.5996C153.825 44.6923 153.759 44.7736 153.678 44.8375C153.596 44.9014 153.502 44.9463 153.401 44.969C153.045 45.1042 152.723 45.3154 152.458 45.5879C152.193 45.8604 151.99 46.1875 151.864 46.5464C151.641 47.072 151.536 47.64 151.555 48.2106C151.574 48.7812 151.718 49.3406 151.977 49.8498C152.234 50.3388 152.376 50.8801 152.392 51.4323C152.397 51.8367 152.331 52.2388 152.197 52.6205C151.847 53.6816 151.622 54.7799 151.526 55.8931C151.438 56.9596 151.428 58.0312 151.495 59.0992C151.485 59.2417 151.507 59.3848 151.558 59.518C151.61 59.6511 151.691 59.7711 151.795 59.8692C151.899 59.9673 152.023 60.041 152.159 60.0849C152.295 60.1289 152.439 60.1421 152.581 60.1235H157.406C157.547 60.1442 157.692 60.1325 157.829 60.0892C157.965 60.046 158.09 59.9722 158.194 59.8736C158.299 59.775 158.379 59.6541 158.429 59.5199C158.48 59.3858 158.499 59.2419 158.486 59.0992C158.553 58.0295 158.545 56.9565 158.461 55.888C158.378 54.8129 158.164 53.7518 157.826 52.728C157.678 52.3104 157.603 51.8703 157.605 51.4272C157.615 50.8618 157.765 50.3076 158.041 49.8139C158.398 49.1222 158.52 48.333 158.389 47.5656C158.22 46.2545 157.636 45.4043 156.607 44.9639C156.505 44.9397 156.41 44.893 156.329 44.8274C156.247 44.7618 156.182 44.6788 156.137 44.5846C156.091 44.4903 156.068 44.3872 156.068 44.2827C156.067 44.1782 156.091 44.075 156.135 43.9806C156.154 43.9276 156.19 43.8824 156.237 43.8518C156.285 43.8213 156.341 43.8071 156.397 43.8116C156.429 43.8185 156.462 43.8185 156.494 43.8116C156.494 43.8116 156.525 43.7655 156.52 43.5708C156.514 43.3762 156.52 43.1867 156.52 42.987V42.4749C156.52 42.1727 156.391 42.0549 156.1 42.0498C155.367 42.0498 154.635 42.0498 153.897 42.0498C153.595 42.0498 153.482 42.1676 153.472 42.4749C153.472 42.6541 153.472 42.8385 153.472 43.0228C153.472 43.2072 153.472 43.4018 153.472 43.5913C153.472 43.7808 153.498 43.7911 153.498 43.7911C153.498 43.7911 153.534 43.7911 153.616 43.7911L153.636 43.8218Z" fill="#231F20"/>
<path d="M156.397 44.3339H153.636C153.568 44.3339 153.503 44.3069 153.455 44.2589C153.407 44.2109 153.38 44.1458 153.38 44.0779C153.38 44.0099 153.407 43.9448 153.455 43.8968C153.503 43.8488 153.568 43.8218 153.636 43.8218H156.397C156.465 43.8218 156.53 43.8488 156.578 43.8968C156.626 43.9448 156.653 44.0099 156.653 44.0779C156.653 44.1458 156.626 44.2109 156.578 44.2589C156.53 44.3069 156.465 44.3339 156.397 44.3339Z" fill="#231F20"/>
<path d="M158.737 55.8572H151.29C151.388 54.7229 151.619 53.6039 151.977 52.5231C152.099 52.169 152.16 51.7966 152.156 51.422H157.882C157.881 51.8353 157.95 52.2458 158.087 52.6358C158.433 53.6793 158.652 54.7611 158.737 55.8572Z" fill="#231F20"/>
<path d="M157.498 49.6398H157.441C157.375 49.6239 157.318 49.5829 157.282 49.5256C157.245 49.4682 157.233 49.399 157.247 49.3325C157.394 48.6714 157.394 47.9859 157.247 47.3249C156.988 46.7592 156.549 46.2959 155.997 46.0086C155.937 45.9761 155.893 45.9214 155.873 45.8564C155.852 45.7913 155.859 45.721 155.89 45.6604C155.921 45.601 155.975 45.5564 156.039 45.5362C156.103 45.5161 156.173 45.5221 156.233 45.5528C156.907 45.901 157.44 46.4732 157.738 47.1712C157.906 47.9199 157.906 48.6964 157.738 49.4452C157.724 49.499 157.693 49.547 157.65 49.582C157.607 49.617 157.553 49.6372 157.498 49.6398Z" fill="#231F20"/>
<path d="M163.92 56.057L162.957 55.6985C162.399 55.5565 161.877 55.302 161.421 54.9508C160.869 54.3812 160.356 53.7755 159.884 53.1377C159.797 53.0114 159.679 52.9092 159.541 52.8407C159.473 52.8061 159.395 52.7959 159.321 52.8117C159.246 52.8276 159.179 52.8685 159.131 52.9278C159.098 53.003 159.085 53.0858 159.094 53.1677C159.103 53.2496 159.134 53.3276 159.183 53.3938C159.439 53.906 159.787 54.4181 159.695 54.9303C158.307 54.3311 156.929 53.7421 155.598 53.0097C155.344 52.8244 155.027 52.747 154.717 52.7946C154.658 52.8139 154.605 52.8473 154.563 52.8919C154.524 52.9656 154.506 53.0487 154.512 53.1319C154.517 53.215 154.546 53.2951 154.594 53.3631C154.998 54.162 155.89 54.5308 156.601 55.0429C156.294 54.8176 155.91 54.7613 155.577 54.5308C155.204 54.2583 154.814 54.0103 154.409 53.7882C154.326 53.737 154.234 53.7022 154.138 53.6857C153.457 53.6345 154.235 54.5615 154.404 54.71C155.055 55.1863 155.89 55.4629 156.453 56.0058C156.171 55.8726 155.854 55.8368 155.572 55.7036L154.158 54.9917C154.03 54.9303 153.861 54.8739 153.764 54.9917C153.667 55.1095 153.723 55.2478 153.795 55.3656C154.307 56.2465 155.301 56.733 156.228 57.1786L154.179 56.5538C154.126 56.5297 154.068 56.5173 154.01 56.5173C153.952 56.5173 153.894 56.5297 153.841 56.5538C153.211 56.9942 154.589 57.6856 154.906 57.829C155.88 58.2657 156.917 58.5457 157.979 58.6587C159.06 58.7714 160.069 58.6587 161.113 59.0377C161.272 59.094 162.829 59.7137 162.793 59.8213L163.92 56.057Z" fill="white"/>
<path d="M162.804 60.062H162.768C162.692 60.0469 162.626 60.0027 162.583 59.9391C162.084 59.684 161.571 59.4566 161.047 59.2579C160.383 59.0554 159.692 58.9552 158.998 58.9609C158.665 58.9609 158.322 58.9353 157.974 58.8994C156.885 58.7845 155.822 58.4957 154.824 58.0441C154.425 57.8649 153.493 57.3835 153.441 56.8406C153.437 56.7387 153.459 56.6374 153.507 56.5473C153.555 56.4572 153.626 56.3816 153.713 56.3284C153.798 56.2778 153.894 56.2477 153.992 56.2406C154.091 56.2335 154.19 56.2495 154.281 56.2875H154.312C154.039 56.0542 153.804 55.7794 153.616 55.4732C153.539 55.3743 153.497 55.2527 153.497 55.1275C153.497 55.0023 153.539 54.8806 153.616 54.7818C153.667 54.7304 153.731 54.6917 153.8 54.6686C153.869 54.6455 153.943 54.6387 154.015 54.6486C153.795 54.3874 153.539 53.9931 153.646 53.7062C153.687 53.5936 153.81 53.4041 154.158 53.4348C154.216 53.4383 154.273 53.4504 154.327 53.4707C154.25 53.3622 154.209 53.2324 154.209 53.0993C154.209 52.9663 154.25 52.8365 154.327 52.728C154.4 52.6446 154.494 52.5826 154.599 52.5488C154.787 52.5126 154.981 52.5148 155.168 52.5552C155.356 52.5957 155.533 52.6737 155.69 52.7844C156.883 53.4451 158.148 53.9982 159.382 54.5359C159.307 54.2578 159.191 53.9921 159.039 53.7472L158.916 53.5219C158.847 53.4136 158.807 53.2893 158.8 53.1611C158.793 53.0328 158.819 52.9048 158.875 52.7895C158.958 52.6769 159.077 52.5965 159.213 52.562C159.348 52.5274 159.491 52.5409 159.618 52.6C159.792 52.6882 159.943 52.8163 160.058 52.9739C160.222 53.1685 160.381 53.3785 160.545 53.5936C160.851 54.0128 161.193 54.4036 161.569 54.7613C161.894 55.0292 162.273 55.2232 162.681 55.3298L163.039 55.4527L164.002 55.8163C164.066 55.8385 164.118 55.8845 164.149 55.9446C164.179 56.0048 164.185 56.0744 164.166 56.1389C164.166 56.1389 163.095 59.724 163.049 59.8725C163.033 59.9254 163 59.972 162.956 60.0059C162.912 60.0397 162.859 60.0593 162.804 60.062ZM162.553 59.724C162.55 59.7461 162.55 59.7685 162.553 59.7906C162.551 59.7684 162.551 59.7461 162.553 59.724ZM154 56.7535C153.986 56.7638 153.975 56.7781 153.969 56.7945C153.969 56.9072 154.384 57.2657 155.039 57.5627C155.988 57.9879 156.997 58.261 158.03 58.3719C158.363 58.4078 158.691 58.418 159.014 58.4334C159.762 58.4242 160.507 58.5348 161.221 58.7611C161.719 58.9274 162.203 59.1312 162.67 59.3706C162.798 58.9404 163.06 58.0544 163.608 56.2158L162.875 55.9443L162.532 55.8214C162.053 55.6962 161.609 55.4652 161.231 55.1454C160.84 54.7665 160.484 54.3535 160.166 53.9111C160.007 53.7011 159.854 53.4963 159.695 53.3068C159.629 53.2158 159.545 53.1391 159.449 53.0814C159.419 53.0716 159.387 53.0716 159.357 53.0814C159.371 53.1496 159.395 53.2152 159.428 53.276L159.546 53.4963C159.854 53.9308 159.996 54.4615 159.946 54.9917C159.938 55.0302 159.921 55.0664 159.897 55.0975C159.873 55.1286 159.843 55.1537 159.807 55.171C159.772 55.1875 159.734 55.196 159.695 55.196C159.656 55.196 159.617 55.1875 159.582 55.171L159.377 55.0839C158.081 54.5206 156.745 53.9367 155.475 53.2402C155.284 53.0932 155.044 53.0237 154.804 53.0456C154.773 53.0456 154.773 53.1224 154.834 53.2351C155.162 53.7496 155.624 54.1642 156.171 54.4335C156.371 54.5615 156.571 54.6845 156.76 54.8227C156.808 54.8667 156.838 54.9266 156.845 54.9913C156.852 55.056 156.835 55.1209 156.797 55.1738C156.759 55.2267 156.703 55.264 156.64 55.2785C156.576 55.2931 156.51 55.284 156.453 55.2529C156.314 55.1607 156.164 55.085 156.007 55.0276C155.809 54.9566 155.62 54.862 155.444 54.7459C155.08 54.4801 154.701 54.2372 154.307 54.0187L154.189 53.9623C154.295 54.1525 154.43 54.3253 154.589 54.4745C154.869 54.6674 155.163 54.8387 155.47 54.9866C155.906 55.1966 156.314 55.4616 156.683 55.7753C156.733 55.8168 156.766 55.8754 156.775 55.9396C156.784 56.0038 156.769 56.0691 156.732 56.1228C156.696 56.1765 156.641 56.2147 156.578 56.2299C156.515 56.2452 156.448 56.2365 156.391 56.2055C156.265 56.1629 156.134 56.132 156.002 56.1133C155.826 56.0724 155.655 56.014 155.49 55.9392L154.532 55.4578L154.076 55.2273C154.589 56.0672 155.587 56.5435 156.391 56.9277C156.459 56.9528 156.514 57.0039 156.545 57.0697C156.575 57.1354 156.578 57.2106 156.553 57.2785C156.528 57.3464 156.477 57.4015 156.411 57.4318C156.345 57.4621 156.27 57.4649 156.202 57.4398L154.128 56.8201L154 56.7535Z" fill="#231F20"/>
<path d="M173.415 36.6517C173.415 36.6517 172.36 38.5825 172.678 38.8744C172.995 39.1663 173.789 38.8744 173.789 38.8744" fill="white"/>
<path d="M173.098 39.2687C172.875 39.2799 172.656 39.2088 172.483 39.069C172.171 38.7873 172.401 37.932 173.164 36.5083C173.197 36.4485 173.252 36.4041 173.317 36.3849C173.382 36.3657 173.453 36.3732 173.513 36.4058C173.572 36.4384 173.617 36.4934 173.636 36.5588C173.655 36.6241 173.648 36.6943 173.615 36.7541C173.154 37.5991 172.796 38.5108 172.852 38.7003C173.13 38.759 173.42 38.7303 173.682 38.6183C173.745 38.5966 173.815 38.6005 173.876 38.6292C173.937 38.6578 173.985 38.709 174.009 38.772C174.031 38.8365 174.026 38.9069 173.996 38.9681C173.967 39.0293 173.914 39.0765 173.851 39.0997C173.611 39.1981 173.356 39.2552 173.098 39.2687Z" fill="#231F20"/>
<path d="M173.415 40.5542C172.725 40.5192 172.066 40.2563 171.541 39.8065C171.517 39.7831 171.498 39.7552 171.485 39.7245C171.472 39.6937 171.466 39.6606 171.466 39.6272C171.466 39.5939 171.472 39.5608 171.485 39.53C171.498 39.4993 171.517 39.4714 171.541 39.448C171.565 39.424 171.593 39.4049 171.624 39.3919C171.655 39.3789 171.689 39.3723 171.723 39.3723C171.756 39.3723 171.79 39.3789 171.821 39.3919C171.852 39.4049 171.881 39.424 171.904 39.448C172.362 39.839 172.942 40.0566 173.543 40.0626C173.799 40.0373 174.048 39.9602 174.273 39.8361C174.498 39.7119 174.696 39.5433 174.854 39.3404C174.9 39.29 174.963 39.2587 175.03 39.253C175.098 39.2473 175.165 39.2676 175.218 39.3097C175.269 39.355 175.3 39.4184 175.305 39.4863C175.31 39.5542 175.288 39.6214 175.244 39.6733C175.042 39.9298 174.789 40.142 174.502 40.2971C174.215 40.4521 173.899 40.5466 173.574 40.5747L173.415 40.5542Z" fill="#231F20"/>
<path d="M174.779 36.826C174.898 36.8182 174.979 36.5899 174.961 36.3162C174.943 36.0424 174.832 35.8268 174.714 35.8346C174.595 35.8425 174.514 36.0708 174.532 36.3445C174.55 36.6183 174.661 36.8339 174.779 36.826Z" fill="#231F20"/>
<path d="M171.82 36.8266C171.939 36.8187 172.02 36.5904 172.002 36.3167C171.984 36.0429 171.873 35.8273 171.755 35.8352C171.636 35.843 171.555 36.0713 171.573 36.345C171.591 36.6188 171.702 36.8344 171.82 36.8266Z" fill="#231F20"/>
<path d="M176.437 37.297C176.633 36.962 176.892 36.6681 177.2 36.4314C177.36 36.2929 177.558 36.2055 177.768 36.1805C177.941 36.184 178.109 36.2335 178.255 36.3239C178.474 36.4522 178.663 36.6253 178.811 36.8318C178.958 37.0383 179.06 37.2736 179.11 37.5223C179.161 37.7529 179.152 37.9926 179.085 38.2188C178.96 38.5686 178.715 38.8626 178.393 39.0485C178.07 39.2331 177.726 39.3792 177.369 39.4838" fill="white"/>
<path d="M177.384 39.7502C177.329 39.75 177.275 39.7327 177.23 39.7006C177.185 39.6684 177.152 39.6231 177.134 39.5709C177.112 39.5043 177.117 39.432 177.148 39.369C177.178 39.306 177.232 39.2572 177.297 39.2329C177.632 39.1358 177.954 38.9982 178.255 38.8232C178.522 38.6683 178.726 38.4258 178.834 38.1369C178.878 37.9517 178.878 37.7587 178.834 37.5735C178.791 37.3608 178.704 37.1595 178.577 36.9829C178.451 36.8064 178.289 36.6586 178.101 36.5492C178 36.4808 177.881 36.4434 177.758 36.4417C177.603 36.4625 177.459 36.5305 177.343 36.6363C177.062 36.8509 176.825 37.1189 176.647 37.425C176.632 37.4601 176.61 37.4915 176.583 37.5174C176.555 37.5433 176.522 37.5629 176.486 37.5749C176.45 37.587 176.412 37.5912 176.374 37.5873C176.336 37.5834 176.3 37.5715 176.267 37.5524C176.234 37.5332 176.206 37.5073 176.184 37.4763C176.162 37.4453 176.147 37.41 176.14 37.3727C176.133 37.3354 176.133 37.297 176.142 37.2601C176.151 37.2232 176.168 37.1886 176.191 37.1587C176.405 36.7946 176.687 36.4747 177.021 36.2164C177.223 36.0448 177.474 35.9394 177.738 35.9142C177.961 35.9132 178.179 35.9753 178.368 36.0934C178.619 36.2407 178.836 36.439 179.005 36.6754C179.174 36.9118 179.292 37.1812 179.351 37.466C179.409 37.7394 179.397 38.0232 179.315 38.2905C179.177 38.6982 178.902 39.0455 178.537 39.2739C178.2 39.4677 177.843 39.6224 177.472 39.7348L177.384 39.7502Z" fill="#231F20"/>
<path d="M162.215 54.4437L160.304 60.487C160.304 60.487 169.861 66.976 176.084 68.0822C182.306 69.1884 185.492 57.1478 186.255 52.7997C187.018 48.4516 185.43 45.5221 184.155 45.8345C182.88 46.1469 175.11 59.9903 175.11 59.9903L162.215 54.4437Z" fill="#EE3384"/>
<path d="M177.072 68.8453C173.221 68.8453 162.133 61.9006 161.636 61.5882C161.577 61.5509 161.535 61.4916 161.52 61.4234C161.504 61.3552 161.517 61.2837 161.554 61.2246C161.591 61.1655 161.651 61.1237 161.719 61.1083C161.787 61.0929 161.858 61.1053 161.918 61.1426C166.266 63.8775 175.116 68.8812 177.492 68.2717C180.447 67.5086 184.723 57.3476 184.77 57.2452C184.802 57.1896 184.854 57.1478 184.915 57.1275C184.977 57.1072 185.043 57.1098 185.102 57.1348C185.162 57.1598 185.21 57.2056 185.239 57.2636C185.267 57.3215 185.273 57.3878 185.256 57.4501C185.077 57.8803 180.831 67.9593 177.625 68.7839C177.444 68.8268 177.258 68.8475 177.072 68.8453Z" fill="#231F20"/>
<path d="M175.11 60.2566C175.076 60.261 175.042 60.261 175.008 60.2566L162.716 55.0583C162.652 55.0302 162.602 54.9778 162.576 54.9126C162.55 54.8474 162.551 54.7746 162.578 54.7101C162.591 54.678 162.61 54.6488 162.635 54.6243C162.659 54.5999 162.688 54.5806 162.72 54.5677C162.752 54.5547 162.787 54.5484 162.821 54.5492C162.856 54.5499 162.89 54.5576 162.921 54.5718L175.003 59.6933L181.502 48.7948C181.539 48.7355 181.598 48.6929 181.665 48.6757C181.733 48.6586 181.805 48.6682 181.866 48.7026C181.925 48.7396 181.967 48.7985 181.984 48.8665C182 48.9346 181.989 49.0063 181.953 49.0662L175.341 60.1593C175.313 60.1932 175.278 60.2198 175.238 60.2367C175.198 60.2537 175.154 60.2605 175.11 60.2566Z" fill="#231F20"/>
<path d="M166.609 55.7548H166.573C166.504 55.7446 166.442 55.7078 166.4 55.6523C166.357 55.5967 166.339 55.5269 166.348 55.4577C166.552 53.8854 168.058 46.8946 168.125 46.5976C168.131 46.5634 168.145 46.531 168.164 46.5021C168.184 46.4732 168.209 46.4485 168.238 46.4294C168.267 46.4103 168.3 46.3972 168.334 46.3909C168.368 46.3846 168.403 46.3852 168.437 46.3927C168.471 46.3993 168.504 46.4128 168.532 46.4323C168.561 46.4518 168.585 46.4769 168.604 46.5061C168.623 46.5353 168.635 46.568 168.641 46.6023C168.646 46.6365 168.645 46.6715 168.637 46.7051C168.637 46.782 167.075 53.9725 166.87 55.5243C166.861 55.5877 166.83 55.6459 166.782 55.6882C166.734 55.7305 166.673 55.7541 166.609 55.7548Z" fill="#231F20"/>
<path d="M174.399 38.0703C174.154 38.0759 173.91 38.0269 173.687 37.9269C173.564 37.8655 173.441 37.7887 173.323 37.717C173.246 37.6643 173.165 37.6164 173.082 37.5736C173.046 37.5498 173.006 37.5325 172.965 37.5223C172.931 37.5139 172.896 37.5139 172.862 37.5223C172.709 37.5687 172.559 37.6287 172.417 37.7016C172.082 37.8968 171.699 37.9932 171.312 37.9796C170.925 37.966 170.55 37.843 170.23 37.6248C169.865 37.4082 169.568 37.0949 169.371 36.7197C169.174 36.3446 169.085 35.9222 169.113 35.4994C169.118 35.4337 169.148 35.3724 169.197 35.3278C169.245 35.2831 169.308 35.2584 169.374 35.2586H177C177.045 35.2585 177.089 35.2697 177.129 35.2912C177.168 35.3127 177.201 35.3437 177.226 35.3816C177.246 35.4203 177.256 35.4633 177.256 35.507C177.256 35.5507 177.246 35.5938 177.226 35.6325C176.902 36.3777 176.432 37.05 175.843 37.6094C175.416 37.9003 174.915 38.0604 174.399 38.0703ZM172.949 36.9948H173.046C173.148 37.0118 173.245 37.0484 173.333 37.1024L173.605 37.2611C173.707 37.3303 173.813 37.3936 173.922 37.4506C174.197 37.5286 174.486 37.5465 174.769 37.5032C175.052 37.4599 175.322 37.3564 175.561 37.1997C175.988 36.8011 176.336 36.3249 176.585 35.7964H169.641C169.66 36.0765 169.747 36.3476 169.895 36.586C170.044 36.8245 170.248 37.0229 170.491 37.1638C170.801 37.3457 171.155 37.4412 171.515 37.4404C171.743 37.4041 171.963 37.3297 172.166 37.2202C172.331 37.1401 172.502 37.0716 172.678 37.0153C172.767 36.9955 172.858 36.9886 172.949 36.9948Z" fill="#231F20"/>
<path d="M151.961 45.5835C152.228 45.2599 152.537 44.9723 152.878 44.7282C153.457 44.3544 154.128 44.3236 153.785 45.1533C153.468 45.7635 153.051 46.3159 152.55 46.7871C152.887 46.395 153.351 46.1339 153.861 46.0496C154.025 46.0496 154.24 46.0496 154.281 46.2084C154.295 46.3024 154.271 46.398 154.215 46.4747C153.818 47.1615 153.285 47.7594 152.648 48.2313C152.846 48.0349 153.088 47.8891 153.354 47.8063C153.421 47.7832 153.493 47.7832 153.559 47.8063C153.749 47.8728 153.677 48.1596 153.559 48.3184C153.335 48.629 153.057 48.8977 152.74 49.1122C152.536 49.2199 152.36 49.3743 152.228 49.5629C151.997 49.9726 152.284 50.5053 152.141 50.956C152.131 50.9982 152.105 51.0351 152.069 51.0584C152.018 51.0942 151.946 51.0584 151.89 51.0584C150.389 50.4028 150.03 48.0777 150.138 46.6078C150.23 45.3479 151.331 44.3902 152.422 43.8781C152.559 43.8053 152.713 43.7683 152.868 43.7705C152.946 43.7739 153.02 43.8037 153.078 43.8548C153.137 43.906 153.177 43.9756 153.19 44.0522C153.181 44.1841 153.12 44.3071 153.021 44.3953L151.961 45.5835Z" fill="white"/>
<path d="M151.992 51.335C151.914 51.3337 151.837 51.3144 151.767 51.2786C150.051 50.5309 149.759 47.965 149.856 46.5669C149.944 45.3992 150.855 44.2929 152.294 43.622C152.474 43.5272 152.675 43.4796 152.878 43.4837C153.016 43.4917 153.147 43.5471 153.248 43.6404C153.35 43.7337 153.417 43.8593 153.436 43.9959C153.441 44.0669 153.432 44.1381 153.411 44.2059C153.505 44.1856 153.603 44.1866 153.697 44.2087C153.791 44.2309 153.878 44.2736 153.954 44.3339C154.107 44.4619 154.246 44.7231 154.03 45.2506C153.95 45.4428 153.851 45.6264 153.733 45.7986H153.815C153.957 45.7548 154.111 45.7663 154.245 45.8309C154.379 45.8955 154.483 46.0084 154.537 46.1469C154.555 46.2276 154.555 46.3109 154.539 46.3919C154.523 46.4728 154.491 46.5497 154.445 46.6181C154.242 46.9678 154.005 47.2971 153.739 47.6014C153.827 47.6561 153.891 47.7421 153.918 47.8421C153.94 47.9521 153.939 48.0655 153.914 48.175C153.889 48.2845 153.842 48.3875 153.774 48.4772C153.534 48.8145 153.234 49.1045 152.888 49.3325L152.796 49.3939C152.657 49.4689 152.536 49.5738 152.443 49.7012C152.373 49.8877 152.358 50.0906 152.402 50.2851C152.447 50.535 152.438 50.7916 152.376 51.0379C152.346 51.1406 152.281 51.2294 152.192 51.2889C152.131 51.3228 152.062 51.3388 151.992 51.335ZM152.806 44.0112C152.706 44.0217 152.609 44.0512 152.52 44.0983C152.048 44.3185 150.471 45.1585 150.384 46.6078C150.302 47.755 150.517 50.07 151.92 50.7562C151.935 50.6166 151.935 50.4759 151.92 50.3363C151.84 50.0671 151.86 49.7782 151.976 49.5223C152.091 49.2665 152.295 49.0609 152.55 48.9432L152.637 48.8869C152.928 48.6886 153.181 48.4407 153.385 48.1545C153.404 48.1295 153.42 48.1019 153.431 48.0726C153.332 48.1053 153.238 48.15 153.15 48.2057C153.052 48.2877 152.95 48.3645 152.847 48.4413C152.794 48.4819 152.727 48.5003 152.66 48.4927C152.593 48.4851 152.532 48.452 152.489 48.4003C152.444 48.3513 152.42 48.2874 152.42 48.2211C152.42 48.1548 152.444 48.0909 152.489 48.0418C152.59 47.9417 152.702 47.8525 152.822 47.7755C153.298 47.3716 153.7 46.8881 154.01 46.3466V46.3057H153.908C153.46 46.3811 153.053 46.6091 152.755 46.951C152.733 46.9772 152.705 46.9987 152.674 47.0143C152.643 47.03 152.61 47.0393 152.575 47.042C152.541 47.0446 152.506 47.0404 152.473 47.0296C152.441 47.0188 152.41 47.0017 152.384 46.9791C152.358 46.9566 152.336 46.9291 152.321 46.8983C152.305 46.8674 152.296 46.8338 152.293 46.7993C152.29 46.7648 152.295 46.7302 152.305 46.6973C152.316 46.6645 152.333 46.6341 152.356 46.6078C152.463 46.4798 152.576 46.3569 152.689 46.234C153.044 45.8971 153.333 45.4978 153.544 45.056C153.641 44.8153 153.61 44.7385 153.61 44.7385C153.397 44.7454 153.191 44.8188 153.022 44.9485C152.7 45.1831 152.41 45.4566 152.156 45.7628C152.106 45.8107 152.039 45.8374 151.969 45.8374C151.899 45.8374 151.833 45.8107 151.782 45.7628C151.733 45.713 151.705 45.6458 151.705 45.5759C151.705 45.5059 151.733 45.4387 151.782 45.3889L152.806 44.1802C152.893 44.0829 152.909 44.042 152.909 44.0266C152.885 44.0077 152.857 43.9954 152.827 43.9908L152.806 44.0112Z" fill="#231F20"/>
<path d="M70.8321 79.3136H42.454V106.268H70.8321V79.3136Z" fill="white"/>
<path d="M70.8321 106.524H42.4539C42.386 106.524 42.3209 106.497 42.2729 106.449C42.2249 106.401 42.1979 106.336 42.1979 106.268V79.3136C42.1979 79.2457 42.2249 79.1806 42.2729 79.1326C42.3209 79.0845 42.386 79.0576 42.4539 79.0576H70.8321C70.9 79.0576 70.9651 79.0845 71.0131 79.1326C71.0612 79.1806 71.0881 79.2457 71.0881 79.3136V106.268C71.0881 106.336 71.0612 106.401 71.0131 106.449C70.9651 106.497 70.9 106.524 70.8321 106.524ZM42.71 106.012H70.576V79.5697H42.71V106.012Z" fill="#231F20"/>
<path d="M37.5066 72.963V74.7146C37.5066 75.937 37.9922 77.1094 38.8566 77.9738C39.7211 78.8383 40.8935 79.3239 42.1159 79.3239H103.154V68.3537H42.1108C40.8892 68.355 39.7181 68.8412 38.8548 69.7055C37.9915 70.5698 37.5066 71.7414 37.5066 72.963Z" fill="white"/>
<path d="M103.154 79.5748H42.1108C40.8222 79.5735 39.5867 79.061 38.6755 78.1498C37.7643 77.2386 37.2518 76.0032 37.2505 74.7146V72.963C37.2518 71.6739 37.7642 70.4379 38.6752 69.5259C39.5863 68.6139 40.8217 68.1003 42.1108 68.0976H103.154C103.221 68.0989 103.286 68.1263 103.333 68.1741C103.381 68.2218 103.408 68.2862 103.41 68.3537V79.3188C103.408 79.3863 103.381 79.4506 103.333 79.4984C103.286 79.5461 103.221 79.5735 103.154 79.5748ZM42.1108 68.6097C40.9571 68.6111 39.8512 69.0703 39.0359 69.8866C38.2206 70.7028 37.7626 71.8093 37.7626 72.963V74.7146C37.764 75.8673 38.2225 76.9725 39.0377 77.7877C39.8528 78.6028 40.958 79.0613 42.1108 79.0627H102.898V68.6097H42.1108Z" fill="#231F20"/>
<path d="M144.341 31.4278H106.396V106.268H144.341V31.4278Z" fill="white"/>
<path d="M144.341 106.524H106.396C106.328 106.524 106.263 106.497 106.215 106.449C106.167 106.401 106.14 106.336 106.14 106.268V31.4278C106.14 31.3599 106.167 31.2948 106.215 31.2467C106.263 31.1987 106.328 31.1717 106.396 31.1717H144.341C144.408 31.173 144.473 31.2004 144.52 31.2482C144.568 31.2959 144.595 31.3603 144.597 31.4278V106.268C144.595 106.335 144.568 106.4 144.52 106.448C144.473 106.495 144.408 106.523 144.341 106.524ZM106.652 106.012H144.085V31.6839H106.652V106.012Z" fill="#231F20"/>
<path d="M141.652 35.0794H109.084V79.3137H141.652V35.0794Z" fill="white"/>
<path d="M141.662 79.5697H109.084C109.017 79.5697 108.951 79.5427 108.903 79.4947C108.855 79.4467 108.828 79.3816 108.828 79.3136V35.0794C108.828 35.0115 108.855 34.9464 108.903 34.8984C108.951 34.8503 109.017 34.8233 109.084 34.8233H141.662C141.73 34.8247 141.794 34.8521 141.842 34.8998C141.89 34.9475 141.917 35.0119 141.918 35.0794V79.3136C141.918 79.3816 141.891 79.4467 141.843 79.4947C141.795 79.5427 141.73 79.5697 141.662 79.5697ZM109.351 79.0576H141.406V35.3355H109.341L109.351 79.0576Z" fill="#231F20"/>
<path d="M106.396 31.4278H68.4506V106.268H106.396V31.4278Z" fill="white"/>
<path d="M106.396 106.524H68.4505C68.383 106.523 68.3187 106.495 68.2709 106.448C68.2232 106.4 68.1958 106.335 68.1945 106.268V31.4278C68.1958 31.3603 68.2232 31.2959 68.2709 31.2482C68.3187 31.2004 68.383 31.173 68.4505 31.1717H106.396C106.463 31.1717 106.529 31.1987 106.577 31.2467C106.625 31.2948 106.652 31.3599 106.652 31.4278V106.268C106.652 106.336 106.625 106.401 106.577 106.449C106.529 106.497 106.463 106.524 106.396 106.524ZM68.7066 106.012H106.139V31.6839H68.7066V106.012Z" fill="#231F20"/>
<path d="M195.873 72.963V74.7146C195.873 75.937 195.387 77.1094 194.523 77.9738C193.659 78.8383 192.486 79.3239 191.264 79.3239H108.808V68.3537H191.264C192.486 68.3537 193.659 68.8393 194.523 69.7037C195.387 70.5681 195.873 71.7405 195.873 72.963Z" fill="white"/>
<path d="M191.269 79.5748H108.813C108.745 79.5735 108.681 79.5461 108.633 79.4984C108.586 79.4506 108.558 79.3863 108.557 79.3188V68.3537C108.558 68.2862 108.586 68.2218 108.633 68.1741C108.681 68.1263 108.745 68.0989 108.813 68.0976H191.269C192.558 68.099 193.794 68.6122 194.706 69.5245C195.617 70.4367 196.129 71.6735 196.129 72.963V74.7146C196.128 76.0032 195.615 77.2386 194.704 78.1498C193.793 79.061 192.557 79.5735 191.269 79.5748ZM109.079 79.0627H191.269C192.422 79.0613 193.527 78.6028 194.342 77.7877C195.157 76.9725 195.616 75.8673 195.617 74.7146V72.963C195.617 71.8093 195.159 70.7028 194.344 69.8866C193.528 69.0703 192.422 68.6111 191.269 68.6097H109.079V79.0627Z" fill="#231F20"/>
<path d="M174.47 72.963V74.7146C174.47 75.937 173.985 77.1094 173.12 77.9738C172.256 78.8383 171.083 79.3239 169.861 79.3239H108.823V68.3537H169.866C171.088 68.355 172.259 68.8412 173.122 69.7055C173.985 70.5698 174.47 71.7414 174.47 72.963Z" fill="white"/>
<path d="M169.866 79.5748H108.823C108.756 79.5735 108.691 79.5461 108.644 79.4984C108.596 79.4506 108.568 79.3863 108.567 79.3188V68.3537C108.568 68.2862 108.596 68.2218 108.644 68.1741C108.691 68.1263 108.756 68.0989 108.823 68.0976H169.866C171.155 68.1003 172.391 68.6139 173.302 69.5259C174.213 70.4379 174.725 71.6739 174.726 72.963V74.7146C174.725 76.0032 174.212 77.2386 173.301 78.1498C172.39 79.061 171.155 79.5735 169.866 79.5748ZM109.079 79.0627H169.866C171.019 79.0613 172.124 78.6028 172.939 77.7877C173.754 76.9725 174.213 75.8673 174.214 74.7146V72.963C174.214 71.8093 173.756 70.7028 172.941 69.8866C172.126 69.0703 171.02 68.6111 169.866 68.6097H109.079V79.0627Z" fill="#231F20"/>
<path d="M168.294 76.5275C167.761 76.5275 167.24 76.3694 166.797 76.0732C166.354 75.7769 166.008 75.3559 165.804 74.8634C165.601 74.3708 165.548 73.8289 165.652 73.3062C165.756 72.7835 166.013 72.3035 166.391 71.927C166.768 71.5504 167.249 71.2942 167.771 71.1909C168.294 71.0875 168.836 71.1416 169.328 71.3463C169.82 71.551 170.241 71.897 170.536 72.3407C170.832 72.7844 170.989 73.3057 170.988 73.8388C170.986 74.5523 170.702 75.2362 170.197 75.7403C169.692 76.2444 169.007 76.5275 168.294 76.5275ZM168.294 71.657C167.862 71.657 167.44 71.785 167.082 72.0247C166.723 72.2644 166.443 72.6052 166.278 73.0038C166.113 73.4025 166.07 73.8412 166.154 74.2644C166.238 74.6876 166.446 75.0764 166.751 75.3815C167.056 75.6866 167.445 75.8944 167.868 75.9786C168.291 76.0628 168.73 76.0196 169.129 75.8544C169.527 75.6893 169.868 75.4097 170.108 75.0509C170.348 74.6921 170.476 74.2703 170.476 73.8388C170.476 73.2601 170.246 72.7052 169.837 72.296C169.427 71.8869 168.872 71.657 168.294 71.657Z" fill="#D1D3D4"/>
<path d="M156.514 76.5275C155.981 76.5285 155.46 76.3713 155.016 76.0757C154.572 75.78 154.226 75.3594 154.021 74.8669C153.817 74.3745 153.763 73.8324 153.867 73.3093C153.971 72.7863 154.227 72.3058 154.604 71.9288C154.982 71.5517 155.462 71.295 155.985 71.1913C156.508 71.0875 157.05 71.1412 157.543 71.3458C158.035 71.5503 158.456 71.8964 158.751 72.3402C159.047 72.784 159.204 73.3055 159.203 73.8388C159.202 74.5514 158.918 75.2346 158.414 75.7385C157.91 76.2425 157.227 76.5262 156.514 76.5275ZM156.514 71.657C156.083 71.656 155.66 71.7831 155.301 72.0222C154.941 72.2613 154.661 72.6017 154.495 73.0003C154.329 73.3989 154.285 73.8377 154.369 74.2612C154.452 74.6848 154.66 75.074 154.965 75.3797C155.27 75.6853 155.658 75.8936 156.082 75.9782C156.505 76.0628 156.944 76.0199 157.343 75.8549C157.742 75.6899 158.083 75.4103 158.323 75.0514C158.563 74.6925 158.691 74.2705 158.691 73.8388C158.691 73.261 158.462 72.7068 158.054 72.2978C157.646 71.8888 157.092 71.6584 156.514 71.657Z" fill="#D1D3D4"/>
<path d="M144.735 76.5275C144.202 76.5285 143.68 76.3713 143.236 76.0757C142.793 75.78 142.447 75.3594 142.242 74.8669C142.037 74.3745 141.984 73.8324 142.087 73.3093C142.191 72.7863 142.448 72.3058 142.825 71.9288C143.202 71.5517 143.683 71.295 144.206 71.1913C144.729 71.0875 145.271 71.1412 145.763 71.3458C146.256 71.5503 146.676 71.8964 146.972 72.3402C147.267 72.784 147.425 73.3055 147.424 73.8388C147.422 74.5514 147.139 75.2346 146.635 75.7385C146.131 76.2425 145.448 76.5262 144.735 76.5275ZM144.735 71.657C144.303 71.656 143.881 71.7831 143.521 72.0222C143.162 72.2613 142.882 72.6017 142.716 73.0003C142.55 73.3989 142.506 73.8377 142.589 74.2612C142.673 74.6848 142.88 75.074 143.185 75.3797C143.49 75.6853 143.879 75.8936 144.302 75.9782C144.726 76.0628 145.165 76.0199 145.564 75.8549C145.963 75.6899 146.304 75.4103 146.544 75.0514C146.784 74.6925 146.912 74.2705 146.912 73.8388C146.912 73.261 146.682 72.7068 146.274 72.2978C145.866 71.8888 145.313 71.6584 144.735 71.657Z" fill="#D1D3D4"/>
<path d="M132.956 76.5275C132.422 76.5285 131.901 76.3713 131.457 76.0757C131.013 75.78 130.667 75.3594 130.463 74.8669C130.258 74.3745 130.204 73.8324 130.308 73.3093C130.412 72.7863 130.669 72.3058 131.046 71.9288C131.423 71.5517 131.903 71.295 132.426 71.1913C132.949 71.0875 133.491 71.1412 133.984 71.3458C134.476 71.5503 134.897 71.8964 135.193 72.3402C135.488 72.784 135.645 73.3055 135.644 73.8388C135.643 74.5514 135.359 75.2346 134.855 75.7385C134.351 76.2425 133.668 76.5262 132.956 76.5275ZM132.956 71.657C132.524 71.656 132.102 71.7831 131.742 72.0222C131.383 72.2613 131.102 72.6017 130.936 73.0003C130.77 73.3989 130.726 73.8377 130.81 74.2612C130.894 74.6848 131.101 75.074 131.406 75.3797C131.711 75.6853 132.1 75.8936 132.523 75.9782C132.946 76.0628 133.385 76.0199 133.784 75.8549C134.183 75.6899 134.524 75.4103 134.764 75.0514C135.004 74.6925 135.132 74.2705 135.132 73.8388C135.133 73.5525 135.077 73.2689 134.968 73.0042C134.859 72.7396 134.699 72.499 134.497 72.2963C134.294 72.0937 134.054 71.9329 133.79 71.8232C133.525 71.7135 133.242 71.657 132.956 71.657Z" fill="#D1D3D4"/>
<path d="M121.207 76.5275C120.674 76.5275 120.153 76.3694 119.71 76.0732C119.267 75.7769 118.921 75.3559 118.718 74.8634C118.514 74.3708 118.461 73.8289 118.565 73.3062C118.669 72.7835 118.927 72.3035 119.304 71.927C119.681 71.5504 120.162 71.2942 120.684 71.1909C121.207 71.0875 121.749 71.1416 122.241 71.3463C122.733 71.551 123.154 71.897 123.449 72.3407C123.745 72.7844 123.902 73.3057 123.901 73.8388C123.899 74.5523 123.615 75.2362 123.11 75.7403C122.605 76.2444 121.92 76.5275 121.207 76.5275ZM121.207 71.657C120.775 71.657 120.354 71.785 119.995 72.0247C119.636 72.2644 119.356 72.6052 119.191 73.0038C119.026 73.4025 118.983 73.8412 119.067 74.2644C119.151 74.6876 119.359 75.0764 119.664 75.3815C119.969 75.6866 120.358 75.8944 120.781 75.9786C121.204 76.0628 121.643 76.0196 122.042 75.8544C122.44 75.6893 122.781 75.4097 123.021 75.0509C123.261 74.6921 123.389 74.2703 123.389 73.8388C123.389 73.5521 123.333 73.2681 123.224 73.003C123.114 72.738 122.954 72.4973 122.751 72.2945C122.548 72.0918 122.308 71.9311 122.043 71.8217C121.778 71.7123 121.494 71.6563 121.207 71.657Z" fill="#D1D3D4"/>
<path d="M59.7184 76.5275C59.1854 76.5275 58.6644 76.3694 58.2212 76.0732C57.7781 75.7769 57.4329 75.3559 57.2291 74.8634C57.0254 74.3708 56.9723 73.8289 57.0767 73.3062C57.181 72.7835 57.4381 72.3035 57.8154 71.927C58.1926 71.5504 58.6731 71.2942 59.196 71.1909C59.7189 71.0875 60.2607 71.1416 60.7529 71.3463C61.245 71.551 61.6654 71.897 61.9608 72.3407C62.2562 72.7844 62.4133 73.3057 62.4123 73.8388C62.411 74.5523 62.1266 75.2362 61.6215 75.7403C61.1164 76.2444 60.432 76.5275 59.7184 76.5275ZM59.7184 71.657C59.2869 71.657 58.8651 71.785 58.5063 72.0247C58.1475 72.2644 57.8679 72.6052 57.7028 73.0038C57.5376 73.4025 57.4944 73.8412 57.5786 74.2644C57.6628 74.6876 57.8706 75.0764 58.1757 75.3815C58.4808 75.6866 58.8696 75.8944 59.2928 75.9786C59.716 76.0628 60.1547 76.0196 60.5534 75.8544C60.952 75.6893 61.2928 75.4097 61.5325 75.0509C61.7722 74.6921 61.9002 74.2703 61.9002 73.8388C61.9002 73.2601 61.6703 72.7052 61.2612 72.296C60.852 71.8869 60.2971 71.657 59.7184 71.657Z" fill="#D1D3D4"/>
<path d="M47.939 76.5275C47.4059 76.5275 46.8849 76.3694 46.4418 76.0732C45.9986 75.7769 45.6534 75.3559 45.4496 74.8634C45.2459 74.3708 45.1928 73.8289 45.2972 73.3062C45.4016 72.7835 45.6586 72.3035 46.0359 71.927C46.4132 71.5504 46.8936 71.2942 47.4165 71.1909C47.9394 71.0875 48.4813 71.1416 48.9734 71.3463C49.4656 71.551 49.8859 71.897 50.1813 72.3407C50.4767 72.7844 50.6339 73.3057 50.6328 73.8388C50.6315 74.5523 50.3471 75.2362 49.842 75.7403C49.337 76.2444 48.6525 76.5275 47.939 76.5275ZM47.939 71.657C47.5074 71.657 47.0856 71.785 46.7268 72.0247C46.368 72.2644 46.0884 72.6052 45.9233 73.0038C45.7581 73.4025 45.7149 73.8412 45.7991 74.2644C45.8833 74.6876 46.0911 75.0764 46.3962 75.3815C46.7013 75.6866 47.0901 75.8944 47.5133 75.9786C47.9365 76.0628 48.3752 76.0196 48.7739 75.8544C49.1725 75.6893 49.5133 75.4097 49.753 75.0509C49.9927 74.6921 50.1207 74.2703 50.1207 73.8388C50.1207 73.2601 49.8908 72.7052 49.4817 72.296C49.0725 71.8869 48.5176 71.657 47.939 71.657Z" fill="#D1D3D4"/>
<path d="M169.671 79.3136H108.823V106.268H169.671V79.3136Z" fill="white"/>
<path d="M169.671 106.524H108.823C108.756 106.523 108.691 106.495 108.644 106.448C108.596 106.4 108.568 106.335 108.567 106.268V79.3136C108.568 79.2461 108.596 79.1818 108.644 79.134C108.691 79.0863 108.756 79.0589 108.823 79.0576H169.671C169.739 79.0576 169.804 79.0845 169.853 79.1326C169.901 79.1806 169.928 79.2457 169.928 79.3136V106.268C169.928 106.336 169.901 106.401 169.853 106.449C169.804 106.497 169.739 106.524 169.671 106.524ZM109.079 106.012H169.415V79.5697H109.079V106.012Z" fill="#231F20"/>
<path d="M191.919 79.3136H169.671V106.268H191.919V79.3136Z" fill="white"/>
<path d="M191.919 106.524H169.671C169.604 106.523 169.54 106.495 169.492 106.448C169.444 106.4 169.417 106.335 169.415 106.268V79.3136C169.417 79.2461 169.444 79.1818 169.492 79.134C169.54 79.0863 169.604 79.0589 169.671 79.0576H191.919C191.987 79.0576 192.052 79.0845 192.1 79.1326C192.148 79.1806 192.175 79.2457 192.175 79.3136V106.268C192.175 106.336 192.148 106.401 192.1 106.449C192.052 106.497 191.987 106.524 191.919 106.524ZM169.928 106.012H191.663V79.5697H169.928V106.012Z" fill="#231F20"/>
<path d="M98.9695 84.0613H76.9932C76.9253 84.0613 76.8601 84.0343 76.8121 83.9863C76.7641 83.9382 76.7371 83.8731 76.7371 83.8052V49.1584C76.7371 49.0905 76.7641 49.0253 76.8121 48.9773C76.8601 48.9293 76.9253 48.9023 76.9932 48.9023H98.9695C99.0374 48.9023 99.1025 48.9293 99.1505 48.9773C99.1986 49.0253 99.2255 49.0905 99.2255 49.1584V83.8052C99.2255 83.8731 99.1986 83.9382 99.1505 83.9863C99.1025 84.0343 99.0374 84.0613 98.9695 84.0613ZM77.2493 83.5491H98.7134V49.4144H77.2493V83.5491Z" fill="#D1D3D4"/>
<path d="M90.4473 53.1019H80.7165C80.6486 53.1019 80.5835 53.0749 80.5355 53.0269C80.4874 52.9788 80.4604 52.9137 80.4604 52.8458C80.4604 52.7779 80.4874 52.7127 80.5355 52.6647C80.5835 52.6167 80.6486 52.5897 80.7165 52.5897H90.4473C90.5152 52.5897 90.5804 52.6167 90.6284 52.6647C90.6764 52.7127 90.7034 52.7779 90.7034 52.8458C90.7034 52.9137 90.6764 52.9788 90.6284 53.0269C90.5804 53.0749 90.5152 53.1019 90.4473 53.1019Z" fill="#D1D3D4"/>
<path d="M96.1065 53.1019H93.2282C93.1603 53.1019 93.0952 53.0749 93.0472 53.0269C92.9992 52.9788 92.9722 52.9137 92.9722 52.8458C92.9722 52.7779 92.9992 52.7127 93.0472 52.6647C93.0952 52.6167 93.1603 52.5897 93.2282 52.5897H96.1065C96.1744 52.5897 96.2396 52.6167 96.2876 52.6647C96.3356 52.7127 96.3626 52.7779 96.3626 52.8458C96.3626 52.9137 96.3356 52.9788 96.2876 53.0269C96.2396 53.0749 96.1744 53.1019 96.1065 53.1019Z" fill="#D1D3D4"/>
<path d="M82.8214 81.4851C82.574 81.4861 82.3319 81.4137 82.1258 81.277C81.9196 81.1403 81.7586 80.9455 81.6633 80.7173C81.5679 80.489 81.5424 80.2376 81.59 79.9949C81.6377 79.7521 81.7563 79.529 81.9309 79.3537C82.1054 79.1784 82.3281 79.0589 82.5706 79.0102C82.8132 78.9616 83.0647 78.9861 83.2933 79.0805C83.522 79.1749 83.7174 79.3351 83.855 79.5407C83.9925 79.7463 84.0659 79.9881 84.0659 80.2355C84.0659 80.566 83.935 80.8831 83.7017 81.1173C83.4685 81.3515 83.1519 81.4838 82.8214 81.4851ZM82.8214 79.5031C82.6751 79.5021 82.5318 79.5446 82.4098 79.6253C82.2877 79.7059 82.1924 79.821 82.1359 79.956C82.0795 80.091 82.0644 80.2397 82.0927 80.3832C82.121 80.5268 82.1914 80.6586 82.2948 80.7621C82.3983 80.8655 82.5301 80.9359 82.6737 80.9642C82.8172 80.9925 82.9659 80.9774 83.1009 80.921C83.2359 80.8645 83.351 80.7692 83.4316 80.6471C83.5123 80.5251 83.5548 80.3818 83.5538 80.2355C83.5538 80.0413 83.4766 79.855 83.3393 79.7176C83.2019 79.5803 83.0156 79.5031 82.8214 79.5031Z" fill="#D1D3D4"/>
<path d="M88.2195 81.4851C87.9721 81.4861 87.73 81.4137 87.5238 81.277C87.3177 81.1403 87.1567 80.9455 87.0613 80.7173C86.966 80.489 86.9405 80.2376 86.9881 79.9949C87.0358 79.7521 87.1544 79.529 87.3289 79.3537C87.5035 79.1784 87.7261 79.0589 87.9687 79.0102C88.2112 78.9616 88.4628 78.9861 88.6914 79.0805C88.92 79.1749 89.1155 79.3351 89.253 79.5407C89.3906 79.7463 89.464 79.9881 89.464 80.2355C89.464 80.566 89.3331 80.8831 89.0998 81.1173C88.8666 81.3515 88.55 81.4838 88.2195 81.4851ZM88.2195 79.5031C88.0732 79.5021 87.9299 79.5446 87.8078 79.6253C87.6858 79.7059 87.5905 79.821 87.534 79.956C87.4776 80.091 87.4625 80.2397 87.4908 80.3832C87.5191 80.5268 87.5894 80.6586 87.6929 80.7621C87.7963 80.8655 87.9282 80.9359 88.0718 80.9642C88.2153 80.9925 88.364 80.9774 88.499 80.921C88.6339 80.8645 88.7491 80.7692 88.8297 80.6471C88.9104 80.5251 88.9529 80.3818 88.9519 80.2355C88.9519 80.0413 88.8747 79.855 88.7374 79.7176C88.6 79.5803 88.4137 79.5031 88.2195 79.5031Z" fill="#D1D3D4"/>
<path d="M93.6226 81.4851C93.3752 81.4861 93.1331 81.4137 92.9269 81.277C92.7207 81.1403 92.5598 80.9455 92.4644 80.7173C92.369 80.489 92.3436 80.2376 92.3912 79.9949C92.4388 79.7521 92.5574 79.529 92.732 79.3537C92.9066 79.1784 93.1292 79.0589 93.3718 79.0102C93.6143 78.9616 93.8658 78.9861 94.0945 79.0805C94.3231 79.1749 94.5186 79.3351 94.6561 79.5407C94.7937 79.7463 94.8671 79.9881 94.8671 80.2355C94.8657 80.5656 94.7344 80.8819 94.5014 81.1158C94.2684 81.3498 93.9527 81.4824 93.6226 81.4851ZM93.6226 79.5031C93.4763 79.5021 93.333 79.5446 93.2109 79.6253C93.0889 79.7059 92.9935 79.821 92.9371 79.956C92.8806 80.091 92.8656 80.2397 92.8939 80.3832C92.9222 80.5268 92.9925 80.6586 93.096 80.7621C93.1994 80.8655 93.3313 80.9359 93.4748 80.9642C93.6184 80.9925 93.7671 80.9774 93.902 80.921C94.037 80.8645 94.1521 80.7692 94.2328 80.6471C94.3134 80.5251 94.3559 80.3818 94.3549 80.2355C94.3536 80.0417 94.276 79.8562 94.1389 79.7191C94.0019 79.582 93.8164 79.5045 93.6226 79.5031Z" fill="#D1D3D4"/>
<path d="M141.647 35.0794L125.366 68.3588H108.823V35.0794H141.647Z" fill="#231F20"/>
<path d="M125.365 68.5841H108.823C108.763 68.5828 108.706 68.5579 108.663 68.5148C108.621 68.4717 108.598 68.4139 108.598 68.3536V35.064C108.598 35.0042 108.622 34.9469 108.664 34.9047C108.706 34.8624 108.763 34.8387 108.823 34.8387H141.662C141.701 34.8388 141.738 34.8489 141.772 34.8678C141.805 34.8867 141.833 34.9139 141.854 34.9468C141.874 34.9796 141.885 35.0171 141.886 35.0555C141.888 35.094 141.879 35.1322 141.862 35.1664L125.581 68.4561C125.56 68.4955 125.53 68.5284 125.491 68.551C125.453 68.5737 125.41 68.5851 125.365 68.5841ZM109.048 68.1283H125.227L141.288 35.3098H109.023L109.048 68.1283Z" fill="#231F20"/>
<path d="M131.214 63.5036C131.127 62.4005 130.907 61.3119 130.559 60.2617C130.419 59.8689 130.35 59.4546 130.354 59.0377C130.361 58.5099 130.5 57.9923 130.758 57.532C131.143 56.7886 131.277 55.9402 131.137 55.1146C130.974 53.8394 130.42 52.8151 129.186 52.2927C128.858 52.1493 128.725 51.9905 128.858 51.6269C129.222 51.6576 129.268 51.4118 129.263 51.1148C129.258 50.8177 129.263 50.3875 129.263 50.0239C129.273 49.9325 129.262 49.8402 129.231 49.7536C129.201 49.667 129.151 49.5882 129.086 49.523C129.022 49.4578 128.943 49.4078 128.857 49.3767C128.771 49.3455 128.678 49.3339 128.587 49.3427C127.849 49.3427 127.107 49.3427 126.364 49.3427C126.273 49.3322 126.18 49.3424 126.093 49.3726C126.006 49.4028 125.927 49.4522 125.861 49.5171C125.796 49.582 125.746 49.6608 125.715 49.7476C125.684 49.8345 125.673 49.9271 125.683 50.0188C125.683 50.3926 125.683 50.7716 125.683 51.1455C125.683 51.4425 125.755 51.6576 126.093 51.6576C126.211 52.0366 126.093 52.1698 125.76 52.3132C125.372 52.4651 125.022 52.6988 124.733 52.9984C124.444 53.2981 124.223 53.6565 124.085 54.0494C123.846 54.6125 123.734 55.2211 123.755 55.8325C123.776 56.4438 123.931 57.0431 124.208 57.5883C124.455 58.0415 124.588 58.5475 124.597 59.0633C124.605 59.4416 124.545 59.8181 124.418 60.1747C124.058 61.2622 123.826 62.388 123.727 63.5292C123.64 64.6146 123.629 65.7048 123.696 66.7916C123.687 66.9682 123.716 67.1447 123.782 67.3088C123.848 67.473 123.948 67.6208 124.077 67.7422C124.205 67.8635 124.359 67.9554 124.527 68.0114C124.694 68.0675 124.872 68.0864 125.048 68.0669C126.666 68.0669 128.285 68.0669 129.903 68.0669C130.079 68.0884 130.258 68.0708 130.426 68.0154C130.594 67.9599 130.748 67.868 130.877 67.7462C131.005 67.6244 131.106 67.4757 131.17 67.3106C131.235 67.1456 131.262 66.9684 131.25 66.7916C131.316 65.6962 131.304 64.5974 131.214 63.5036Z" fill="white"/>
<path d="M127.465 68.3024H125.038C124.828 68.3208 124.617 68.2942 124.418 68.2245C124.22 68.1548 124.038 68.0436 123.886 67.8981C123.734 67.7527 123.614 67.5765 123.536 67.3813C123.457 67.186 123.421 66.9763 123.43 66.766C123.361 65.6671 123.373 64.5648 123.465 63.4677C123.56 62.3065 123.796 61.1612 124.167 60.0568C124.283 59.7279 124.338 59.381 124.331 59.0325C124.322 58.5564 124.199 58.0893 123.973 57.6702C123.678 57.0929 123.514 56.4581 123.491 55.8105C123.468 55.1629 123.587 54.518 123.839 53.9213C123.986 53.4936 124.224 53.1033 124.539 52.7784C124.853 52.4536 125.235 52.202 125.657 52.0417C125.816 51.9751 125.873 51.9444 125.873 51.8573C125.766 51.8345 125.668 51.7811 125.591 51.7037C125.523 51.625 125.472 51.5327 125.442 51.433C125.412 51.3332 125.403 51.2283 125.417 51.125C125.417 50.9406 125.417 50.7562 125.417 50.5667C125.417 50.3772 125.417 50.1877 125.417 49.9982C125.407 49.8734 125.425 49.748 125.469 49.6309C125.513 49.5137 125.582 49.4075 125.671 49.3197C125.761 49.2319 125.868 49.1647 125.986 49.1227C126.104 49.0806 126.229 49.0648 126.354 49.0764C127.095 49.0764 127.838 49.0764 128.582 49.0764C128.706 49.0688 128.83 49.0878 128.947 49.132C129.063 49.1763 129.168 49.2448 129.256 49.333C129.344 49.4212 129.412 49.527 129.455 49.6435C129.499 49.76 129.517 49.8844 129.509 50.0085C129.509 50.1775 129.509 50.3516 129.509 50.5206C129.509 50.6896 129.509 50.9047 129.509 51.0994C129.523 51.2118 129.514 51.3259 129.481 51.4344C129.448 51.543 129.393 51.6434 129.319 51.7293C129.243 51.7976 129.149 51.8436 129.048 51.8625C129.048 51.929 129.114 51.9751 129.278 52.0468C130.482 52.559 131.194 53.5833 131.383 55.0736C131.528 55.949 131.384 56.8477 130.974 57.6344C130.734 58.0579 130.605 58.5355 130.6 59.0223C130.598 59.4076 130.662 59.7905 130.789 60.1541C131.145 61.2243 131.37 62.3334 131.46 63.4575C131.544 64.555 131.553 65.657 131.486 66.7557C131.499 66.9667 131.466 67.1779 131.389 67.3748C131.312 67.5716 131.193 67.7494 131.04 67.8956C130.888 68.0419 130.705 68.1531 130.505 68.2216C130.305 68.2901 130.093 68.3141 129.883 68.2922L127.465 68.3024ZM126.083 51.3759C126.137 51.375 126.19 51.3921 126.233 51.4245C126.277 51.457 126.309 51.5029 126.323 51.5552C126.366 51.6498 126.387 51.7527 126.386 51.8566C126.384 51.9604 126.359 52.0626 126.313 52.1557C126.267 52.2488 126.201 52.3305 126.119 52.3949C126.038 52.4594 125.943 52.5049 125.842 52.5282C125.485 52.6648 125.163 52.8777 124.898 53.152C124.632 53.4263 124.43 53.7552 124.305 54.1159C124.08 54.6453 123.973 55.2173 123.992 55.7922C124.011 56.3672 124.154 56.9311 124.413 57.4449C124.677 57.9349 124.821 58.4809 124.833 59.0376C124.84 59.4439 124.774 59.8481 124.638 60.2309C124.286 61.2987 124.059 62.4039 123.962 63.5241C123.874 64.5974 123.864 65.6757 123.932 66.7506C123.923 66.8936 123.946 67.0369 123.999 67.17C124.052 67.3031 124.134 67.4229 124.238 67.5208C124.343 67.6186 124.468 67.6921 124.605 67.7361C124.741 67.78 124.885 67.7933 125.028 67.7749C126.646 67.7749 128.264 67.7749 129.883 67.7749C130.025 67.7963 130.171 67.7852 130.308 67.7423C130.446 67.6995 130.572 67.626 130.677 67.5274C130.782 67.4288 130.863 67.3076 130.914 67.1731C130.966 67.0385 130.986 66.8941 130.974 66.7506C131.041 65.6741 131.032 64.5942 130.948 63.5189C130.862 62.4371 130.647 61.3695 130.308 60.3385C130.158 59.9179 130.083 59.474 130.088 59.0274C130.095 58.4584 130.245 57.9003 130.523 57.4039C130.883 56.7077 131.006 55.9125 130.871 55.1402C130.707 53.8189 130.118 52.9636 129.079 52.5231C128.976 52.4988 128.881 52.4521 128.799 52.3862C128.717 52.3203 128.651 52.237 128.605 52.1423C128.56 52.0476 128.536 51.9439 128.535 51.8388C128.535 51.7337 128.558 51.6298 128.602 51.5347C128.621 51.4808 128.658 51.4349 128.706 51.4043C128.755 51.3737 128.812 51.3601 128.869 51.3657C128.902 51.3748 128.938 51.3748 128.971 51.3657C128.971 51.3657 129.002 51.3247 128.971 51.125C128.94 50.9252 128.971 50.7306 128.971 50.5309C128.971 50.3311 128.971 50.198 128.971 50.0187C128.971 49.7114 128.848 49.5936 128.551 49.5885C127.809 49.5885 127.071 49.5885 126.334 49.5885C126.026 49.5885 125.914 49.7063 125.903 50.0136C125.903 50.198 125.903 50.3823 125.903 50.5616C125.903 50.7409 125.903 50.9508 125.903 51.1403C125.903 51.3298 125.929 51.3452 125.929 51.3452C125.969 51.3592 126.012 51.3592 126.052 51.3452L126.083 51.3759Z" fill="#231F20"/>
<path d="M128.858 51.8881H126.083C126.015 51.8881 125.95 51.8611 125.902 51.8131C125.854 51.7651 125.827 51.6999 125.827 51.632C125.827 51.5641 125.854 51.499 125.902 51.4509C125.95 51.4029 126.015 51.3759 126.083 51.3759H128.858C128.926 51.3759 128.991 51.4029 129.04 51.4509C129.088 51.499 129.115 51.5641 129.115 51.632C129.115 51.6999 129.088 51.7651 129.04 51.8131C128.991 51.8611 128.926 51.8881 128.858 51.8881Z" fill="#231F20"/>
<path d="M131.214 63.5036H123.737C123.836 62.3623 124.068 61.2365 124.428 60.149C124.555 59.7925 124.616 59.4159 124.608 59.0376H130.374C130.37 59.4545 130.44 59.8689 130.579 60.2617C130.921 61.3127 131.134 62.4013 131.214 63.5036Z" fill="#231F20"/>
<path d="M129.965 57.24H129.908C129.875 57.2327 129.844 57.219 129.816 57.1996C129.789 57.1802 129.765 57.1555 129.747 57.1269C129.729 57.0983 129.717 57.0665 129.711 57.0331C129.705 56.9998 129.706 56.9657 129.714 56.9327C129.861 56.2682 129.861 55.5794 129.714 54.9148C129.455 54.3452 129.013 53.8783 128.459 53.5884C128.398 53.5571 128.353 53.5032 128.332 53.4383C128.312 53.3735 128.318 53.3031 128.349 53.2427C128.38 53.1822 128.434 53.1367 128.499 53.116C128.564 53.0954 128.634 53.1013 128.694 53.1326C129.371 53.4851 129.904 54.0604 130.205 54.7612C130.375 55.5148 130.375 56.2969 130.205 57.0505C130.192 57.1042 130.161 57.152 130.117 57.1862C130.074 57.2205 130.02 57.2394 129.965 57.24Z" fill="#231F20"/>
<path d="M145.032 63.5036C144.948 62.4001 144.727 61.3112 144.376 60.2617C144.239 59.8682 144.17 59.4543 144.172 59.0377C144.179 58.5099 144.318 57.9922 144.576 57.5319C144.961 56.7885 145.094 55.9402 144.955 55.1146C144.927 54.5092 144.73 53.9237 144.386 53.4248C144.042 52.926 143.565 52.5337 143.009 52.2927C142.676 52.1493 142.548 51.9905 142.676 51.6269C143.04 51.6576 143.086 51.4118 143.081 51.1147C143.076 50.8177 143.081 50.3875 143.081 50.0238C143.091 49.9328 143.081 49.8405 143.051 49.7539C143.021 49.6672 142.972 49.5883 142.908 49.523C142.844 49.4577 142.765 49.4076 142.679 49.3764C142.593 49.3452 142.501 49.3337 142.41 49.3427C141.667 49.3427 140.925 49.3427 140.187 49.3427C140.095 49.3323 140.002 49.3426 139.915 49.3728C139.828 49.4029 139.748 49.4522 139.683 49.517C139.617 49.5818 139.566 49.6605 139.535 49.7473C139.503 49.8341 139.492 49.9268 139.501 50.0187C139.501 50.3926 139.501 50.7716 139.501 51.1454C139.501 51.4425 139.578 51.6576 139.91 51.6576C140.028 52.0366 139.91 52.1697 139.578 52.3131C139.19 52.4645 138.84 52.6981 138.552 52.9978C138.264 53.2976 138.044 53.6563 137.908 54.0493C137.668 54.6121 137.555 55.2205 137.575 55.8318C137.595 56.4432 137.749 57.0427 138.026 57.5883C138.272 58.042 138.407 58.5474 138.42 59.0633C138.424 59.4416 138.362 59.8178 138.236 60.1746C137.877 61.2623 137.647 62.3881 137.549 63.5292C137.458 64.6143 137.446 65.7047 137.514 66.7916C137.505 66.9679 137.535 67.144 137.601 67.3077C137.667 67.4715 137.768 67.619 137.896 67.7401C138.025 67.8612 138.178 67.9532 138.345 68.0096C138.513 68.066 138.69 68.0855 138.866 68.0668C140.484 68.0668 142.102 68.0668 143.721 68.0668C143.897 68.0883 144.075 68.0707 144.244 68.0153C144.412 67.9599 144.566 67.868 144.694 67.7462C144.823 67.6243 144.923 67.4756 144.988 67.3106C145.052 67.1456 145.08 66.9684 145.068 66.7916C145.134 65.6961 145.122 64.5973 145.032 63.5036Z" fill="white"/>
<path d="M141.283 68.3025H138.855C138.646 68.3208 138.435 68.2943 138.236 68.2246C138.037 68.1549 137.856 68.0436 137.704 67.8982C137.551 67.7528 137.432 67.5766 137.353 67.3813C137.275 67.1861 137.239 66.9763 137.247 66.766C137.179 65.6672 137.191 64.5648 137.283 63.4678C137.383 62.3073 137.619 61.1625 137.985 60.0569C138.124 59.668 138.178 59.2541 138.144 58.8426C138.111 58.4311 137.99 58.0315 137.79 57.6703C137.496 57.093 137.331 56.4582 137.308 55.8106C137.285 55.1629 137.404 54.5181 137.657 53.9213C137.803 53.4936 138.042 53.1034 138.356 52.7785C138.67 52.4536 139.053 52.202 139.475 52.0418C139.634 51.9752 139.69 51.9444 139.69 51.8574C139.583 51.8346 139.486 51.7812 139.409 51.7037C139.341 51.6244 139.291 51.532 139.261 51.4325C139.231 51.3329 139.222 51.2283 139.234 51.125C139.234 50.9406 139.234 50.7563 139.234 50.5719C139.234 50.3875 139.234 50.1929 139.234 49.9983C139.226 49.8737 139.244 49.7487 139.289 49.6319C139.333 49.5151 139.402 49.4093 139.491 49.3217C139.58 49.2342 139.687 49.1669 139.805 49.1245C139.922 49.0822 140.047 49.0658 140.172 49.0764C140.916 49.0764 141.659 49.0764 142.4 49.0764C142.524 49.0672 142.649 49.085 142.766 49.1286C142.883 49.1722 142.989 49.2407 143.077 49.3292C143.166 49.4178 143.233 49.5244 143.276 49.6416C143.319 49.7589 143.336 49.884 143.327 50.0085C143.327 50.1792 143.327 50.35 143.327 50.5207C143.327 50.7153 143.327 50.9099 143.327 51.1045C143.342 51.217 143.333 51.3315 143.301 51.4402C143.268 51.5489 143.212 51.6493 143.137 51.7345C143.062 51.8026 142.97 51.8487 142.871 51.8676C142.871 51.9342 142.932 51.9803 143.101 52.052C144.305 52.5641 145.012 53.5884 145.201 55.0788C145.348 55.9542 145.204 56.8535 144.791 57.6395C144.551 58.0631 144.423 58.5406 144.417 59.0275C144.415 59.4133 144.481 59.7965 144.612 60.1593C144.966 61.2297 145.189 62.3388 145.278 63.4627C145.364 64.5601 145.373 65.6623 145.303 66.7609C145.316 66.9718 145.283 67.1831 145.207 67.3799C145.13 67.5768 145.011 67.7545 144.858 67.9008C144.706 68.047 144.523 68.1583 144.323 68.2267C144.123 68.2952 143.911 68.3193 143.7 68.2973L141.283 68.3025ZM139.9 51.376C139.955 51.3756 140.008 51.3929 140.053 51.4251C140.097 51.4574 140.13 51.503 140.146 51.5552C140.189 51.6502 140.21 51.7535 140.208 51.8576C140.206 51.9618 140.181 52.0642 140.134 52.1573C140.087 52.2505 140.021 52.3322 139.939 52.3963C139.857 52.4605 139.761 52.5056 139.66 52.5283C139.304 52.6658 138.982 52.879 138.717 53.1531C138.451 53.4273 138.249 53.7558 138.123 54.116C137.898 54.6454 137.791 55.2178 137.81 55.7929C137.83 56.3681 137.975 56.932 138.236 57.4449C138.467 57.8675 138.606 58.334 138.645 58.814C138.684 59.294 138.621 59.7768 138.461 60.231C138.106 61.298 137.879 62.4035 137.785 63.5241C137.693 64.5972 137.681 65.6757 137.749 66.7506C137.741 66.8937 137.764 67.0369 137.817 67.17C137.87 67.3032 137.951 67.423 138.056 67.5208C138.161 67.6187 138.286 67.6922 138.422 67.7361C138.559 67.7801 138.703 67.7933 138.845 67.7749C140.464 67.7749 142.082 67.7749 143.7 67.7749C143.843 67.7952 143.988 67.7833 144.125 67.7401C144.263 67.6969 144.388 67.6234 144.494 67.5252C144.599 67.4269 144.681 67.3063 144.733 67.1723C144.785 67.0382 144.807 66.8942 144.796 66.7506C144.861 65.6741 144.852 64.5944 144.771 63.519C144.685 62.4366 144.469 61.3687 144.125 60.3386C143.975 59.9179 143.901 59.474 143.905 59.0275C143.915 58.4588 144.065 57.9013 144.341 57.4039C144.703 56.7083 144.827 55.9132 144.694 55.1402C144.525 53.8189 143.936 52.9636 142.896 52.5232C142.794 52.4991 142.698 52.4524 142.617 52.3864C142.535 52.3205 142.469 52.2369 142.423 52.1421C142.378 52.0472 142.355 51.9433 142.355 51.8382C142.356 51.7331 142.379 51.6294 142.425 51.5347C142.443 51.4813 142.479 51.4355 142.526 51.4049C142.574 51.3742 142.63 51.3604 142.686 51.3657C142.763 51.3657 142.789 51.3657 142.789 51.3657C142.789 51.3657 142.82 51.3247 142.789 51.125C142.758 50.9253 142.789 50.7307 142.789 50.5309C142.789 50.3312 142.789 50.198 142.789 50.0188C142.789 49.7115 142.666 49.5937 142.369 49.5886C141.631 49.5886 140.894 49.5886 140.151 49.5886C139.844 49.5886 139.731 49.7064 139.721 50.0136C139.721 50.198 139.721 50.3824 139.721 50.5668C139.721 50.7511 139.721 50.9509 139.721 51.1404C139.721 51.3299 139.747 51.3452 139.752 51.3452C139.757 51.3452 139.782 51.3452 139.87 51.3452L139.9 51.376Z" fill="#231F20"/>
<path d="M142.686 51.8881H139.911C139.843 51.8881 139.778 51.8611 139.729 51.8131C139.681 51.7651 139.654 51.6999 139.654 51.632C139.654 51.5641 139.681 51.499 139.729 51.4509C139.778 51.4029 139.843 51.3759 139.911 51.3759H142.686C142.754 51.3759 142.819 51.4029 142.867 51.4509C142.915 51.499 142.942 51.5641 142.942 51.632C142.942 51.6999 142.915 51.7651 142.867 51.8131C142.819 51.8611 142.754 51.8881 142.686 51.8881Z" fill="#231F20"/>
<path d="M145.032 63.5036H137.565C137.663 62.3625 137.893 61.2367 138.251 60.149C138.377 59.7921 138.439 59.416 138.436 59.0376H144.172C144.17 59.4543 144.239 59.8682 144.377 60.2617C144.728 61.3112 144.948 62.4001 145.032 63.5036Z" fill="#231F20"/>
<path d="M143.782 57.24H143.711C143.678 57.2328 143.647 57.2191 143.619 57.1996C143.592 57.1801 143.568 57.1553 143.551 57.1266C143.533 57.0979 143.521 57.066 143.516 57.0327C143.511 56.9994 143.513 56.9654 143.521 56.9328C143.666 56.2679 143.666 55.5797 143.521 54.9149C143.26 54.3455 142.816 53.879 142.261 53.5884C142.202 53.5558 142.157 53.5012 142.137 53.4362C142.117 53.3711 142.123 53.3008 142.154 53.2402C142.185 53.1808 142.239 53.1362 142.303 53.116C142.367 53.0959 142.437 53.1019 142.497 53.1326C143.184 53.479 143.728 54.0553 144.033 54.7612C144.206 55.5146 144.206 56.2972 144.033 57.0506C144.019 57.106 143.987 57.155 143.941 57.1895C143.896 57.2239 143.84 57.2418 143.782 57.24Z" fill="#231F20"/>
<path d="M162.716 95.8355H118.615C118.548 95.8355 118.482 95.8085 118.434 95.7605C118.386 95.7125 118.359 95.6474 118.359 95.5794V90.0022C118.359 89.9342 118.386 89.8691 118.434 89.8211C118.482 89.7731 118.548 89.7461 118.615 89.7461H162.737C162.805 89.7461 162.87 89.7731 162.918 89.8211C162.966 89.8691 162.993 89.9342 162.993 90.0022V95.5794C162.993 95.6149 162.986 95.6499 162.972 95.6824C162.958 95.7149 162.937 95.7441 162.911 95.7682C162.885 95.7922 162.854 95.8106 162.821 95.8222C162.787 95.8338 162.752 95.8384 162.716 95.8355ZM118.851 95.3234H162.46V90.2582H118.851V95.3234Z" fill="#D1D3D4"/>
<path d="M156.783 121.018H0.301362C0.233447 121.018 0.168313 120.991 0.12029 120.943C0.072267 120.895 0.0452881 120.83 0.0452881 120.762C0.0452881 120.694 0.072267 120.629 0.12029 120.581C0.168313 120.533 0.233447 120.506 0.301362 120.506H156.783C156.851 120.506 156.916 120.533 156.964 120.581C157.012 120.629 157.039 120.694 157.039 120.762C157.039 120.83 157.012 120.895 156.964 120.943C156.916 120.991 156.851 121.018 156.783 121.018Z" fill="#D1D3D4"/>
<path d="M74.1223 83.7027H45.017V120.762H74.1223V83.7027Z" fill="white"/>
<path d="M74.1275 121.018H45.017C44.9491 121.018 44.884 120.991 44.8359 120.943C44.7879 120.895 44.7609 120.83 44.7609 120.762V83.7027C44.7609 83.6348 44.7879 83.5696 44.8359 83.5216C44.884 83.4736 44.9491 83.4466 45.017 83.4466H74.1275C74.1954 83.4466 74.2605 83.4736 74.3086 83.5216C74.3566 83.5696 74.3836 83.6348 74.3836 83.7027V120.772C74.3809 120.838 74.3528 120.901 74.305 120.946C74.2573 120.992 74.1937 121.018 74.1275 121.018ZM45.2731 120.506H73.8714V83.9588H45.2526L45.2731 120.506Z" fill="#D1D3D4"/>
<path d="M71.3824 86.2327H47.7621V118.227H71.3824V86.2327Z" fill="white"/>
<path d="M71.3721 118.483H47.7621C47.6942 118.483 47.6291 118.456 47.581 118.408C47.533 118.36 47.506 118.295 47.506 118.227V86.2327C47.506 86.1648 47.533 86.0997 47.581 86.0517C47.6291 86.0036 47.6942 85.9767 47.7621 85.9767H71.3721C71.4401 85.9767 71.5052 86.0036 71.5532 86.0517C71.6012 86.0997 71.6282 86.1648 71.6282 86.2327V118.211C71.6303 118.246 71.6252 118.281 71.6133 118.314C71.6014 118.347 71.5829 118.377 71.5589 118.402C71.5349 118.428 71.5059 118.448 71.4738 118.462C71.4417 118.476 71.4071 118.483 71.3721 118.483ZM48.008 117.971H71.1161V86.4888H48.0182L48.008 117.971Z" fill="#D1D3D4"/>
<path d="M71.3824 115.159V118.227H69.4465L59.1011 104.603L56.9808 101.828L47.7621 89.6897V86.2327H49.3652L59.1011 99.0313L61.2163 101.828L71.3824 115.159Z" fill="white"/>
<path d="M71.3721 118.483H69.4362C69.3971 118.483 69.3585 118.474 69.3237 118.456C69.2889 118.438 69.2589 118.412 69.2365 118.38L47.5573 89.8433C47.5252 89.7984 47.5074 89.7449 47.506 89.6897V86.2327C47.506 86.1648 47.533 86.0996 47.581 86.0516C47.6291 86.0036 47.6942 85.9766 47.7621 85.9766H49.3498C49.3891 85.976 49.428 85.9845 49.4636 86.0013C49.4991 86.0182 49.5303 86.0431 49.5546 86.0739L61.4057 101.674L71.5719 114.99C71.6039 115.035 71.6217 115.088 71.6231 115.143V118.216C71.6245 118.25 71.619 118.284 71.6071 118.316C71.5951 118.348 71.577 118.377 71.5536 118.402C71.5302 118.427 71.5021 118.447 71.471 118.461C71.4398 118.475 71.4062 118.482 71.3721 118.483ZM69.5643 117.97H71.1007V115.246L58.8706 99.1849L49.2115 86.4888H48.0182V89.6026L69.5643 117.97Z" fill="#D1D3D4"/>
<path d="M71.3824 86.2327V88.4759L61.2163 101.828L59.1011 104.603L48.7506 118.227H47.7621V113.945L56.9808 101.828L59.1011 99.0313L68.8524 86.2327H71.3824Z" fill="white"/>
<path d="M48.7506 118.483H47.7621C47.6942 118.483 47.6291 118.456 47.581 118.408C47.533 118.36 47.506 118.295 47.506 118.227V113.945C47.5074 113.89 47.5252 113.836 47.5573 113.791L68.6475 86.074C68.6721 86.0434 68.7034 86.0188 68.7388 86.0019C68.7743 85.9851 68.8131 85.9764 68.8524 85.9767H71.3721C71.4401 85.9767 71.5052 86.0036 71.5532 86.0517C71.6012 86.0997 71.6282 86.1648 71.6282 86.2327V88.4759C71.6269 88.5311 71.609 88.5846 71.577 88.6296L48.9452 118.38C48.9221 118.41 48.8928 118.435 48.8592 118.453C48.8256 118.471 48.7885 118.481 48.7506 118.483ZM48.0182 117.971H48.6225L71.1263 88.3889V86.4888H68.9804L48.0182 114.032V117.971Z" fill="#D1D3D4"/>
<path d="M8.60326 120.762H45.0221L45.0221 83.7027H8.60326L8.60326 120.762Z" fill="white"/>
<path d="M45.017 121.018H8.59811C8.5302 121.018 8.46507 120.991 8.41705 120.943C8.36902 120.895 8.34204 120.83 8.34204 120.762V83.7027C8.34204 83.6348 8.36902 83.5696 8.41705 83.5216C8.46507 83.4736 8.5302 83.4466 8.59811 83.4466H45.017C45.0849 83.4466 45.15 83.4736 45.198 83.5216C45.2461 83.5696 45.273 83.6348 45.273 83.7027V120.772C45.2704 120.838 45.2422 120.901 45.1945 120.946C45.1468 120.992 45.0831 121.018 45.017 121.018ZM8.85419 120.506H44.7404V83.9588H8.85419V120.506Z" fill="#D1D3D4"/>
<path d="M42.3795 86.2327H11.2358V118.227H42.3795V86.2327Z" fill="white"/>
<path d="M42.3795 118.483H11.2357C11.1678 118.483 11.1027 118.456 11.0547 118.408C11.0067 118.36 10.9797 118.295 10.9797 118.227V86.2327C10.9797 86.1648 11.0067 86.0997 11.0547 86.0517C11.1027 86.0036 11.1678 85.9767 11.2357 85.9767H42.3795C42.4474 85.9767 42.5125 86.0036 42.5605 86.0517C42.6086 86.0997 42.6355 86.1648 42.6355 86.2327V118.211C42.6376 118.246 42.6326 118.281 42.6206 118.314C42.6087 118.347 42.5902 118.377 42.5662 118.402C42.5422 118.428 42.5133 118.448 42.4811 118.462C42.449 118.476 42.4144 118.483 42.3795 118.483ZM11.4918 117.971H42.1234V86.4888H11.4918V117.971Z" fill="#D1D3D4"/>
<path d="M11.2408 115.159V118.227H13.7862L27.435 104.603L30.2262 101.828L42.3794 89.6897V86.2327H40.2643L27.435 99.0313L24.6386 101.828L11.2408 115.159Z" fill="white"/>
<path d="M13.7862 118.483H11.2254C11.1575 118.483 11.0924 118.456 11.0444 118.408C10.9963 118.36 10.9694 118.295 10.9694 118.227V115.154C10.9709 115.086 10.9984 115.022 11.0462 114.974L27.2403 98.8418L40.0747 86.0381C40.1228 85.9917 40.1872 85.966 40.254 85.9664H42.3691C42.4371 85.9664 42.5022 85.9934 42.5502 86.0414C42.5982 86.0894 42.6252 86.1545 42.6252 86.2225V89.6795C42.6256 89.7463 42.5999 89.8106 42.5535 89.8587L13.9603 118.396C13.9385 118.421 13.9119 118.442 13.882 118.457C13.8521 118.472 13.8195 118.48 13.7862 118.483ZM11.4918 117.971H13.6837L42.1233 89.5822V86.5093H40.3718L24.823 102.027L11.5071 115.287L11.4918 117.971Z" fill="#D1D3D4"/>
<path d="M11.2408 86.2327V88.4759L24.6386 101.828L27.435 104.603L41.0786 118.227H42.3794V113.945L30.2262 101.828L27.435 99.0313L14.5749 86.2327H11.2408Z" fill="white"/>
<path d="M42.3795 118.483H41.0786C41.045 118.483 41.0117 118.476 40.9809 118.463C40.95 118.45 40.9222 118.43 40.8994 118.406L24.4594 102.017L11.0565 88.6654C11.0087 88.6178 10.9812 88.5536 10.9797 88.4861V86.2429C10.9797 86.175 11.0067 86.1099 11.0547 86.0618C11.1027 86.0138 11.1678 85.9869 11.2357 85.9869H14.575C14.6418 85.9865 14.7061 86.0122 14.7542 86.0586L30.4003 101.648L42.5536 113.766C42.6 113.814 42.6257 113.878 42.6253 113.945V118.211C42.6274 118.245 42.6226 118.279 42.6113 118.312C42.6 118.344 42.5824 118.373 42.5595 118.399C42.5366 118.424 42.5089 118.444 42.478 118.459C42.447 118.473 42.4136 118.481 42.3795 118.483ZM41.1862 117.97H42.1234V114.053L27.2711 99.2003L14.4674 86.4785H11.4918V88.3581L27.6142 104.414L41.1862 117.97Z" fill="#D1D3D4"/>
<path d="M88.2012 46.6385H59.0959V83.6976H88.2012V46.6385Z" fill="white"/>
<path d="M88.2064 83.9588H59.0805C59.0126 83.9588 58.9475 83.9318 58.8995 83.8838C58.8514 83.8357 58.8245 83.7706 58.8245 83.7027V46.6385C58.8258 46.571 58.8532 46.5067 58.9009 46.4589C58.9487 46.4112 59.013 46.3838 59.0805 46.3825H88.191C88.2585 46.3838 88.3229 46.4112 88.3707 46.4589C88.4184 46.5067 88.4458 46.571 88.4471 46.6385V83.7027C88.4472 83.768 88.4224 83.8309 88.3776 83.8785C88.3329 83.9261 88.2716 83.9548 88.2064 83.9588ZM59.352 83.4466H87.9503V46.8946H59.352V83.4466Z" fill="#D1D3D4"/>
<path d="M85.4613 49.1685H61.841V81.1624H85.4613V49.1685Z" fill="white"/>
<path d="M85.4613 81.4236H61.841C61.7731 81.4236 61.708 81.3966 61.66 81.3486C61.6119 81.3006 61.585 81.2354 61.585 81.1675V49.1685C61.585 49.1006 61.6119 49.0355 61.66 48.9874C61.708 48.9394 61.7731 48.9124 61.841 48.9124H85.4613C85.5292 48.9124 85.5943 48.9394 85.6424 48.9874C85.6904 49.0355 85.7174 49.1006 85.7174 49.1685V81.1675C85.7174 81.2354 85.6904 81.3006 85.6424 81.3486C85.5943 81.3966 85.5292 81.4236 85.4613 81.4236ZM62.0971 80.9114H85.2001V49.4246H62.0971V80.9114Z" fill="#D1D3D4"/>
<path d="M85.4613 78.0997V81.1624H83.5253L73.1799 67.5444L71.0597 64.7685L61.841 52.6255V49.1685H63.444L73.1799 61.9671L75.2951 64.7685L85.4613 78.0997Z" fill="white"/>
<path d="M85.4612 81.4236H83.5253C83.4864 81.4228 83.4482 81.4132 83.4136 81.3954C83.379 81.3777 83.3489 81.3523 83.3256 81.3212L61.6412 52.7792C61.6083 52.7347 61.5904 52.6809 61.59 52.6255V49.1685C61.59 49.1006 61.617 49.0355 61.665 48.9874C61.7131 48.9394 61.7782 48.9124 61.8461 48.9124H63.4491C63.4888 48.9128 63.5279 48.9223 63.5634 48.94C63.5989 48.9578 63.6299 48.9834 63.654 49.0149L75.5051 64.6098L85.6712 77.9256C85.7042 77.9701 85.7221 78.0239 85.7224 78.0793V81.1522C85.7246 81.1875 85.7194 81.2229 85.7071 81.2561C85.6949 81.2893 85.6759 81.3196 85.6514 81.3451C85.6268 81.3706 85.5972 81.3908 85.5645 81.4043C85.5318 81.4178 85.4966 81.4244 85.4612 81.4236ZM83.6534 80.9114H85.1898V78.1868L72.9597 62.1207L63.3006 49.4246H62.0817V52.5384L83.6534 80.9114Z" fill="#D1D3D4"/>
<path d="M85.4613 49.1685V51.4117L75.2951 64.7685L73.1799 67.5444L62.8294 81.1624H61.841V76.8859L71.0597 64.7685L73.1799 61.9671L82.9312 49.1685H85.4613Z" fill="white"/>
<path d="M62.8295 81.4236H61.841C61.7731 81.4236 61.708 81.3966 61.66 81.3486C61.6119 81.3006 61.585 81.2354 61.585 81.1675V76.886C61.5853 76.8306 61.6032 76.7768 61.6362 76.7323L82.7264 49.0149C82.7508 48.9836 82.7818 48.9582 82.8173 48.9405C82.8527 48.9228 82.8917 48.9132 82.9313 48.9124H85.4613C85.5292 48.9124 85.5943 48.9394 85.6424 48.9874C85.6904 49.0355 85.7174 49.1006 85.7174 49.1685V51.4117C85.717 51.4671 85.6991 51.5209 85.6661 51.5654L63.0343 81.3365C63.0081 81.3644 62.9763 81.3866 62.9411 81.4016C62.9058 81.4166 62.8678 81.4241 62.8295 81.4236ZM62.0971 80.9114H62.7014L85.2001 51.3247V49.4246H83.0542L62.092 76.973L62.0971 80.9114Z" fill="#D1D3D4"/>
<path d="M22.6822 83.7027H59.1011L59.1011 46.6436L22.6822 46.6436L22.6822 83.7027Z" fill="white"/>
<path d="M59.0806 83.9588H22.6771C22.6092 83.9588 22.544 83.9318 22.496 83.8838C22.448 83.8357 22.421 83.7706 22.421 83.7027V46.6385C22.4223 46.571 22.4497 46.5067 22.4975 46.4589C22.5452 46.4112 22.6096 46.3838 22.6771 46.3825H59.0806C59.1485 46.3825 59.2136 46.4094 59.2616 46.4575C59.3097 46.5055 59.3366 46.5706 59.3366 46.6385V83.7027C59.3366 83.7706 59.3097 83.8357 59.2616 83.8838C59.2136 83.9318 59.1485 83.9588 59.0806 83.9588ZM22.9178 83.4466H58.8245V46.8946H22.9332L22.9178 83.4466Z" fill="#D1D3D4"/>
<path d="M56.4583 49.1685H25.3146V81.1624H56.4583V49.1685Z" fill="white"/>
<path d="M56.4584 81.4236H25.3198C25.2519 81.4236 25.1867 81.3966 25.1387 81.3486C25.0907 81.3006 25.0637 81.2354 25.0637 81.1675V49.1685C25.0637 49.1006 25.0907 49.0355 25.1387 48.9874C25.1867 48.9394 25.2519 48.9124 25.3198 48.9124H56.4584C56.5263 48.9124 56.5914 48.9394 56.6395 48.9874C56.6875 49.0355 56.7145 49.1006 56.7145 49.1685V81.1675C56.7145 81.2354 56.6875 81.3006 56.6395 81.3486C56.5914 81.3966 56.5263 81.4236 56.4584 81.4236ZM25.5759 80.9114H56.2023V49.4246H25.5759V80.9114Z" fill="#D1D3D4"/>
<path d="M25.3146 78.0997V81.1624H27.8651L41.5139 67.5444L44.3051 64.7685L56.4583 52.6255V49.1685H54.3432L41.5139 61.9671L38.7175 64.7685L25.3146 78.0997Z" fill="white"/>
<path d="M27.8652 81.4237H25.3044C25.2365 81.4237 25.1714 81.3967 25.1233 81.3487C25.0753 81.3006 25.0483 81.2355 25.0483 81.1676V78.0947C25.0487 78.0265 25.0742 77.9608 25.12 77.9103L41.3142 61.7828L54.1486 48.9791C54.1962 48.9313 54.2604 48.9038 54.3278 48.9023H56.443C56.5109 48.9023 56.5761 48.9292 56.6241 48.9773C56.6721 49.0253 56.6991 49.0904 56.6991 49.1583V52.6153C56.6987 52.6835 56.6732 52.7492 56.6274 52.7997L28.0495 81.3366C28.0017 81.3885 27.9356 81.4197 27.8652 81.4237ZM25.5759 80.9115H27.7627L56.2023 52.518V49.4451H54.4712L38.9019 64.9479L25.5861 78.2074L25.5759 80.9115Z" fill="#D1D3D4"/>
<path d="M25.3146 49.1685V51.4117L38.7175 64.7685L41.5139 67.5444L55.1575 81.1624H56.4583V76.8859L44.3051 64.7685L41.5139 61.9671L28.6538 49.1685H25.3146Z" fill="white"/>
<path d="M56.4584 81.4236H55.1575C55.0904 81.4181 55.0281 81.3869 54.9834 81.3365L38.5435 64.9478L25.1405 51.5961C25.0947 51.5456 25.0692 51.4799 25.0688 51.4117V49.1685C25.0688 49.1006 25.0958 49.0355 25.1439 48.9875C25.1919 48.9394 25.257 48.9125 25.3249 48.9125H28.659C28.6926 48.9121 28.7259 48.9187 28.7568 48.9319C28.7876 48.9451 28.8154 48.9647 28.8383 48.9893L44.4946 64.5842L56.6428 76.7272C56.6886 76.7777 56.7141 76.8434 56.7145 76.9116V81.1931C56.7081 81.2565 56.6783 81.3153 56.631 81.3579C56.5836 81.4005 56.5221 81.4239 56.4584 81.4236ZM55.2651 80.9115H56.2023V76.9935L41.35 62.1412L28.5463 49.4144H25.5759V51.2939L41.6932 67.3498L55.2651 80.9115Z" fill="#D1D3D4"/>
<path d="M103.233 83.7027H74.1275V120.762H103.233V83.7027Z" fill="white"/>
<path d="M103.233 121.018H74.1275C74.0596 121.018 73.9945 120.991 73.9465 120.943C73.8984 120.895 73.8715 120.83 73.8715 120.762V83.7027C73.8715 83.6348 73.8984 83.5696 73.9465 83.5216C73.9945 83.4736 74.0596 83.4466 74.1275 83.4466H103.233C103.301 83.4466 103.366 83.4736 103.414 83.5216C103.462 83.5696 103.489 83.6348 103.489 83.7027V120.772C103.486 120.838 103.458 120.901 103.41 120.946C103.363 120.992 103.299 121.018 103.233 121.018ZM74.3836 120.506H102.977V83.9588H74.3836V120.506Z" fill="#D1D3D4"/>
<path d="M100.488 86.2327H76.8674V118.227H100.488V86.2327Z" fill="white"/>
<path d="M100.488 118.483H76.8674C76.7995 118.483 76.7343 118.456 76.6863 118.408C76.6383 118.36 76.6113 118.295 76.6113 118.227V86.2327C76.6113 86.1648 76.6383 86.0997 76.6863 86.0517C76.7343 86.0036 76.7995 85.9767 76.8674 85.9767H100.488C100.556 85.9767 100.621 86.0036 100.669 86.0517C100.717 86.0997 100.744 86.1648 100.744 86.2327V118.211C100.746 118.246 100.741 118.281 100.729 118.314C100.717 118.347 100.698 118.377 100.674 118.402C100.65 118.428 100.621 118.448 100.589 118.462C100.557 118.476 100.523 118.483 100.488 118.483ZM77.1235 117.971H100.232V86.4888H77.1235V117.971Z" fill="#D1D3D4"/>
<path d="M100.488 115.159V118.227H98.5569L88.2064 104.603L86.0861 101.828L76.8674 89.6897V86.2327H78.4756L88.2064 99.0313L90.3267 101.828L100.488 115.159Z" fill="white"/>
<path d="M100.488 118.483H98.5569C98.517 118.484 98.4775 118.475 98.4418 118.457C98.4061 118.439 98.3753 118.413 98.352 118.38L76.6625 89.8434C76.6305 89.7984 76.6127 89.7449 76.6113 89.6897V86.2327C76.6113 86.1648 76.6383 86.0997 76.6863 86.0517C76.7343 86.0036 76.7995 85.9767 76.8674 85.9767H78.4755C78.5141 85.9765 78.5521 85.9851 78.5868 86.002C78.6214 86.0189 78.6517 86.0435 78.6753 86.074L90.5315 101.674L100.693 114.99C100.727 115.034 100.745 115.088 100.744 115.143V118.216C100.745 118.251 100.74 118.285 100.727 118.318C100.715 118.35 100.696 118.379 100.672 118.404C100.649 118.429 100.62 118.449 100.588 118.462C100.556 118.476 100.522 118.483 100.488 118.483ZM98.6849 117.971H100.221V115.246L87.9913 99.185L78.3373 86.4888H77.1132V89.6027L98.6849 117.971Z" fill="#D1D3D4"/>
<path d="M100.488 86.2327V88.4759L90.3267 101.828L88.2064 104.603L77.8559 118.227H76.8674V113.945L86.0861 101.828L88.2064 99.0313L97.9577 86.2327H100.488Z" fill="white"/>
<path d="M77.8558 118.483H76.8674C76.7995 118.483 76.7343 118.456 76.6863 118.408C76.6383 118.36 76.6113 118.295 76.6113 118.227V113.945C76.6127 113.89 76.6305 113.836 76.6625 113.791L97.7528 86.074C97.7779 86.0439 97.8092 86.0197 97.8446 86.0029C97.8799 85.9861 97.9185 85.9771 97.9576 85.9767H100.488C100.556 85.9767 100.621 86.0036 100.669 86.0517C100.717 86.0997 100.744 86.1648 100.744 86.2327V88.4759C100.745 88.5315 100.727 88.5858 100.693 88.6296L78.0607 118.38C78.0371 118.412 78.0063 118.438 77.9706 118.456C77.935 118.474 77.8957 118.483 77.8558 118.483ZM77.1235 117.971H77.7278L100.232 88.3889V86.4888H98.0857L77.1235 114.032V117.971Z" fill="#D1D3D4"/>
<path d="M60.3404 90.294H50.1845V98.9339H60.3404V90.294Z" fill="white"/>
<path d="M60.3405 99.19H50.1846C50.1167 99.19 50.0515 99.163 50.0035 99.115C49.9555 99.067 49.9285 99.0019 49.9285 98.9339V90.294C49.9285 90.2261 49.9555 90.161 50.0035 90.1129C50.0515 90.0649 50.1167 90.0379 50.1846 90.0379H60.3405C60.4084 90.0379 60.4735 90.0649 60.5216 90.1129C60.5696 90.161 60.5966 90.2261 60.5966 90.294V98.9339C60.5966 99.0019 60.5696 99.067 60.5216 99.115C60.4735 99.163 60.4084 99.19 60.3405 99.19ZM50.4407 98.6779H60.1049V90.5552H50.4407V98.6779Z" fill="#D1D3D4"/>
<path d="M58.6043 92.6909H51.9105C51.843 92.6896 51.7786 92.6622 51.7309 92.6145C51.6831 92.5667 51.6557 92.5023 51.6544 92.4348C51.6544 92.3669 51.6814 92.3018 51.7294 92.2538C51.7774 92.2057 51.8426 92.1788 51.9105 92.1788H58.5684C58.6363 92.1788 58.7015 92.2057 58.7495 92.2538C58.7975 92.3018 58.8245 92.3669 58.8245 92.4348C58.824 92.4967 58.8017 92.5564 58.7613 92.6033C58.721 92.6501 58.6654 92.6812 58.6043 92.6909Z" fill="#D1D3D4"/>
<path d="M58.6043 94.8726H51.9105C51.843 94.8713 51.7786 94.8439 51.7309 94.7961C51.6831 94.7484 51.6557 94.684 51.6544 94.6165C51.6544 94.5486 51.6814 94.4835 51.7294 94.4354C51.7774 94.3874 51.8426 94.3604 51.9105 94.3604H58.5684C58.6363 94.3604 58.7015 94.3874 58.7495 94.4354C58.7975 94.4835 58.8245 94.5486 58.8245 94.6165C58.824 94.6783 58.8017 94.738 58.7613 94.7849C58.721 94.8318 58.6654 94.8629 58.6043 94.8726Z" fill="#D1D3D4"/>
<path d="M56.3969 97.0543H51.9105C51.843 97.053 51.7786 97.0256 51.7309 96.9779C51.6831 96.9301 51.6557 96.8658 51.6544 96.7983C51.6544 96.7303 51.6814 96.6652 51.7294 96.6172C51.7774 96.5692 51.8426 96.5422 51.9105 96.5422H56.3867C56.4546 96.5422 56.5197 96.5692 56.5677 96.6172C56.6158 96.6652 56.6427 96.7303 56.6427 96.7983C56.6416 96.8641 56.6156 96.927 56.57 96.9745C56.5244 97.022 56.4626 97.0505 56.3969 97.0543Z" fill="#D1D3D4"/>
<path d="M90.5418 90.294H80.3859V98.9339H90.5418V90.294Z" fill="white"/>
<path d="M90.5366 99.19H80.3858C80.3179 99.19 80.2528 99.163 80.2048 99.115C80.1567 99.067 80.1298 99.0019 80.1298 98.9339V90.294C80.1298 90.2261 80.1567 90.161 80.2048 90.1129C80.2528 90.0649 80.3179 90.0379 80.3858 90.0379H90.5366C90.6045 90.0379 90.6697 90.0649 90.7177 90.1129C90.7657 90.161 90.7927 90.2261 90.7927 90.294V98.9339C90.7927 99.0019 90.7657 99.067 90.7177 99.115C90.6697 99.163 90.6045 99.19 90.5366 99.19ZM80.6419 98.6779H90.2805V90.5552H80.6419V98.6779Z" fill="#D1D3D4"/>
<path d="M88.7852 92.6909H82.1272C82.0593 92.6909 81.9942 92.6639 81.9462 92.6159C81.8981 92.5679 81.8712 92.5027 81.8712 92.4348C81.8712 92.3669 81.8981 92.3018 81.9462 92.2538C81.9942 92.2057 82.0593 92.1788 82.1272 92.1788H88.7852C88.8531 92.1788 88.9182 92.2057 88.9662 92.2538C89.0142 92.3018 89.0412 92.3669 89.0412 92.4348C89.0412 92.5027 89.0142 92.5679 88.9662 92.6159C88.9182 92.6639 88.8531 92.6909 88.7852 92.6909Z" fill="#D1D3D4"/>
<path d="M88.7852 94.8726H82.1272C82.0593 94.8726 81.9942 94.8456 81.9462 94.7976C81.8981 94.7496 81.8712 94.6844 81.8712 94.6165C81.8712 94.5486 81.8981 94.4835 81.9462 94.4354C81.9942 94.3874 82.0593 94.3604 82.1272 94.3604H88.7852C88.8531 94.3604 88.9182 94.3874 88.9662 94.4354C89.0142 94.4835 89.0412 94.5486 89.0412 94.6165C89.0412 94.6844 89.0142 94.7496 88.9662 94.7976C88.9182 94.8456 88.8531 94.8726 88.7852 94.8726Z" fill="#D1D3D4"/>
<path d="M86.5932 97.0543H82.1272C82.0593 97.0543 81.9942 97.0274 81.9462 96.9793C81.8981 96.9313 81.8712 96.8662 81.8712 96.7983C81.8712 96.7303 81.8981 96.6652 81.9462 96.6172C81.9942 96.5692 82.0593 96.5422 82.1272 96.5422H86.5983C86.6662 96.5422 86.7313 96.5692 86.7794 96.6172C86.8274 96.6652 86.8544 96.7303 86.8544 96.7983C86.8544 96.8323 86.8476 96.8661 86.8344 96.8975C86.8212 96.9289 86.8019 96.9573 86.7776 96.9812C86.7532 97.005 86.7244 97.0238 86.6927 97.0363C86.6611 97.0489 86.6272 97.055 86.5932 97.0543Z" fill="#D1D3D4"/>
<path d="M75.3925 52.6819H65.2366V61.3218H75.3925V52.6819Z" fill="white"/>
<path d="M75.3925 61.5779H65.2263C65.1584 61.5779 65.0933 61.5509 65.0453 61.5029C64.9973 61.4549 64.9703 61.3897 64.9703 61.3218V52.6819C64.9703 52.614 64.9973 52.5488 65.0453 52.5008C65.0933 52.4528 65.1584 52.4258 65.2263 52.4258H75.3822C75.4502 52.4258 75.5153 52.4528 75.5633 52.5008C75.6113 52.5488 75.6383 52.614 75.6383 52.6819V61.3218C75.6384 61.388 75.6128 61.4516 75.567 61.4994C75.5211 61.5471 75.4586 61.5752 75.3925 61.5779ZM65.4927 61.0657H75.1364V52.938H65.4927V61.0657Z" fill="#D1D3D4"/>
<path d="M73.6563 55.0736H66.9984C66.9305 55.0736 66.8653 55.0466 66.8173 54.9986C66.7693 54.9506 66.7423 54.8855 66.7423 54.8175C66.7436 54.75 66.771 54.6857 66.8188 54.6379C66.8665 54.5902 66.9309 54.5628 66.9984 54.5615H73.6563C73.7238 54.5628 73.7882 54.5902 73.8359 54.6379C73.8837 54.6857 73.9111 54.75 73.9124 54.8175C73.9124 54.8855 73.8854 54.9506 73.8374 54.9986C73.7894 55.0466 73.7242 55.0736 73.6563 55.0736Z" fill="#D1D3D4"/>
<path d="M73.6563 57.2656H66.9984C66.9305 57.2656 66.8653 57.2386 66.8173 57.1906C66.7693 57.1426 66.7423 57.0774 66.7423 57.0095C66.7436 56.942 66.771 56.8776 66.8188 56.8299C66.8665 56.7822 66.9309 56.7548 66.9984 56.7534H73.6563C73.7238 56.7548 73.7882 56.7822 73.8359 56.8299C73.8837 56.8776 73.9111 56.942 73.9124 57.0095C73.9124 57.0774 73.8854 57.1426 73.8374 57.1906C73.7894 57.2386 73.7242 57.2656 73.6563 57.2656Z" fill="#D1D3D4"/>
<path d="M71.449 59.4422H66.9728C66.9053 59.4409 66.8409 59.4135 66.7932 59.3658C66.7454 59.3181 66.718 59.2537 66.7167 59.1862C66.7167 59.1183 66.7437 59.0531 66.7917 59.0051C66.8398 58.9571 66.9049 58.9301 66.9728 58.9301H71.449C71.5169 58.9301 71.582 58.9571 71.63 59.0051C71.6781 59.0531 71.7051 59.1183 71.7051 59.1862C71.7037 59.2537 71.6763 59.3181 71.6286 59.3658C71.5809 59.4135 71.5165 59.4409 71.449 59.4422Z" fill="#D1D3D4"/>
</g>
</svg>
