<svg width="202" height="132" viewBox="0 0 202 132" fill="none" xmlns="http://www.w3.org/2000/svg">
<mask id="mask0" mask-type="alpha" maskUnits="userSpaceOnUse" x="0" y="0" width="202" height="132">
<rect x="0.615601" y="0.518982" width="200.412" height="131.463" fill="#C4C4C4"/>
</mask>
<g mask="url(#mask0)">
<path d="M79.3332 31.9561H118.139C120.727 31.9566 123.287 32.4989 125.654 33.548C128.021 34.5971 130.142 36.1299 131.881 38.0477C133.62 39.9656 134.938 42.2261 135.751 44.684C136.564 47.1418 136.854 49.7426 136.602 52.3191L132.955 89.5727H64.5167L60.8651 52.3191C60.6136 49.7423 60.904 47.1414 61.7177 44.6836C62.5313 42.2257 63.8501 39.9653 65.5894 38.0475C67.3287 36.1298 69.45 34.5971 71.817 33.548C74.1839 32.499 76.7441 31.9567 79.3332 31.9561Z" fill="white"/>
<path d="M132.955 89.8288H64.5167C64.453 89.8291 64.3914 89.8057 64.3441 89.763C64.2967 89.7204 64.267 89.6617 64.2606 89.5983L60.609 52.3447C60.3531 49.732 60.6469 47.0947 61.4715 44.6025C62.2961 42.1102 63.6331 39.8181 65.3968 37.8736C67.1604 35.9291 69.3114 34.3752 71.7116 33.312C74.1118 32.2487 76.708 31.6996 79.3331 31.7H118.139C120.764 31.6988 123.36 32.2473 125.76 33.3104C128.161 34.3734 130.312 35.9273 132.075 37.8721C133.839 39.8169 135.175 42.1094 135.999 44.602C136.822 47.0946 137.115 49.7321 136.858 52.3447L133.211 89.5983C133.204 89.6613 133.174 89.7193 133.126 89.7617C133.079 89.8041 133.018 89.828 132.955 89.8288ZM64.7471 89.3166H132.725L136.351 52.2935C136.599 49.7522 136.313 47.1871 135.511 44.763C134.709 42.3389 133.409 40.1095 131.693 38.2181C129.978 36.3267 127.886 34.8152 125.551 33.7809C123.217 32.7465 120.692 32.2121 118.139 32.2121H79.3331C76.7795 32.2114 74.254 32.7452 71.9192 33.7793C69.5844 34.8134 67.4919 36.3249 65.7764 38.2164C64.061 40.108 62.7605 42.3377 61.9587 44.7622C61.1569 47.1866 60.8716 49.7521 61.1211 52.2935L64.7471 89.3166Z" fill="#D1D3D4"/>
<path d="M147.812 60.1703C144.832 61.8092 128.351 63.3559 125.841 64.5185C125.394 64.7331 124.963 64.9796 124.551 65.256C120.546 67.8986 117.893 74.2902 124.873 74.869C127.009 75.0482 145.795 68.1035 153.267 64.9691C154.916 64.2829 160.381 61.4558 159.961 60.3598C159.541 59.2638 157.794 56.4163 157.118 56.6211C156.442 56.826 151.346 59.2382 151.346 59.2382C151.346 59.2382 152.765 54.9874 151.346 55.141C149.928 55.2947 147.812 60.1703 147.812 60.1703Z" fill="white"/>
<path d="M124.95 75.1352H124.853C121.693 74.8689 120.689 73.4656 120.397 72.3338C119.762 69.8396 121.934 66.6643 124.402 65.0357C124.826 64.7532 125.269 64.5017 125.729 64.2828C126.886 63.74 130.707 63.1612 135.132 62.4852C140.187 61.717 145.887 60.8463 147.608 59.9808C147.956 59.1716 149.83 54.9925 151.305 54.8593C151.431 54.8409 151.559 54.8559 151.676 54.9026C151.794 54.9494 151.898 55.0263 151.976 55.1256C152.519 55.8068 152.074 57.6864 151.776 58.7107C153.113 58.0756 156.473 56.4931 157.041 56.3394C158.066 56.0629 159.894 59.4123 160.206 60.2522C160.821 61.8655 153.446 65.1791 153.369 65.2098C146.563 68.0676 127.603 75.1352 124.95 75.1352ZM151.403 55.3715H151.357C150.43 55.4636 148.842 58.4444 148.058 60.2727C148.035 60.3276 147.993 60.3728 147.94 60.4008C146.256 61.3277 140.642 62.183 135.208 63.0076C131.009 63.6478 127.014 64.2521 125.954 64.7591C125.517 64.9669 125.096 65.2066 124.694 65.4761C122.098 67.1918 120.397 70.2084 120.909 72.2006C121.263 73.5886 122.64 74.4182 124.899 74.6077H124.981C127.373 74.6077 145.651 67.8781 153.149 64.7284C155.741 63.6427 159.95 61.1126 159.694 60.4417C159.182 59.1101 157.6 56.8567 157.175 56.8567C156.632 57.0001 152.862 58.7824 151.454 59.4533C151.407 59.476 151.354 59.4842 151.302 59.4769C151.25 59.4696 151.201 59.4471 151.162 59.4123C151.123 59.3777 151.096 59.3325 151.083 59.2824C151.07 59.2322 151.073 59.1794 151.09 59.1306C151.505 57.8759 151.93 55.9041 151.561 55.4432C151.543 55.4187 151.519 55.3993 151.491 55.3867C151.464 55.3742 151.433 55.3689 151.403 55.3715Z" fill="#231F20"/>
<path d="M110.426 34.5168C114.664 30.7802 118.277 26.3904 121.13 21.5133L125.406 24.1611C125.406 24.1611 121.483 34.5987 110.426 34.5168Z" fill="white"/>
<path d="M110.564 34.778H110.421C110.366 34.7784 110.313 34.7618 110.268 34.7305C110.224 34.6992 110.19 34.6548 110.172 34.6035C110.154 34.5521 110.153 34.4964 110.168 34.4442C110.183 34.3919 110.214 34.3457 110.257 34.3119C114.466 30.5915 118.058 26.2266 120.899 21.3802C120.916 21.3493 120.94 21.3224 120.968 21.3013C120.996 21.2801 121.029 21.2651 121.063 21.2573C121.097 21.2482 121.133 21.2462 121.169 21.2515C121.204 21.2568 121.238 21.2692 121.268 21.288L125.544 23.9358C125.596 23.9683 125.635 24.0174 125.656 24.075C125.676 24.1326 125.677 24.1955 125.657 24.2534C125.616 24.3558 121.57 34.778 110.564 34.778ZM121.222 21.8821C118.486 26.4744 115.088 30.6385 111.138 34.2402C120.53 33.9176 124.453 25.6669 125.078 24.2636L121.222 21.8821Z" fill="#231F20"/>
<path d="M110.426 34.5168C115.228 35.0128 120.046 33.7219 123.957 30.8908L124.853 36.8164C124.853 36.8164 118.646 40.0583 109.417 36.463L110.426 34.5168Z" fill="white"/>
<path d="M117.954 38.4092C114.992 38.3862 112.06 37.8095 109.309 36.7088C109.275 36.6947 109.243 36.6738 109.217 36.6474C109.191 36.621 109.17 36.5897 109.156 36.5552C109.14 36.5214 109.132 36.4847 109.132 36.4476C109.132 36.4105 109.14 36.3739 109.156 36.3401L110.18 34.3939C110.205 34.3439 110.245 34.3033 110.295 34.2783C110.345 34.2534 110.402 34.2454 110.456 34.2556C115.183 34.7174 119.916 33.443 123.772 30.6706C123.809 30.6433 123.853 30.6261 123.899 30.6208C123.945 30.6154 123.991 30.622 124.033 30.6399C124.075 30.6575 124.111 30.6858 124.138 30.7217C124.165 30.7577 124.182 30.8001 124.187 30.8447L125.073 36.7703C125.08 36.8249 125.071 36.8804 125.046 36.9297C125.022 36.979 124.983 37.0198 124.935 37.0468C124.925 37.0725 122.292 38.4092 117.954 38.4092ZM109.76 36.3196C117.801 39.3515 123.501 37.1237 124.535 36.6627L123.747 31.3466C119.882 33.9878 115.222 35.2093 110.559 34.8036L109.76 36.3196Z" fill="#231F20"/>
<path d="M129.298 63.4276C129.298 63.4276 127.762 59.6479 120.443 51.136C116.93 47.0388 107.501 45.5024 104.971 45.3692C105.524 45.4256 107.107 44.5549 96.3313 45.3692C90.7899 45.7892 87.2458 46.0657 83.9834 49.5381C77.8376 56.0885 64.5218 70.024 64.5218 70.024L78.5802 74.0341C78.5802 74.0341 80.8593 72.4362 81.6941 71.33L79.6762 86.3257L117.642 88.5382L117.324 71.3454L121.217 74.5207L129.298 63.4276Z" fill="#EE3384"/>
<path d="M104.321 45.3538C104.321 45.3538 104.556 45.3538 104.971 45.3538C104.746 45.3231 104.321 45.3538 104.321 45.3538Z" fill="#EE3384"/>
<path d="M94.4057 46.9723L94.7488 85.4244H105.386V44.8674L94.4057 46.9723Z" fill="white"/>
<path d="M105.391 85.6599H94.7488C94.6872 85.6599 94.628 85.6358 94.584 85.5927C94.5399 85.5497 94.5145 85.491 94.5132 85.4295L94.17 46.9723C94.1702 46.9179 94.1891 46.8652 94.2237 46.8232C94.2582 46.7812 94.3062 46.7524 94.3595 46.7418L105.34 44.6369C105.374 44.6292 105.409 44.6292 105.443 44.6369C105.476 44.6447 105.508 44.6599 105.535 44.6816C105.562 44.7033 105.584 44.7308 105.599 44.762C105.614 44.7933 105.622 44.8275 105.622 44.8622V85.4243C105.622 85.4859 105.598 85.5451 105.554 85.5891C105.511 85.6332 105.453 85.6586 105.391 85.6599ZM94.9844 85.1939H105.156V45.149L94.6361 47.1618L94.9844 85.1939Z" fill="#231F20"/>
<path d="M92.3314 71.5605C92.2874 71.5607 92.2442 71.5482 92.2069 71.5246C92.1697 71.501 92.1401 71.4673 92.1214 71.4273L87.5121 61.7631C87.4919 61.7271 87.4813 61.6865 87.4813 61.6453C87.4813 61.604 87.4919 61.5635 87.5121 61.5275L90.5031 57.1281L87.5685 54.9669C87.5204 54.931 87.4879 54.8783 87.4774 54.8193C87.467 54.7603 87.4794 54.6995 87.5121 54.6494L92.1214 47.8378C92.1384 47.8124 92.1603 47.7906 92.1858 47.7737C92.2113 47.7569 92.2399 47.7452 92.2699 47.7395C92.2999 47.7338 92.3308 47.7341 92.3607 47.7404C92.3906 47.7467 92.419 47.7589 92.4441 47.7763C92.4697 47.7938 92.4916 47.8161 92.5085 47.8421C92.5254 47.868 92.5371 47.897 92.5428 47.9275C92.5485 47.9579 92.5482 47.9892 92.5418 48.0195C92.5354 48.0498 92.5231 48.0786 92.5056 48.1041L88.0038 54.7262L90.9333 56.8823C90.9827 56.9183 91.0162 56.972 91.0267 57.0323C91.0372 57.0925 91.0239 57.1544 90.9896 57.205L87.9782 61.6811L92.5516 71.2276C92.5779 71.284 92.5808 71.3485 92.5597 71.407C92.5386 71.4655 92.4952 71.5133 92.439 71.54C92.4053 71.5554 92.3684 71.5624 92.3314 71.5605Z" fill="#231F20"/>
<path d="M107.092 71.5604C107.058 71.5681 107.023 71.5681 106.989 71.5604C106.933 71.5338 106.89 71.486 106.868 71.4274C106.847 71.3689 106.85 71.3044 106.876 71.248L111.45 61.7016L108.413 57.2254C108.379 57.1748 108.365 57.1129 108.376 57.0527C108.386 56.9925 108.42 56.9387 108.469 56.9028L111.399 54.7466L106.897 48.1245C106.879 48.099 106.867 48.0702 106.861 48.0399C106.854 48.0096 106.854 47.9784 106.86 47.9479C106.865 47.9175 106.877 47.8884 106.894 47.8625C106.911 47.8366 106.933 47.8142 106.958 47.7968C106.984 47.7794 107.012 47.7672 107.042 47.7608C107.072 47.7545 107.103 47.7542 107.133 47.7599C107.163 47.7656 107.191 47.7773 107.217 47.7942C107.242 47.811 107.264 47.8328 107.281 47.8582L111.916 54.6698C111.949 54.72 111.961 54.7807 111.951 54.8397C111.94 54.8987 111.908 54.9515 111.86 54.9873L108.925 57.1332L111.916 61.5326C111.936 61.5685 111.947 61.6091 111.947 61.6504C111.947 61.6916 111.936 61.7322 111.916 61.7682L107.307 71.4324C107.287 71.4722 107.256 71.5054 107.218 71.5282C107.18 71.5509 107.136 71.5621 107.092 71.5604Z" fill="#231F20"/>
<path d="M109.488 42.7471C109.422 42.7471 110.651 36.1762 110.758 35.6231C111.481 31.91 112.039 28.5401 111.701 25.5389C110.815 25.9691 110.6 27.2853 109.862 27.9306C109.589 25.1344 109.47 22.3253 109.504 19.516C104.69 21.2215 99.6193 23.1011 96.4491 27.1112L96.0701 21.1242C93.8474 24.7092 91.5888 28.3762 90.3955 32.4478C89.2022 36.5193 90.0267 40.3144 91.0152 44.3296L109.488 42.7471Z" fill="white"/>
<path d="M91.0152 44.5754C90.9558 44.5747 90.8983 44.5542 90.8519 44.517C90.8055 44.4799 90.7729 44.4283 90.7591 44.3705C89.7349 40.1811 88.9922 36.3861 90.1651 32.376C91.3891 28.1815 93.7501 24.3609 95.8704 20.9858C95.8999 20.9387 95.9434 20.902 95.9949 20.8809C96.0463 20.8598 96.1031 20.8553 96.1572 20.868C96.212 20.8812 96.2611 20.9118 96.2971 20.9552C96.3331 20.9986 96.3541 21.0525 96.3569 21.1088L96.6847 26.43C100.029 22.5991 105.222 20.7554 109.427 19.2599C109.467 19.246 109.51 19.242 109.552 19.248C109.594 19.254 109.634 19.2699 109.668 19.2945C109.703 19.319 109.731 19.3514 109.75 19.3891C109.77 19.4267 109.78 19.4685 109.78 19.5109C109.75 22.1023 109.851 24.6937 110.082 27.275C110.195 27.0958 110.303 26.9012 110.41 26.7014C110.651 26.12 111.066 25.6278 111.598 25.293C111.637 25.2741 111.679 25.2642 111.721 25.2642C111.764 25.2642 111.806 25.2741 111.844 25.293C111.88 25.315 111.911 25.3448 111.934 25.3802C111.957 25.4157 111.972 25.4559 111.977 25.4979C112.331 28.5708 111.732 32.0738 111.03 35.664C110.897 36.3605 109.806 42.2349 109.765 42.7112C109.775 42.748 109.775 42.787 109.765 42.8238C109.749 42.8723 109.72 42.9149 109.679 42.946C109.639 42.9771 109.59 42.9952 109.54 42.998L91.0511 44.5754H91.0152ZM95.8806 21.964C93.914 25.1342 91.7834 28.6885 90.6721 32.5245C89.5607 36.3605 90.247 39.9968 91.2201 44.0274L109.294 42.4909C109.355 41.8405 109.627 40.1351 110.518 35.5616C111.173 32.1916 111.742 28.9036 111.501 26.01C111.253 26.2932 111.045 26.6085 110.881 26.9472C110.678 27.3836 110.399 27.7806 110.057 28.1201C110.021 28.1534 109.976 28.1755 109.928 28.1837C109.88 28.1918 109.83 28.1858 109.785 28.1662C109.739 28.149 109.699 28.1193 109.669 28.0804C109.639 28.0414 109.621 27.9948 109.616 27.9459C109.36 25.265 109.238 22.5728 109.253 19.8796C104.992 21.416 99.8088 23.311 96.6745 27.2648C96.6405 27.3058 96.5952 27.336 96.5442 27.3515C96.4932 27.367 96.4387 27.3671 96.3877 27.3518C96.3376 27.3344 96.2936 27.3029 96.2609 27.2611C96.2282 27.2194 96.2082 27.1691 96.2033 27.1163L95.8806 21.964Z" fill="#231F20"/>
<path d="M106.769 42.4449C107.281 39.3003 112.495 38.527 112.239 42.2349C112.198 43.5234 111.705 44.7564 110.846 45.7175C110.409 46.1859 109.842 46.5139 109.219 46.6598C108.595 46.8057 107.942 46.7629 107.343 46.5369" fill="white"/>
<path d="M108.433 47.0235C108.021 47.028 107.612 46.9442 107.235 46.7776C107.203 46.7635 107.175 46.7433 107.151 46.7181C107.127 46.693 107.109 46.6634 107.096 46.6311C107.084 46.5987 107.078 46.5643 107.079 46.5297C107.08 46.4951 107.088 46.461 107.102 46.4294C107.116 46.3978 107.136 46.3692 107.161 46.3454C107.186 46.3216 107.216 46.303 107.248 46.2907C107.281 46.2783 107.315 46.2724 107.35 46.2734C107.384 46.2743 107.418 46.2821 107.45 46.2962C108 46.5025 108.598 46.5401 109.17 46.4041C109.741 46.2682 110.258 45.9649 110.656 45.5331C111.471 44.6158 111.937 43.4409 111.972 42.2144C112.059 40.9596 111.46 40.1658 110.364 40.0378C109.604 39.9648 108.844 40.1748 108.228 40.6274C107.613 41.08 107.187 41.7435 107.03 42.491C107.024 42.525 107.012 42.5576 106.994 42.5868C106.976 42.6161 106.952 42.6415 106.924 42.6614C106.896 42.6814 106.864 42.6957 106.83 42.7033C106.797 42.711 106.762 42.7119 106.728 42.7061C106.659 42.6947 106.597 42.6567 106.556 42.6001C106.515 42.5436 106.497 42.4731 106.508 42.4039C106.682 41.5196 107.18 40.7324 107.905 40.197C108.63 39.6615 109.529 39.4166 110.426 39.5102C111.511 39.6383 112.628 40.4219 112.474 42.2502C112.429 43.6014 111.91 44.8938 111.009 45.9019C110.331 46.5987 109.406 47.0015 108.433 47.0235Z" fill="#231F20"/>
<path d="M93.7552 42.4449C93.2431 39.3003 88.0294 38.527 88.2855 42.2349C88.3283 43.523 88.8212 44.7552 89.6785 45.7175C90.1155 46.1859 90.6818 46.5139 91.3055 46.6598C91.9292 46.8057 92.5822 46.7629 93.1816 46.5369" fill="white"/>
<path d="M92.0754 47.0235C91.0923 47.0095 90.1548 46.6061 89.4686 45.9019C88.5815 44.8991 88.0709 43.619 88.0243 42.281C87.8963 40.4475 89.0128 39.6639 90.0729 39.5359C90.9691 39.4434 91.8675 39.6888 92.5922 40.224C93.3169 40.7593 93.8157 41.5458 93.9909 42.4295C93.9974 42.4639 93.9969 42.4993 93.9892 42.5335C93.9815 42.5677 93.9669 42.6 93.9463 42.6283C93.9256 42.6567 93.8994 42.6805 93.8692 42.6982C93.839 42.716 93.8054 42.7274 93.7706 42.7317C93.7367 42.7375 93.7019 42.7366 93.6682 42.729C93.6346 42.7213 93.6028 42.7071 93.5748 42.6871C93.5467 42.6671 93.5228 42.6417 93.5046 42.6124C93.4863 42.5832 93.4741 42.5506 93.4685 42.5166C93.3109 41.7696 92.884 41.1068 92.2691 40.6544C91.6542 40.202 90.8944 39.9916 90.1344 40.0634C89.023 40.1914 88.4392 40.9852 88.5263 42.24C88.5616 43.4665 89.0276 44.6414 89.8425 45.5587C90.2407 45.9899 90.7582 46.2928 91.3292 46.4287C91.9002 46.5646 92.4988 46.5274 93.0485 46.3218C93.1124 46.2933 93.1849 46.2913 93.2502 46.3163C93.3155 46.3412 93.3683 46.3911 93.3968 46.455C93.4253 46.5188 93.4273 46.5914 93.4023 46.6567C93.3774 46.722 93.3275 46.7747 93.2636 46.8032C92.8876 46.9599 92.4826 47.035 92.0754 47.0235Z" fill="#231F20"/>
<path d="M94.5081 56.9387L99.7474 61.2458L105.371 58.1166L105.745 45.0824L94.5081 44.7291V56.9387Z" fill="white"/>
<path d="M99.7576 61.5121C99.6974 61.512 99.6392 61.4902 99.5937 61.4507L94.3391 57.1333C94.3089 57.1086 94.2848 57.0773 94.2688 57.0417C94.2528 57.0062 94.2453 56.9674 94.2469 56.9284V44.7291C94.2468 44.6583 94.2744 44.5903 94.3237 44.5396C94.3769 44.4913 94.4466 44.4656 94.5184 44.4679L105.755 44.8161C105.825 44.8188 105.891 44.8487 105.938 44.8995C105.986 44.9503 106.012 45.0178 106.011 45.0876L105.632 58.1217C105.632 58.1678 105.62 58.213 105.596 58.2527C105.573 58.2924 105.539 58.325 105.499 58.3471L99.8652 61.4763C99.8331 61.4974 99.796 61.5098 99.7576 61.5121ZM94.7847 56.8158L99.7884 60.9129L105.12 57.9425L105.483 45.318L94.7847 44.9903V56.8158Z" fill="#231F20"/>
<path d="M94.8615 49.9632C94.9639 50.5573 98.1597 54.5213 105.535 54.972V49.9632C103.773 50.2142 101.437 51.0746 99.5374 50.9004C97.9412 50.8421 96.3638 50.5363 94.8615 49.9939C94.6361 49.8761 95.0971 50.1169 94.8615 49.9632Z" fill="#231F20"/>
<path d="M105.535 55.2485C98.5541 54.8234 95.1125 51.2026 94.672 50.168C94.6159 50.1386 94.5737 50.0881 94.5545 50.0277C94.5353 49.9673 94.5407 49.9018 94.5696 49.8454C94.6208 49.7429 94.7335 49.6405 94.9793 49.7532C96.4618 50.2808 98.0161 50.5796 99.5886 50.6392C100.932 50.6718 102.272 50.4991 103.563 50.127C104.259 49.9632 104.92 49.8095 105.524 49.7224C105.561 49.717 105.598 49.7196 105.634 49.7303C105.669 49.7409 105.702 49.7592 105.729 49.7839C105.756 49.808 105.777 49.8372 105.792 49.8698C105.807 49.9023 105.815 49.9376 105.816 49.9734V55.0129C105.817 55.0477 105.809 55.0821 105.795 55.1139C105.781 55.1457 105.76 55.1741 105.734 55.1973C105.707 55.2198 105.675 55.236 105.64 55.2449C105.606 55.2537 105.57 55.255 105.535 55.2485ZM95.4607 50.4753C96.4287 51.6532 99.4504 54.2857 105.279 54.7159V50.25C104.766 50.337 104.229 50.4651 103.65 50.5982C102.308 50.9888 100.914 51.1719 99.5169 51.1411C98.1446 51.0679 96.7844 50.8446 95.4607 50.4753Z" fill="#231F20"/>
<path d="M99.604 52.0579H100.444C101.391 52.0579 102.329 51.8712 103.205 51.5085C104.08 51.1458 104.875 50.6142 105.545 49.944C106.214 49.2739 106.745 48.4783 107.107 47.6028C107.47 46.7274 107.656 45.7891 107.655 44.8417V36.3606C107.655 34.5885 105.176 33.5028 103.732 33.2877C102.164 33.1197 100.58 33.1958 99.0355 33.513C95.2251 34.102 92.3519 35.495 92.3776 39.7817C92.3776 41.4769 92.3776 43.1772 92.3776 44.8724C92.3843 46.7832 93.1492 48.6131 94.5041 49.9603C95.859 51.3076 97.6932 52.062 99.604 52.0579Z" fill="white"/>
<path d="M100.444 52.3242H99.6039C97.6207 52.3215 95.7196 51.5321 94.3178 50.1293C92.916 48.7265 92.1279 46.8249 92.1266 44.8417C92.1266 44.2783 92.1266 43.7099 92.1266 43.1465C92.1266 42.0129 92.1266 40.8811 92.1266 39.751C92.0856 34.9112 95.773 33.7179 98.9945 33.2211C100.567 32.8947 102.182 32.8187 103.778 32.9957C105.494 33.2825 107.916 34.5322 107.916 36.3554V44.8417C107.916 46.8244 107.129 48.7261 105.728 50.129C104.327 51.5319 102.427 52.3215 100.444 52.3242ZM102.318 33.4208C101.234 33.4478 100.154 33.5573 99.0866 33.7486C94.5541 34.4502 92.6336 36.2427 92.6643 39.751C92.6643 40.8879 92.6643 42.0215 92.6643 43.1516C92.6643 43.7201 92.6643 44.2835 92.6643 44.8468C92.667 46.6892 93.4001 48.4554 94.7029 49.7581C96.0056 51.0609 97.7718 51.794 99.6142 51.7967H100.454C102.295 51.7913 104.059 51.0561 105.359 49.7524C106.659 48.4487 107.389 46.6827 107.389 44.8417V36.3605C107.389 34.8241 105.181 33.7691 103.691 33.5232C103.237 33.454 102.778 33.4198 102.318 33.4208Z" fill="#231F20"/>
<path d="M102.485 42.8395C102.725 42.8236 102.89 42.3646 102.854 41.8143C102.817 41.2639 102.593 40.8306 102.354 40.8464C102.114 40.8623 101.949 41.3213 101.985 41.8717C102.021 42.422 102.245 42.8553 102.485 42.8395Z" fill="#231F20"/>
<path d="M96.6298 42.533C96.8702 42.5162 97.0338 42.0554 96.9952 41.5038C96.9566 40.9523 96.7304 40.5188 96.49 40.5356C96.2495 40.5525 96.0859 41.0132 96.1245 41.5648C96.1631 42.1163 96.3893 42.5498 96.6298 42.533Z" fill="#231F20"/>
<path d="M98.2519 49.5534C98.0061 49.5534 97.8627 49.5534 97.8371 49.5534C97.7821 49.5328 97.7356 49.4945 97.7046 49.4446C97.6736 49.3948 97.66 49.3361 97.6659 49.2777C97.6717 49.2193 97.6967 49.1644 97.7369 49.1217C97.7771 49.0789 97.8304 49.0507 97.8883 49.0413C100.191 49.0872 102.426 48.2623 104.147 46.7315C104.201 46.6875 104.27 46.6662 104.34 46.6719C104.409 46.6776 104.474 46.71 104.521 46.7622C104.566 46.816 104.588 46.8855 104.582 46.9555C104.576 47.0255 104.543 47.0904 104.49 47.1361C102.758 48.6477 100.55 49.5032 98.2519 49.5534Z" fill="#231F20"/>
<path d="M105.11 47.9709C105.073 47.9805 105.034 47.9805 104.997 47.9709C103.686 47.3666 103.829 45.8865 104.09 45.19C104.102 45.1571 104.12 45.127 104.143 45.1013C104.166 45.0756 104.195 45.055 104.226 45.0406C104.258 45.0262 104.292 45.0184 104.327 45.0177C104.362 45.017 104.396 45.0233 104.428 45.0363C104.494 45.0606 104.547 45.1096 104.577 45.1728C104.607 45.2361 104.61 45.3084 104.587 45.3743C104.562 45.4358 104.024 46.9415 105.222 47.4946C105.285 47.5246 105.333 47.5778 105.357 47.6428C105.381 47.7078 105.378 47.7796 105.35 47.8429C105.325 47.8839 105.29 47.9175 105.248 47.9401C105.205 47.9626 105.157 47.9733 105.11 47.9709Z" fill="#231F20"/>
<path d="M98.9228 47.6022C98.8366 47.602 98.7517 47.582 98.6744 47.5438C98.5972 47.5057 98.5297 47.4503 98.4772 47.3819C97.8012 46.5471 98.5131 42.8802 98.6667 42.1529C98.6906 42.0956 98.7336 42.0485 98.7885 42.0196C98.8434 41.9907 98.9066 41.9818 98.9673 41.9946C99.028 42.0073 99.0824 42.0409 99.121 42.0894C99.1596 42.1379 99.1801 42.1984 99.1789 42.2605C98.8255 43.9659 98.5028 46.5779 98.8818 47.0439C99.8293 47.0439 100.546 45.9223 100.551 45.9121C100.57 45.8826 100.594 45.857 100.622 45.8369C100.65 45.8167 100.682 45.8024 100.716 45.7948C100.75 45.7872 100.785 45.7864 100.819 45.7924C100.853 45.7985 100.886 45.8113 100.915 45.8301C100.974 45.8671 101.017 45.926 101.033 45.9941C101.049 46.0621 101.038 46.1339 101.002 46.1938C100.971 46.2501 100.121 47.6022 98.9228 47.6022Z" fill="#231F20"/>
<path d="M100.782 41.7176C100.724 41.7167 100.668 41.6973 100.622 41.6623C100.576 41.6273 100.542 41.5785 100.526 41.523C100.508 41.4558 100.518 41.3844 100.552 41.3242C100.587 41.2639 100.643 41.2195 100.71 41.2003C101.099 41.0876 102.436 39.9916 103.153 39.4027C103.496 39.121 103.768 38.8905 103.901 38.8035C103.959 38.7627 104.03 38.7466 104.1 38.7586C104.169 38.7706 104.231 38.8098 104.272 38.8675C104.313 38.9252 104.329 38.9968 104.317 39.0664C104.305 39.136 104.266 39.198 104.208 39.2388C104.09 39.3207 103.809 39.5461 103.486 39.8124C102.318 40.7701 101.315 41.5742 100.854 41.7073L100.782 41.7176Z" fill="#231F20"/>
<path d="M97.5553 41.7176C97.5047 41.7174 97.4551 41.7032 97.4119 41.6767C96.2596 40.9238 94.9587 40.1402 94.7283 40.0173C94.6691 40.0054 94.6159 39.9734 94.5777 39.9267C94.5394 39.8801 94.5186 39.8216 94.5186 39.7612C94.5186 39.7009 94.5394 39.6424 94.5777 39.5957C94.6159 39.5491 94.6691 39.5171 94.7283 39.5052C94.8563 39.4744 94.969 39.4539 97.7141 41.2362C97.7718 41.2749 97.8121 41.3345 97.8264 41.4024C97.8408 41.4703 97.828 41.5412 97.7909 41.5998C97.7656 41.6386 97.7305 41.6699 97.6891 41.6906C97.6477 41.7113 97.6015 41.7206 97.5553 41.7176Z" fill="#231F20"/>
<path d="M173.271 108.865H28.4513L44.5583 78.7254H157.164L173.271 108.865Z" fill="white"/>
<path d="M173.271 109.121H28.4513C28.4078 109.121 28.3652 109.11 28.3275 109.088C28.2898 109.067 28.2583 109.036 28.2362 108.999C28.2136 108.961 28.2017 108.917 28.2017 108.873C28.2017 108.829 28.2136 108.786 28.2362 108.748L44.3432 78.6076C44.3646 78.5663 44.3969 78.5315 44.4367 78.5072C44.4764 78.4828 44.522 78.4697 44.5686 78.4694H157.164C157.211 78.4697 157.256 78.4828 157.296 78.5072C157.336 78.5315 157.368 78.5663 157.39 78.6076L173.507 108.748C173.527 108.786 173.537 108.83 173.535 108.874C173.534 108.917 173.521 108.96 173.499 108.998C173.476 109.035 173.444 109.066 173.406 109.088C173.368 109.11 173.325 109.121 173.282 109.121H173.271ZM28.8815 108.609H172.841L157.011 78.9815H44.712L28.8815 108.609Z" fill="#231F20"/>
<path d="M138.681 82.9404L117.683 77.6806C117.683 77.6806 107.158 94.2845 101.898 97.6544L127.035 104.901C127.035 104.901 137.416 88.3179 138.681 82.9404Z" fill="white"/>
<path d="M127.009 105.178H126.937L101.806 97.9207C101.759 97.9059 101.718 97.8781 101.686 97.8406C101.654 97.8031 101.633 97.7573 101.626 97.7086C101.619 97.6599 101.626 97.6103 101.646 97.5653C101.666 97.5204 101.699 97.482 101.74 97.4547C106.892 94.1359 117.34 77.7114 117.447 77.5424C117.475 77.4967 117.518 77.4616 117.567 77.4421C117.617 77.4227 117.672 77.4202 117.724 77.4348L138.768 82.6946C138.8 82.7023 138.831 82.7165 138.858 82.7362C138.885 82.756 138.907 82.7809 138.925 82.8095C138.942 82.8381 138.953 82.8699 138.958 82.9029C138.963 82.9359 138.961 82.9696 138.952 83.0018C137.672 88.3589 127.654 104.379 127.229 105.055C127.207 105.093 127.174 105.124 127.136 105.146C127.097 105.168 127.053 105.179 127.009 105.178ZM102.462 97.5929L126.901 104.62C127.967 102.909 136.97 88.3487 138.394 83.1094L117.78 77.9521C116.658 79.719 107.599 93.7877 102.462 97.5929Z" fill="#231F20"/>
<path d="M129.298 100.466H129.211C122.584 98.1051 112.495 94.5201 111.865 94.4484C111.797 94.4389 111.736 94.4028 111.694 94.348C111.653 94.2933 111.635 94.2243 111.645 94.1564C111.654 94.0885 111.69 94.0272 111.745 93.9859C111.8 93.9446 111.869 93.9267 111.936 93.9362C112.817 94.054 127.69 99.3599 129.385 99.9642C129.453 99.9757 129.514 100.014 129.554 100.07C129.594 100.126 129.609 100.196 129.598 100.264C129.586 100.332 129.548 100.392 129.492 100.432C129.436 100.472 129.366 100.488 129.298 100.476V100.466Z" fill="#D1D3D4"/>
<path d="M131.347 97.0808C131.318 97.0857 131.289 97.0857 131.26 97.0808C124.633 94.7147 114.543 91.1604 113.913 91.0784C113.847 91.0683 113.787 91.0327 113.746 90.9793C113.705 90.9258 113.686 90.8586 113.693 90.7916C113.703 90.724 113.74 90.6631 113.794 90.6219C113.849 90.5807 113.917 90.5626 113.985 90.5714C114.866 90.6892 129.739 95.995 131.434 96.5994C131.502 96.6109 131.562 96.649 131.602 96.7052C131.642 96.7613 131.658 96.8311 131.647 96.899C131.635 96.9669 131.597 97.0274 131.541 97.0673C131.485 97.1072 131.415 97.1231 131.347 97.1115V97.0808Z" fill="#D1D3D4"/>
<path d="M134.097 92.8351C134.068 92.84 134.039 92.84 134.01 92.8351C127.383 90.4536 117.294 86.8993 116.659 86.8379C116.591 86.8289 116.53 86.7937 116.489 86.74C116.448 86.6862 116.43 86.6183 116.438 86.5511C116.448 86.4845 116.484 86.4243 116.537 86.3833C116.591 86.3423 116.658 86.3235 116.725 86.3308C117.611 86.4486 132.484 91.7545 134.179 92.3588C134.247 92.3704 134.308 92.4084 134.347 92.4646C134.387 92.5208 134.403 92.5905 134.392 92.6584C134.38 92.7263 134.342 92.7869 134.286 92.8268C134.23 92.8666 134.16 92.8825 134.092 92.871L134.097 92.8351Z" fill="#D1D3D4"/>
<path d="M135.956 88.2923H135.869C129.242 85.9262 119.153 82.377 118.528 82.29C118.494 82.2862 118.462 82.2757 118.432 82.2591C118.403 82.2425 118.377 82.2202 118.357 82.1934C118.336 82.1666 118.321 82.136 118.313 82.1033C118.304 82.0706 118.303 82.0365 118.308 82.0032C118.317 81.936 118.352 81.8751 118.406 81.8338C118.459 81.7925 118.527 81.7742 118.594 81.7829C119.475 81.9007 134.348 87.2066 136.043 87.8109C136.075 87.8218 136.105 87.839 136.13 87.8615C136.155 87.8841 136.176 87.9115 136.19 87.9421C136.204 87.9727 136.212 88.0059 136.214 88.0397C136.215 88.0735 136.209 88.1071 136.197 88.1387C136.178 88.1862 136.144 88.2265 136.101 88.254C136.058 88.2816 136.007 88.295 135.956 88.2923Z" fill="#D1D3D4"/>
<path d="M123.122 88.5382C123.122 88.5382 125.928 103.268 128.033 106.602C128.033 106.602 148.463 105.634 153.723 101.777C153.723 101.777 145.216 90.2897 143.813 85.0299L123.122 88.5382Z" fill="white"/>
<path d="M128.033 106.858C127.989 106.857 127.946 106.845 127.908 106.824C127.869 106.802 127.837 106.772 127.813 106.735C125.708 103.401 122.984 89.1886 122.871 88.5842C122.863 88.5508 122.863 88.5161 122.87 88.4825C122.877 88.4489 122.892 88.4173 122.912 88.3896C122.931 88.3618 122.956 88.3383 122.986 88.3207C123.015 88.303 123.047 88.2916 123.081 88.2872L143.772 84.779C143.834 84.7678 143.899 84.7805 143.953 84.8146C144.007 84.8487 144.047 84.9017 144.064 84.9633C145.436 90.1156 153.846 101.511 153.927 101.624C153.947 101.65 153.962 101.681 153.97 101.714C153.978 101.746 153.979 101.78 153.974 101.813C153.964 101.88 153.929 101.94 153.876 101.982C148.611 105.844 128.883 106.817 128.044 106.858H128.033ZM123.424 88.7481C123.803 90.6943 126.277 103.088 128.172 106.335C130.026 106.238 148.145 105.193 153.359 101.726C152.181 100.118 145.098 90.3255 143.628 85.3372L123.424 88.7481Z" fill="#231F20"/>
<path d="M85.6582 81.7471L79.0515 100.328L111.901 101.567L105.745 81.7471H85.6582Z" fill="white"/>
<path d="M111.901 101.823L79.0514 100.584C79.0117 100.582 78.9731 100.57 78.9385 100.551C78.9039 100.531 78.8742 100.504 78.8517 100.471C78.8279 100.438 78.8127 100.4 78.8073 100.36C78.802 100.32 78.8066 100.279 78.8209 100.241L85.4174 81.66C85.4353 81.6105 85.468 81.5677 85.5111 81.5375C85.5541 81.5073 85.6055 81.491 85.6581 81.491H105.745C105.799 81.4907 105.853 81.5079 105.897 81.5402C105.941 81.5724 105.974 81.618 105.99 81.6703L112.136 101.49C112.149 101.529 112.152 101.571 112.145 101.611C112.138 101.651 112.121 101.689 112.095 101.721C112.073 101.752 112.043 101.777 112.01 101.795C111.976 101.812 111.939 101.822 111.901 101.823ZM79.4099 100.087L111.537 101.296L105.545 82.0031H85.8271L79.4099 100.087Z" fill="#231F20"/>
<path d="M173.266 108.865H28.4513V115.979H173.266V108.865Z" fill="white"/>
<path d="M173.271 116.235H28.4513C28.3833 116.235 28.3182 116.208 28.2702 116.16C28.2222 116.112 28.1952 116.047 28.1952 115.979V108.86C28.1965 108.793 28.2239 108.728 28.2716 108.681C28.3194 108.633 28.3838 108.605 28.4513 108.604H173.271C173.339 108.605 173.403 108.633 173.451 108.681C173.499 108.728 173.526 108.793 173.527 108.86V115.979C173.527 116.047 173.5 116.112 173.452 116.16C173.404 116.208 173.339 116.235 173.271 116.235ZM28.7073 115.723H172.995V109.121H28.7073V115.723Z" fill="#231F20"/>
<path d="M94.0932 75.6679L99.271 85.1375L99.3274 85.5933L99.6039 87.8314L97.8677 86.3923L97.5144 86.1003L92.3365 76.6256L94.0932 75.6679Z" fill="#231F20"/>
<path d="M99.604 88.0875C99.5436 88.0883 99.4851 88.0664 99.4401 88.0261L97.3505 86.295C97.326 86.2749 97.3052 86.2506 97.2891 86.2233L92.1113 76.7486C92.0952 76.7194 92.085 76.6873 92.0815 76.6541C92.0779 76.621 92.081 76.5874 92.0905 76.5555C92.1 76.5236 92.1158 76.4938 92.137 76.4681C92.1581 76.4423 92.1842 76.421 92.2137 76.4054L93.9704 75.4426C94.0327 75.417 94.1026 75.417 94.165 75.4426C94.1966 75.4523 94.226 75.4681 94.2515 75.4892C94.277 75.5103 94.2981 75.5362 94.3135 75.5655L99.4964 85.0351C99.5033 85.0655 99.5033 85.0969 99.4964 85.1273L99.8293 87.8212C99.8371 87.8712 99.8288 87.9223 99.8059 87.9674C99.7829 88.0124 99.7463 88.0491 99.7013 88.0721C99.6704 88.0844 99.6372 88.0896 99.604 88.0875ZM97.709 85.9314L99.2455 87.222L98.9997 85.2144L93.9652 75.9957L92.6541 76.7127L97.709 85.9314Z" fill="#231F20"/>
<path d="M91.2897 74.1637L92.5793 73.4586C92.6985 73.3934 92.8387 73.3782 92.969 73.4164C93.0994 73.4546 93.2092 73.543 93.2744 73.6622L95.7315 78.1558L93.5746 79.3352L91.1175 74.8416C91.0523 74.7224 91.0372 74.5823 91.0753 74.4519C91.1135 74.3216 91.2019 74.2117 91.3211 74.1465L91.2897 74.1637Z" fill="#231F20"/>
<path d="M93.5555 79.5909H93.4838C93.4511 79.5821 93.4206 79.5666 93.3941 79.5455C93.3677 79.5243 93.3459 79.498 93.3302 79.468L90.8667 74.9662C90.7728 74.792 90.7508 74.588 90.8053 74.3977C90.8326 74.3021 90.8789 74.2129 90.9413 74.1355C91.0038 74.0581 91.0812 73.994 91.1689 73.947L92.4544 73.2403C92.6307 73.1466 92.8367 73.1258 93.0282 73.1823C93.2197 73.2388 93.3814 73.3681 93.4787 73.5424L95.937 78.0442C95.9533 78.0731 95.9637 78.1049 95.9676 78.1379C95.9716 78.1708 95.969 78.2042 95.9599 78.2361C95.9509 78.268 95.9356 78.2978 95.9149 78.3238C95.8943 78.3497 95.8687 78.3713 95.8397 78.3874L93.6733 79.5704C93.6364 79.5873 93.5959 79.5943 93.5555 79.5909ZM92.818 73.65C92.7767 73.6497 92.7361 73.6603 92.7002 73.6807L91.4147 74.3824C91.385 74.3965 91.359 74.4172 91.3386 74.4429C91.3182 74.4687 91.3039 74.4988 91.2969 74.5309C91.2842 74.56 91.2777 74.5913 91.2777 74.6231C91.2777 74.6548 91.2842 74.6862 91.2969 74.7153L93.6323 78.9917L95.348 78.0545L93.0126 73.778C92.9933 73.7423 92.9654 73.7118 92.9314 73.6895C92.8975 73.6671 92.8585 73.6536 92.818 73.65Z" fill="#231F20"/>
<path d="M92.3826 79.5756C92.3357 79.5766 92.2894 79.5648 92.2487 79.5413C92.2081 79.5178 92.1747 79.4836 92.1522 79.4424C92.0958 79.3451 90.8564 77.1019 90.7079 76.769C90.5594 76.4361 90.7386 75.2326 90.8308 74.787C90.8445 74.7177 90.885 74.6567 90.9436 74.6173C91.0022 74.578 91.074 74.5635 91.1432 74.577C91.1773 74.5831 91.2098 74.596 91.2389 74.6148C91.268 74.6337 91.293 74.6581 91.3126 74.6867C91.3321 74.7153 91.3458 74.7475 91.3527 74.7814C91.3597 74.8153 91.3599 74.8503 91.3532 74.8843C91.2203 75.4303 91.1651 75.9924 91.1893 76.5539C91.3071 76.8151 92.2546 78.541 92.6131 79.1863C92.6303 79.2165 92.6412 79.2498 92.6453 79.2843C92.6495 79.3188 92.6467 79.3537 92.6371 79.3871C92.6276 79.4205 92.6115 79.4516 92.5898 79.4787C92.5681 79.5058 92.5412 79.5283 92.5107 79.5448C92.4709 79.5647 92.4271 79.5752 92.3826 79.5756Z" fill="#231F20"/>
<path d="M74.1502 72.1238C69.8942 70.1316 63.2824 67.7654 61.5616 74.0341C61.1201 75.5813 61.2868 77.2386 62.0276 78.6668C62.7684 80.0951 64.0271 81.186 65.5461 81.7163C73.1566 84.5485 94.2264 87.4626 94.2264 87.4626C94.2264 87.4626 96.275 87.1093 97.0074 85.7828C97.7397 84.4563 99.5681 85.8699 100.592 84.9838C101.617 84.0978 100.895 82.3975 99.9215 81.0454C98.9484 79.6934 95.7782 79.5448 94.9741 79.6985C94.1701 79.8521 92.1419 81.0454 92.1368 81.0505C90.2265 82.167 85.6377 78.2286 84.0705 77.3272C81.0761 75.6201 78.0237 74.0068 74.9133 72.4874L74.1502 72.1238Z" fill="white"/>
<path d="M94.2622 87.7085H94.2315C94.0215 87.6778 73.0337 84.7585 65.4846 81.952C63.9058 81.4027 62.5972 80.2698 61.8276 78.7859C61.058 77.3019 60.8858 75.5796 61.3465 73.9727C61.8586 72.1392 62.8112 70.8998 64.194 70.2494C67.1338 68.8922 71.3641 70.5464 74.2629 71.9087C74.5343 72.0317 74.8006 72.1597 75.0516 72.2826C78.1244 73.7832 81.2332 75.4169 84.2241 77.1326C84.5826 77.3375 85.0897 77.696 85.6786 78.1108C87.5582 79.4322 90.6977 81.6447 92.0549 80.8508C92.0549 80.8508 94.1035 79.6422 94.9639 79.4732C95.7116 79.3298 99.0611 79.4322 100.147 80.9174C101.499 82.7868 101.729 84.3386 100.782 85.1682C100.27 85.6394 99.5117 85.5524 98.8664 85.4755C98.0521 85.3782 97.54 85.3475 97.2429 85.8955C96.4901 87.309 94.3851 87.6829 94.2981 87.6982L94.2622 87.7085ZM66.7445 70.2084C65.9364 70.1914 65.1343 70.3504 64.3938 70.6745C63.139 71.2532 62.2683 72.4055 61.833 74.0956C61.4051 75.5877 61.5646 77.1871 62.279 78.5653C62.9933 79.9435 64.2082 80.9959 65.6741 81.5064C73.0183 84.2413 93.2687 87.0939 94.2827 87.2373C94.5439 87.181 96.2647 86.802 96.8435 85.7009C97.2993 84.8405 98.1648 84.9429 98.933 85.0351C99.5322 85.1068 100.101 85.1734 100.469 84.8405C101.555 83.8879 100.203 81.8239 99.7627 81.2145C98.892 80.0058 95.855 79.8061 95.0509 79.9597C94.0847 80.3006 93.1576 80.7435 92.2853 81.281C90.6721 82.2234 87.6248 80.0826 85.4021 78.5206C84.8233 78.1108 84.3266 77.7575 83.9834 77.5628C81.0027 75.8523 77.9298 74.2236 74.8416 72.7282L74.058 72.3543C71.9684 71.3505 69.1721 70.2084 66.7445 70.2084Z" fill="#231F20"/>
<path d="M89.5505 37.1236C89.5505 37.1236 102.764 42.6907 111.02 37.7382L111.901 32.1558C111.901 32.1558 99.0969 35.0033 90.8309 30.225C90.2766 31.3504 89.8604 32.5386 89.5914 33.7639C89.4075 34.8753 89.3937 36.0081 89.5505 37.1236Z" fill="white"/>
<path d="M102.539 40.007C95.8806 40.007 89.5505 37.3797 89.4583 37.3387C89.4217 37.324 89.3894 37.3004 89.3644 37.2699C89.3393 37.2395 89.3223 37.2033 89.3149 37.1646C89.1547 36.0217 89.1702 34.8611 89.361 33.723C89.6345 32.4814 90.0576 31.2777 90.6209 30.1379C90.6352 30.1088 90.6554 30.0829 90.68 30.0618C90.7046 30.0407 90.7333 30.0248 90.7643 30.015C90.7934 30.0026 90.8248 29.9962 90.8564 29.9962C90.8881 29.9962 90.9195 30.0026 90.9486 30.015C99.0303 34.6858 111.721 31.9458 111.849 31.9202C111.886 31.9101 111.925 31.91 111.962 31.9199C111.999 31.9298 112.033 31.9493 112.059 31.9765C112.088 32.0016 112.11 32.0336 112.122 32.0695C112.135 32.1054 112.138 32.144 112.131 32.1814L111.25 37.7638C111.245 37.7978 111.232 37.8302 111.212 37.8585C111.193 37.8869 111.167 37.9105 111.138 37.9277C108.577 39.4744 105.529 40.007 102.539 40.007ZM89.7348 36.9341C91.0818 37.4463 103.133 42.0556 110.779 37.5641L111.593 32.4426C109.545 32.8421 98.4004 34.7165 90.9077 30.5425C90.4126 31.5799 90.0397 32.6713 89.7963 33.7947C89.6339 34.8426 89.6218 35.9084 89.7604 36.9597L89.7348 36.9341Z" fill="#231F20"/>
<path d="M97.8627 59.6479L99.056 61.6299C99.056 61.6299 98.2468 68.6003 101.105 72.6104C103.962 76.6205 120.172 66.7565 120.172 66.7565L120.684 61.2458H114.907C114.907 61.2458 107.092 71.3249 103.435 68.9281C100.219 66.8129 100.516 61.2458 100.516 61.2458L102.615 59.6479L100.024 57.3382L97.8627 59.6479Z" fill="#231F20"/>
<path d="M103.527 73.8037C102.344 73.8037 101.407 73.5015 100.884 72.7794C98.1546 68.9331 98.7077 62.5671 98.7948 61.7067L97.6476 59.8015C97.6185 59.754 97.6058 59.6982 97.6114 59.6427C97.6169 59.5873 97.6404 59.5352 97.6783 59.4943L99.8344 57.1845C99.8823 57.1375 99.9466 57.1113 100.014 57.1113C100.081 57.1113 100.145 57.1375 100.193 57.1845L102.784 59.4943C102.812 59.5195 102.834 59.5504 102.849 59.5848C102.864 59.6192 102.872 59.6564 102.871 59.694C102.87 59.7319 102.859 59.769 102.842 59.8026C102.824 59.8362 102.799 59.8656 102.769 59.8886L100.767 61.4251C100.767 62.224 100.767 66.9204 103.578 68.7641C106.989 71.0073 114.63 61.2407 114.702 61.1434C114.726 61.1113 114.757 61.0852 114.792 61.0674C114.828 61.0496 114.867 61.0405 114.907 61.0409H120.684C120.72 61.0415 120.755 61.0494 120.787 61.0641C120.82 61.0788 120.849 61.1 120.873 61.1264C120.897 61.1528 120.915 61.1838 120.927 61.2176C120.938 61.2513 120.943 61.2871 120.94 61.3226L120.428 66.8333C120.424 66.8726 120.411 66.9104 120.39 66.9434C120.369 66.9764 120.339 67.0037 120.305 67.0228C119.731 67.3096 108.976 73.8037 103.527 73.8037ZM98.1802 59.694L99.2762 61.507C99.3058 61.5543 99.3185 61.6103 99.312 61.6658C99.312 61.7375 98.5438 68.59 101.299 72.4721C103.507 75.5808 115.373 69.3582 119.911 66.6131L120.423 61.4916H115.03C114.154 62.603 106.948 71.5297 103.297 69.1278C99.9932 66.9563 100.249 61.4455 100.265 61.2202C100.265 61.1839 100.274 61.1482 100.291 61.1161C100.308 61.084 100.332 61.0564 100.362 61.0358L102.216 59.6223L100.039 57.6813L98.1802 59.694Z" fill="#231F20"/>
<path d="M101.775 56.6211C97.1662 56.6211 94.7437 54.7159 94.6054 54.6135C94.5511 54.57 94.5162 54.5068 94.5086 54.4376C94.5009 54.3685 94.521 54.2991 94.5644 54.2447C94.6079 54.1904 94.6712 54.1556 94.7403 54.1479C94.8095 54.1402 94.8789 54.1603 94.9332 54.2038C94.9742 54.2294 98.6053 57.0564 105.299 55.7402C105.333 55.7327 105.368 55.7321 105.402 55.7384C105.437 55.7447 105.469 55.7578 105.498 55.7769C105.527 55.796 105.552 55.8207 105.572 55.8496C105.591 55.8785 105.605 55.9109 105.611 55.9451C105.625 56.0136 105.611 56.0848 105.573 56.1432C105.535 56.2017 105.475 56.2427 105.407 56.2575C104.211 56.4973 102.995 56.6191 101.775 56.6211Z" fill="#231F20"/>
<path d="M81.6941 71.5912C81.6406 71.5922 81.5881 71.5765 81.544 71.5462C81.4999 71.5159 81.4665 71.4725 81.4483 71.4222L78.8056 64.6618C78.7928 64.6282 78.7868 64.5924 78.7878 64.5564C78.7889 64.5205 78.797 64.4851 78.8118 64.4522C78.8265 64.4194 78.8476 64.3898 78.8738 64.3652C78.8999 64.3405 78.9307 64.3212 78.9644 64.3084C78.998 64.2957 79.0338 64.2896 79.0698 64.2907C79.1057 64.2918 79.1411 64.2999 79.1739 64.3146C79.2067 64.3294 79.2363 64.3504 79.261 64.3766C79.2857 64.4028 79.305 64.4336 79.3177 64.4672L81.9604 71.2327C81.9854 71.2986 81.9833 71.3717 81.9545 71.436C81.9257 71.5003 81.8726 71.5506 81.8068 71.5758C81.7706 71.5883 81.7323 71.5935 81.6941 71.5912Z" fill="#231F20"/>
<path d="M151.3 82.9097L132.243 84.8968C132.243 84.8968 134.584 101.147 135.987 104.538C135.987 104.538 153.287 105.823 162.173 100.681C162.173 100.666 151.418 85.9518 151.3 82.9097Z" fill="white"/>
<path d="M140.683 104.932C137.887 104.932 136.023 104.799 135.966 104.794C135.919 104.791 135.874 104.774 135.835 104.746C135.797 104.718 135.768 104.679 135.751 104.635C134.348 101.255 132.084 85.5985 131.992 84.9327C131.988 84.8993 131.99 84.8653 131.998 84.8327C132.007 84.8002 132.023 84.7697 132.043 84.7432C132.064 84.7155 132.09 84.6924 132.12 84.6757C132.15 84.6589 132.183 84.6487 132.218 84.6459L151.275 82.6536C151.345 82.648 151.415 82.6701 151.469 82.7151C151.521 82.7629 151.552 82.829 151.556 82.8995C151.648 85.2451 158.675 95.4573 162.378 100.528C162.4 100.556 162.416 100.589 162.424 100.625C162.432 100.66 162.432 100.697 162.424 100.732C162.416 100.768 162.401 100.801 162.38 100.83C162.359 100.859 162.332 100.883 162.301 100.901C156.324 104.364 146.496 104.932 140.683 104.932ZM136.166 104.292C137.907 104.405 153.472 105.229 161.799 100.599C160.416 98.6941 151.674 86.546 151.075 83.1863L132.535 85.1273C132.842 87.2066 134.881 100.932 136.166 104.292Z" fill="#231F20"/>
<path d="M150.66 33.6052L147.7 44.1708C147.7 44.1708 160.56 44.3244 165.036 38.7932L166.716 27.8589C166.716 27.8589 154.373 34.1122 150.66 33.6052Z" fill="white"/>
<path d="M147.777 44.432H147.695C147.655 44.4329 147.617 44.424 147.582 44.4061C147.547 44.3882 147.517 44.3619 147.495 44.3295C147.47 44.2992 147.453 44.2633 147.445 44.225C147.437 44.1867 147.438 44.1471 147.449 44.1093L150.414 33.5386C150.433 33.4801 150.471 33.4298 150.522 33.3963C150.573 33.3627 150.635 33.3478 150.696 33.3542C154.281 33.8664 166.475 27.7206 166.598 27.6387C166.638 27.6137 166.684 27.6004 166.731 27.6004C166.778 27.6004 166.824 27.6137 166.864 27.6387C166.903 27.6659 166.933 27.7034 166.951 27.7469C166.969 27.7903 166.974 27.838 166.967 27.8845L165.313 38.8342C165.305 38.8781 165.286 38.919 165.256 38.952C163.361 41.2976 159.833 42.9314 154.757 43.8072C152.451 44.2005 150.116 44.4095 147.777 44.432ZM150.849 33.8817L148.038 43.9147C150.086 43.9147 160.811 43.5101 164.79 38.6857L166.388 28.3096C164.155 29.4158 154.44 34.1173 150.849 33.8817Z" fill="#231F20"/>
<path d="M69.0339 101.542L81.2333 90.1156L48.4353 87.4729L36.6149 97.9361L69.0339 101.542Z" fill="#231F20"/>
<path d="M69.0288 101.793L36.6098 98.2075C36.561 98.2022 36.5148 98.1829 36.4767 98.152C36.4386 98.1212 36.4101 98.08 36.3947 98.0334C36.3799 97.9864 36.3793 97.936 36.393 97.8887C36.4067 97.8413 36.434 97.799 36.4715 97.7671L48.2919 87.3039C48.3175 87.2809 48.3475 87.2631 48.38 87.2517C48.4125 87.2402 48.447 87.2354 48.4814 87.2373L81.2589 89.88C81.3074 89.8858 81.3534 89.9045 81.3922 89.9342C81.431 89.964 81.461 90.0036 81.4791 90.049C81.4942 90.096 81.496 90.1462 81.4843 90.1942C81.4725 90.2421 81.4477 90.2858 81.4125 90.3205L69.2131 101.746C69.1589 101.783 69.0937 101.799 69.0288 101.793ZM37.209 97.7466L68.9622 101.27L80.6596 90.3205L48.5429 87.7341L37.209 97.7466Z" fill="#231F20"/>
<path d="M69.0339 101.542L62.9239 75.8932L31.1042 73.4042L36.6149 97.9361L69.0339 101.542Z" fill="white"/>
<path d="M69.0288 101.793L36.6098 98.2075C36.5571 98.2006 36.5078 98.1777 36.4685 98.142C36.4291 98.1063 36.4016 98.0595 36.3896 98.0078L30.8789 73.4759C30.8713 73.4365 30.8725 73.3959 30.8822 73.357C30.8919 73.3181 30.91 73.2818 30.9352 73.2505C30.9622 73.2207 30.9955 73.1974 31.0328 73.1823C31.07 73.1673 31.1102 73.1608 31.1503 73.1635L62.97 75.6525C63.0239 75.6577 63.0747 75.6799 63.1152 75.7158C63.1557 75.7516 63.1837 75.7994 63.1954 75.8522L69.3053 101.495C69.3152 101.536 69.3153 101.578 69.3054 101.618C69.2956 101.658 69.2763 101.695 69.249 101.726C69.2198 101.753 69.1848 101.773 69.1466 101.785C69.1084 101.796 69.0681 101.799 69.0288 101.793ZM36.8198 97.6954L68.6959 101.239L62.7089 76.1442L31.4217 73.6961L36.8198 97.6954Z" fill="#231F20"/>
<path d="M50.7809 91.3959C49.7115 91.3523 48.6874 90.9521 47.8719 90.259C47.1534 89.4744 46.52 88.6161 45.9821 87.6982C45.9543 87.6512 45.9423 87.5965 45.9478 87.5421C45.9533 87.4877 45.9761 87.4366 46.0128 87.3961L46.7247 86.6125C46.7508 86.5847 46.7826 86.563 46.818 86.5488C46.8534 86.5347 46.8915 86.5284 46.9295 86.5305C46.9678 86.5334 47.005 86.5445 47.0386 86.563C47.0722 86.5816 47.1014 86.6072 47.1241 86.6381C47.5068 87.1207 48.034 87.4681 48.6285 87.6294C49.2229 87.7907 49.8534 87.7574 50.4275 87.5344C51.2717 87.1833 51.9559 86.5319 52.3481 85.706C52.3949 85.5158 52.4274 85.3223 52.4454 85.1273C52.4396 84.8976 52.4925 84.6702 52.599 84.4666C52.6707 84.3846 52.8295 84.19 53.9408 84.4154C53.9988 84.426 54.0513 84.4562 54.0895 84.501C54.1278 84.5457 54.1494 84.6023 54.1508 84.6612V86.0338C54.2379 86.4025 54.7295 88.6611 54.1508 89.4447C53.8135 89.9618 53.3701 90.4014 52.85 90.7342C52.33 91.0671 51.7452 91.2857 51.1343 91.3755C51.0267 91.3857 50.9038 91.3959 50.7809 91.3959ZM46.5198 87.5958C47.0026 88.4121 47.569 89.1759 48.2099 89.8749C49.0107 90.5654 50.0476 90.9196 51.1035 90.8633C51.6433 90.7794 52.1591 90.5822 52.6172 90.2848C53.0754 89.9873 53.4653 89.5963 53.7616 89.1374C54.115 88.6713 53.8947 87.0427 53.6796 86.1208C53.6768 86.1039 53.6768 86.0866 53.6796 86.0696V84.8814C53.4653 84.8406 53.2474 84.8218 53.0292 84.8251C53.0292 84.8968 53.0292 85.0658 52.9882 85.1887C52.9748 85.4421 52.9248 85.6922 52.8397 85.9313C52.3835 86.8874 51.5792 87.6331 50.5914 88.0158C49.9594 88.2599 49.2691 88.3109 48.6081 88.1623C47.947 88.0137 47.345 87.6722 46.8783 87.181L46.5198 87.5958Z" fill="#D1D3D4"/>
<path d="M106.118 97.4598L82.7338 96.8708C82.7001 96.8695 82.6671 96.8615 82.6365 96.8474C82.606 96.8333 82.5785 96.8133 82.5556 96.7886C82.5328 96.7639 82.5151 96.7349 82.5035 96.7033C82.4918 96.6717 82.4866 96.6381 82.4879 96.6045C82.4886 96.5715 82.4958 96.539 82.509 96.5088C82.5222 96.4786 82.5413 96.4513 82.5651 96.4285C82.5888 96.4057 82.6169 96.3878 82.6476 96.3758C82.6783 96.3638 82.7111 96.358 82.744 96.3587L106.124 96.9476C106.157 96.9476 106.191 96.9544 106.222 96.9677C106.253 96.9809 106.281 97.0003 106.305 97.0247C106.328 97.0491 106.346 97.078 106.358 97.1096C106.37 97.1413 106.376 97.175 106.375 97.2088C106.372 97.2754 106.344 97.3385 106.296 97.3852C106.249 97.4318 106.185 97.4585 106.118 97.4598Z" fill="#D1D3D4"/>
<path d="M90.3751 92.8351C87.0052 92.8351 84.4239 92.8351 84.3061 92.8044C84.2382 92.7921 84.1779 92.7534 84.1386 92.6968C84.0992 92.6401 84.0839 92.5701 84.0962 92.5022C84.1084 92.4343 84.1471 92.374 84.2038 92.3346C84.2604 92.2952 84.3304 92.28 84.3983 92.2922C84.9105 92.3383 98.339 92.2922 105.396 92.2922C105.464 92.2922 105.529 92.3192 105.577 92.3672C105.625 92.4152 105.652 92.4804 105.652 92.5483C105.652 92.6162 105.625 92.6813 105.577 92.7294C105.529 92.7774 105.464 92.8044 105.396 92.8044C102.452 92.8197 95.4966 92.8351 90.3751 92.8351Z" fill="#D1D3D4"/>
<path d="M103.466 88.4357H103.44L99.5783 88.0875C99.5446 88.0843 99.5119 88.0744 99.482 88.0585C99.4522 88.0426 99.4258 88.0209 99.4043 87.9947C99.3829 87.9685 99.3669 87.9383 99.3572 87.9059C99.3475 87.8735 99.3443 87.8395 99.3478 87.8058C99.3504 87.7723 99.3596 87.7397 99.375 87.7099C99.3904 87.68 99.4116 87.6536 99.4374 87.6321C99.4632 87.6106 99.493 87.5945 99.5251 87.5848C99.5573 87.575 99.591 87.5718 99.6244 87.5753L103.486 87.9236C103.554 87.9236 103.619 87.9506 103.667 87.9986C103.715 88.0466 103.742 88.1117 103.742 88.1797C103.742 88.2476 103.715 88.3127 103.667 88.3607C103.619 88.4088 103.554 88.4357 103.486 88.4357H103.466Z" fill="#D1D3D4"/>
<path d="M149.349 68.9127C149.349 68.9127 149.774 56.7492 156.319 50.4754L173.794 55.5456C173.794 55.5456 164.288 65.8654 164.411 74.4336L149.349 68.9127Z" fill="white"/>
<path d="M164.411 74.6999C164.382 74.7052 164.353 74.7052 164.324 74.6999L149.257 69.179C149.205 69.1598 149.16 69.1248 149.129 69.0789C149.097 69.0329 149.081 68.9784 149.083 68.9229C149.083 68.8 149.595 56.5801 156.135 50.3063C156.169 50.2756 156.21 50.2539 156.255 50.2432C156.3 50.2324 156.346 50.233 156.391 50.2449L173.871 55.3151C173.913 55.3287 173.952 55.3526 173.983 55.3848C174.015 55.4169 174.037 55.4564 174.05 55.4995C174.063 55.543 174.065 55.5893 174.054 55.6335C174.043 55.6777 174.02 55.7181 173.988 55.7505C173.896 55.8529 164.575 66.0856 164.677 74.4439C164.677 74.4869 164.667 74.5293 164.648 74.5676C164.628 74.6058 164.6 74.6389 164.565 74.6641C164.518 74.6907 164.465 74.7032 164.411 74.6999ZM149.62 68.7334L164.15 74.0341C164.237 69.6502 166.711 64.8821 168.841 61.6197C170.195 59.5373 171.691 57.5506 173.317 55.6736L156.391 50.7621C150.542 56.5084 149.712 67.1765 149.62 68.7334Z" fill="#231F20"/>
<path d="M168.273 57.2511H168.201L156.191 53.7685C156.127 53.7483 156.073 53.704 156.04 53.6448C156.008 53.5856 155.999 53.5161 156.017 53.4509C156.026 53.4183 156.041 53.3877 156.062 53.3611C156.083 53.3345 156.109 53.3124 156.139 53.2962C156.168 53.2799 156.201 53.2698 156.235 53.2665C156.268 53.2631 156.302 53.2667 156.335 53.2768L168.344 56.7594C168.412 56.7689 168.474 56.805 168.515 56.8598C168.556 56.9145 168.574 56.9834 168.565 57.0513C168.555 57.1192 168.519 57.1806 168.464 57.2219C168.41 57.2632 168.341 57.2811 168.273 57.2715V57.2511Z" fill="#D1D3D4"/>
<path d="M166.542 60.7593H166.47L154.46 57.2767C154.396 57.2565 154.342 57.2122 154.309 57.153C154.277 57.0938 154.268 57.0243 154.286 56.9592C154.295 56.9265 154.31 56.8959 154.331 56.8694C154.352 56.8428 154.378 56.8207 154.408 56.8044C154.437 56.7881 154.47 56.778 154.504 56.7747C154.537 56.7714 154.571 56.7749 154.603 56.785L166.613 60.2676C166.681 60.2771 166.743 60.3132 166.784 60.368C166.825 60.4227 166.843 60.4916 166.834 60.5596C166.824 60.6275 166.788 60.6888 166.733 60.7301C166.678 60.7714 166.61 60.7893 166.542 60.7798V60.7593Z" fill="#D1D3D4"/>
<path d="M165.062 64.457H164.99L152.98 60.9744C152.948 60.965 152.918 60.9493 152.891 60.9282C152.865 60.9072 152.843 60.8812 152.827 60.8517C152.811 60.8222 152.801 60.7898 152.797 60.7564C152.793 60.7229 152.796 60.6891 152.806 60.6568C152.815 60.6242 152.83 60.5936 152.851 60.567C152.872 60.5404 152.898 60.5184 152.927 60.5021C152.957 60.4858 152.99 60.4757 153.023 60.4724C153.057 60.4691 153.091 60.4726 153.123 60.4827L165.133 63.9653C165.166 63.9747 165.196 63.9904 165.222 64.0115C165.248 64.0325 165.27 64.0585 165.286 64.088C165.302 64.1175 165.312 64.1499 165.316 64.1833C165.32 64.2167 165.317 64.2506 165.307 64.2829C165.291 64.3346 165.258 64.3795 165.213 64.4109C165.169 64.4423 165.116 64.4585 165.062 64.457Z" fill="#D1D3D4"/>
<path d="M159.935 67.7654C159.911 67.7701 159.887 67.7701 159.863 67.7654L151.326 65.2866C151.293 65.2778 151.263 65.2625 151.236 65.2416C151.209 65.2207 151.187 65.1946 151.171 65.165C151.155 65.1353 151.145 65.1027 151.141 65.069C151.138 65.0354 151.142 65.0014 151.152 64.9691C151.171 64.9039 151.215 64.8489 151.274 64.8163C151.334 64.7836 151.404 64.776 151.469 64.795L160.007 67.2738C160.039 67.2832 160.069 67.2989 160.095 67.3199C160.122 67.341 160.143 67.367 160.16 67.3965C160.176 67.426 160.186 67.4583 160.19 67.4918C160.193 67.5252 160.19 67.559 160.181 67.5913C160.164 67.643 160.131 67.688 160.087 67.7194C160.043 67.7508 159.989 67.7669 159.935 67.7654Z" fill="#D1D3D4"/>
<path d="M162.163 39.7868H162.112C162.04 39.7868 161.866 39.7305 161.876 39.4488C161.876 39.3892 161.9 39.3321 161.943 39.29C162.142 38.3784 162.905 33.6564 163.402 30.4504C163.408 30.4167 163.42 30.3845 163.437 30.3555C163.455 30.3265 163.479 30.3013 163.506 30.2813C163.534 30.2613 163.565 30.247 163.598 30.2391C163.631 30.2312 163.666 30.2299 163.699 30.2353C163.733 30.2406 163.765 30.2526 163.794 30.2704C163.823 30.2883 163.848 30.3117 163.868 30.3392C163.888 30.3668 163.903 30.3981 163.911 30.4312C163.918 30.4643 163.92 30.4987 163.914 30.5323C162.537 39.3003 162.445 39.7868 162.163 39.7868Z" fill="#D1D3D4"/>
<path d="M159.602 41.0928H159.551C159.474 41.0928 159.305 41.0416 159.315 40.7548C159.316 40.6951 159.34 40.638 159.382 40.596C159.582 39.6844 160.345 34.9624 160.841 31.7563C160.846 31.7232 160.858 31.6914 160.875 31.6627C160.893 31.6341 160.916 31.6093 160.943 31.5897C160.97 31.5702 161.001 31.5562 161.034 31.5488C161.067 31.5413 161.1 31.5405 161.133 31.5464C161.167 31.5514 161.199 31.5629 161.228 31.5803C161.256 31.5977 161.282 31.6206 161.302 31.6477C161.321 31.6748 161.336 31.7056 161.344 31.7383C161.352 31.771 161.354 31.805 161.348 31.8383C159.976 40.6062 159.884 41.0928 159.602 41.0928Z" fill="#D1D3D4"/>
<path d="M156.847 41.6408H156.796C156.724 41.6408 156.55 41.5896 156.56 41.3079C156.562 41.247 156.585 41.1887 156.627 41.144C156.826 40.2324 157.589 35.5104 158.086 32.3043C158.099 32.2376 158.137 32.1783 158.192 32.1391C158.248 32.0999 158.316 32.0839 158.383 32.0943C158.416 32.0993 158.448 32.1109 158.477 32.1283C158.505 32.1458 158.53 32.1688 158.55 32.196C158.569 32.2232 158.583 32.2541 158.591 32.2867C158.598 32.3194 158.599 32.3533 158.593 32.3863C157.221 41.1542 157.118 41.6408 156.847 41.6408Z" fill="#D1D3D4"/>
<path d="M154.24 42.9979H154.189C154.112 42.9979 153.943 42.9416 153.953 42.6599C153.953 42.6003 153.977 42.5432 154.02 42.5011C154.214 41.5844 154.982 36.8675 155.479 33.6615C155.491 33.5948 155.527 33.5351 155.582 33.495C155.636 33.4549 155.704 33.4375 155.771 33.4464C155.838 33.4577 155.898 33.4945 155.938 33.5489C155.978 33.6034 155.995 33.6713 155.986 33.7383C154.609 42.5063 154.522 42.9979 154.24 42.9979Z" fill="#D1D3D4"/>
<path d="M151.485 43.3616H151.433C151.356 43.3616 151.187 43.3052 151.198 43.0236C151.199 42.9626 151.223 42.9042 151.264 42.8597C151.459 41.9481 152.227 37.226 152.724 34.0251C152.729 33.9918 152.74 33.9598 152.758 33.931C152.775 33.9021 152.798 33.877 152.825 33.857C152.852 33.837 152.883 33.8226 152.916 33.8145C152.949 33.8065 152.983 33.8049 153.016 33.81C153.083 33.8214 153.142 33.8581 153.182 33.9126C153.222 33.967 153.24 34.0349 153.231 34.1019C151.869 42.875 151.782 43.3616 151.485 43.3616Z" fill="#D1D3D4"/>
<path d="M140.489 25.1752C140.489 25.1752 140.345 27.8998 142.737 31.5463C142.737 31.5463 147.828 23.7002 150.931 22.4967C154.035 21.2931 142.742 20.1408 140.489 25.1752Z" fill="white"/>
<path d="M142.737 31.8024C142.694 31.8015 142.653 31.7903 142.615 31.7698C142.578 31.7493 142.546 31.7201 142.522 31.6846C140.115 28.0125 140.217 25.2777 140.217 25.1599C140.221 25.128 140.23 25.0969 140.243 25.0677C141.825 21.5288 147.628 20.8783 150.383 21.3188C151.244 21.4519 151.684 21.6875 151.72 22.0307C151.756 22.3738 151.208 22.6606 151.018 22.7323C148.017 23.8949 142.988 31.6078 142.937 31.6846C142.914 31.7207 142.882 31.7504 142.844 31.771C142.807 31.7915 142.765 31.8024 142.722 31.8024H142.737ZM140.729 25.2316C140.729 25.585 140.786 27.9665 142.727 31.0752C143.751 29.5387 148.017 23.3469 150.834 22.256C150.96 22.2167 151.077 22.156 151.182 22.0767C150.896 21.8616 149.456 21.5902 147.408 21.7797C145.82 21.9231 141.984 22.5582 140.729 25.2316Z" fill="#231F20"/>
<path d="M151.94 28.8422C151.94 28.8422 148.002 22.2713 140.489 25.1752C141.999 21.8563 143.831 18.6932 145.958 15.7312C145.958 15.7312 150.102 14.287 155.643 18.927C155.643 18.927 153.846 25.8564 151.94 28.8422Z" fill="white"/>
<path d="M151.94 29.0983C151.897 29.0962 151.854 29.0834 151.817 29.0611C151.779 29.0388 151.748 29.0076 151.725 28.9703C151.566 28.7091 147.802 22.6247 140.586 25.3852C140.539 25.4048 140.488 25.4093 140.438 25.3983C140.388 25.3873 140.344 25.3613 140.309 25.3238C140.274 25.288 140.251 25.2426 140.241 25.1933C140.232 25.144 140.238 25.0931 140.258 25.0472C141.78 21.7131 143.622 18.5348 145.759 15.5571C145.789 15.5126 145.831 15.4786 145.882 15.4598C146.056 15.4035 150.225 14.0258 155.812 18.7068C155.849 18.7385 155.876 18.7797 155.89 18.8258C155.905 18.8719 155.906 18.9211 155.894 18.968C155.822 19.2497 154.066 25.9691 152.161 28.9549C152.139 28.9958 152.108 29.0305 152.069 29.0556C152.031 29.0808 151.986 29.0955 151.94 29.0983ZM144.192 24.1817C148.529 24.1817 151.162 27.316 151.925 28.3659C153.554 25.5645 155.085 20.023 155.351 19.0192C150.445 14.9732 146.681 15.7927 146.133 15.9463C144.171 18.7161 142.457 21.6536 141.011 24.7245C142.036 24.3767 143.109 24.1935 144.192 24.1817Z" fill="#231F20"/>
<path d="M151.254 25.2418C151.227 25.2468 151.199 25.2468 151.172 25.2418C151.14 25.2308 151.111 25.2136 151.085 25.1912C151.06 25.1688 151.039 25.1415 151.024 25.111C151.01 25.0805 151.001 25.0474 150.999 25.0136C150.997 24.9798 151.002 24.9459 151.013 24.914L153.088 18.8911C153.11 18.8276 153.156 18.7753 153.216 18.7456C153.277 18.7159 153.346 18.7111 153.41 18.7324C153.474 18.7556 153.527 18.8028 153.556 18.864C153.586 18.9252 153.59 18.9956 153.569 19.0601L151.485 25.0728C151.467 25.1206 151.436 25.1623 151.395 25.1924C151.354 25.2225 151.305 25.2397 151.254 25.2418Z" fill="#D1D3D4"/>
<path d="M148.832 23.7208C148.805 23.7257 148.777 23.7257 148.75 23.7208C148.686 23.6986 148.634 23.6524 148.604 23.592C148.574 23.5316 148.57 23.462 148.591 23.3981L150.64 17.4469C150.647 17.4116 150.662 17.3782 150.683 17.349C150.705 17.3198 150.732 17.2954 150.763 17.2775C150.795 17.2597 150.83 17.2487 150.866 17.2453C150.902 17.2419 150.938 17.2461 150.972 17.2578C151.007 17.2695 151.038 17.2882 151.065 17.3129C151.091 17.3376 151.112 17.3676 151.126 17.401C151.14 17.4343 151.147 17.4703 151.146 17.5064C151.145 17.5426 151.137 17.5782 151.121 17.6108L149.072 23.562C149.053 23.61 149.02 23.651 148.977 23.6794C148.934 23.7078 148.883 23.7222 148.832 23.7208Z" fill="#D1D3D4"/>
<path d="M145.851 22.9321C145.817 22.9392 145.782 22.9392 145.748 22.9321C145.687 22.905 145.638 22.8553 145.613 22.7933C145.587 22.7313 145.586 22.6618 145.61 22.5992C147.971 16.9399 148.14 16.9194 148.314 16.8938C148.381 16.8877 148.448 16.907 148.501 16.9478C148.554 16.9886 148.59 17.048 148.601 17.1141C148.608 17.1585 148.603 17.2039 148.585 17.2454C148.568 17.287 148.54 17.323 148.504 17.3496C148.248 17.7133 146.891 20.863 146.087 22.7938C146.065 22.8371 146.031 22.8732 145.989 22.8978C145.947 22.9223 145.899 22.9342 145.851 22.9321Z" fill="#D1D3D4"/>
<path d="M52.0101 54.3728C52.0101 54.3728 42.0949 53.1282 39.5393 49.0311C37.8901 46.3781 41.9617 37.3899 41.9617 37.3899C41.9617 37.3899 43.324 42.5729 46.9552 43.3513C50.5863 44.1298 52.9166 44.4525 52.9166 44.4525C52.9166 44.4525 50.1305 51.7813 52.0101 54.3728Z" fill="white"/>
<path d="M52.01 54.6289H51.9793C51.5696 54.5777 41.9105 53.3229 39.319 49.1643C37.6187 46.4294 41.5571 37.6563 41.7261 37.2824C41.7468 37.2332 41.7831 37.1921 41.8293 37.1653C41.8755 37.1385 41.9291 37.1275 41.9822 37.1339C42.0349 37.1377 42.0851 37.1581 42.1256 37.1921C42.166 37.2262 42.1947 37.2721 42.2075 37.3234C42.2075 37.3746 43.5749 42.3681 47.0063 43.1004C50.5914 43.8687 52.9319 44.1964 52.9524 44.2016C52.9938 44.2043 53.0338 44.2175 53.0687 44.2399C53.1036 44.2623 53.1323 44.2931 53.1521 44.3296C53.1685 44.364 53.177 44.4016 53.177 44.4397C53.177 44.4778 53.1685 44.5154 53.1521 44.5498C53.1265 44.6215 50.4377 51.7762 52.2149 54.2294C52.2412 54.2717 52.2552 54.3205 52.2552 54.3703C52.2552 54.42 52.2412 54.4688 52.2149 54.5111C52.1927 54.5457 52.1625 54.5745 52.1269 54.595C52.0912 54.6155 52.0511 54.6271 52.01 54.6289ZM41.9207 38.1224C41.0501 40.1709 38.4432 46.7828 39.7543 48.8775C41.8849 52.2986 49.4851 53.707 51.5337 54.0297C50.3097 51.387 52.0971 45.9889 52.558 44.6471C51.8052 44.5293 49.731 44.1964 46.8885 43.587C43.9335 42.9622 42.4329 39.582 41.9207 38.1224Z" fill="#231F20"/>
<path d="M41.1064 48.7084C41.0432 48.7086 40.9823 48.685 40.9358 48.6423C40.8893 48.5996 40.8606 48.5409 40.8554 48.4779C40.5891 46.0248 42.1461 41.779 42.2126 41.5998C42.2368 41.5369 42.2847 41.4861 42.346 41.4583C42.4074 41.4305 42.4772 41.4279 42.5404 41.4513C42.6042 41.4744 42.6563 41.5219 42.6851 41.5834C42.7139 41.6448 42.7171 41.7152 42.6941 41.779C42.6941 41.82 41.1115 46.0913 41.3625 48.437C41.3697 48.5042 41.35 48.5715 41.3078 48.6242C41.2656 48.677 41.2043 48.7109 41.1371 48.7187L41.1064 48.7084Z" fill="#D1D3D4"/>
<path d="M40.8606 50.4753C40.8606 50.4753 40.6762 48.1297 41.7773 46.5728L39.5802 44.2118C39.5802 44.2118 37.9004 48.3858 40.8606 50.4753Z" fill="white"/>
<path d="M40.8606 50.7519C40.8076 50.7517 40.7559 50.7356 40.712 50.7058C37.6392 48.5036 39.3241 44.1811 39.3395 44.1401C39.3559 44.1003 39.3817 44.065 39.4147 44.0374C39.4477 44.0097 39.4869 43.9905 39.529 43.9813C39.5715 43.9736 39.6153 43.9766 39.6565 43.99C39.6976 44.0034 39.7347 44.0268 39.7646 44.0582L41.9617 46.4192C42.0025 46.4618 42.0273 46.5171 42.0319 46.5759C42.0366 46.6347 42.0208 46.6933 41.9873 46.7418C40.963 48.2014 41.1166 50.4549 41.1166 50.4754C41.1214 50.5236 41.1118 50.5723 41.0891 50.6151C41.0663 50.6579 41.0313 50.6931 40.9886 50.7161C40.9504 50.7403 40.9058 50.7528 40.8606 50.7519ZM39.6826 44.7239C39.3958 45.7073 38.8581 48.309 40.5943 49.9427C40.587 48.7795 40.8817 47.6342 41.4495 46.6189L39.6826 44.7239Z" fill="#231F20"/>
<path d="M43.4214 50.7519C43.3873 50.7513 43.3537 50.7438 43.3226 50.73C43.2914 50.7162 43.2633 50.6963 43.2399 50.6715C43.2166 50.6467 43.1984 50.6175 43.1864 50.5856C43.1745 50.5536 43.1691 50.5196 43.1704 50.4856C43.1704 50.3063 43.3292 46.0658 44.3586 43.5255C44.371 43.4942 44.3895 43.4657 44.413 43.4418C44.4366 43.4178 44.4647 43.3988 44.4958 43.3859C44.5268 43.373 44.5602 43.3664 44.5938 43.3667C44.6274 43.3669 44.6606 43.3739 44.6915 43.3872C44.7228 43.3996 44.7513 43.4181 44.7755 43.4416C44.7996 43.465 44.8189 43.493 44.8322 43.5239C44.8456 43.5549 44.8527 43.5881 44.8531 43.6218C44.8536 43.6554 44.8474 43.6888 44.8349 43.7201C43.8413 46.1733 43.6826 50.46 43.6826 50.5061C43.6799 50.5731 43.6511 50.6364 43.6022 50.6824C43.5534 50.7283 43.4884 50.7533 43.4214 50.7519Z" fill="#D1D3D4"/>
<path d="M46.0794 51.5406C46.0127 51.5394 45.9491 51.5127 45.9015 51.466C45.8539 51.4194 45.8259 51.3563 45.8233 51.2897C45.767 48.4575 46.9757 44.8981 47.0269 44.7495C47.0493 44.685 47.0964 44.632 47.1579 44.6023C47.2193 44.5725 47.2901 44.5684 47.3546 44.5908C47.4192 44.6132 47.4721 44.6603 47.5019 44.7218C47.5317 44.7832 47.5358 44.854 47.5134 44.9185C47.5134 44.9493 46.2791 48.5394 46.3355 51.2794C46.3361 51.313 46.3302 51.3465 46.3179 51.3778C46.3057 51.4091 46.2874 51.4377 46.2641 51.462C46.2408 51.4863 46.2129 51.5057 46.1821 51.5192C46.1513 51.5327 46.1181 51.5399 46.0845 51.5406H46.0794Z" fill="#D1D3D4"/>
<path d="M48.7374 52.1962C48.704 52.1969 48.6708 52.1909 48.6398 52.1786C48.6088 52.1663 48.5805 52.1479 48.5566 52.1245C48.5328 52.1012 48.5139 52.0733 48.5009 52.0425C48.488 52.0117 48.4813 51.9786 48.4813 51.9452C48.4728 50.3419 48.6082 48.7409 48.8859 47.1618C48.9007 47.0959 48.9404 47.0383 48.9968 47.001C49.0531 46.9638 49.1217 46.9498 49.1881 46.962C49.2214 46.9681 49.2531 46.9809 49.2813 46.9995C49.3096 47.0181 49.3337 47.0423 49.3524 47.0705C49.3711 47.0988 49.3838 47.1305 49.3899 47.1637C49.396 47.197 49.3953 47.2312 49.3878 47.2642C49.1167 48.8079 48.9847 50.3728 48.9935 51.9401C48.9935 52.008 48.9665 52.0732 48.9185 52.1212C48.8705 52.1692 48.8053 52.1962 48.7374 52.1962Z" fill="#D1D3D4"/>
</g>
</svg>
