<svg width="200" height="111" viewBox="0 0 200 111" fill="none" xmlns="http://www.w3.org/2000/svg">
<path d="M170.249 96.186C170.249 96.186 162.181 80.6604 159.717 77.5371C157.254 74.4138 144.852 40.2331 144.682 39.9062C144.513 39.5794 166.406 41.8795 169.039 44.0222C171.672 46.1649 174.142 65.5766 176.302 67.7193C178.463 69.862 186.483 79.7282 186.483 79.7282L170.249 96.186Z" fill="white"/>
<path d="M170.249 96.4888H170.201C170.154 96.4796 170.11 96.4602 170.071 96.432C170.032 96.4037 170 96.3673 169.977 96.3253C169.898 96.174 161.903 80.7936 159.475 77.7248C157.357 75.0373 148.253 50.4081 145.257 42.3154C144.785 41.0382 144.446 40.1181 144.41 40.0334C144.383 39.9693 144.377 39.8984 144.394 39.8309C144.41 39.7635 144.447 39.7029 144.5 39.6581C144.936 39.3071 154.342 40.5237 156.055 40.7658C161.267 41.4922 167.786 42.5817 169.233 43.7923C170.679 45.0028 172.005 50.7591 173.379 56.8605C174.45 61.6362 175.558 66.5451 176.496 67.5075C178.621 69.6381 186.386 79.1412 186.719 79.5467C186.769 79.6013 186.797 79.6726 186.797 79.7465C186.797 79.8204 186.769 79.8916 186.719 79.9462L170.479 96.404C170.45 96.4344 170.414 96.4578 170.374 96.4724C170.334 96.4871 170.292 96.4927 170.249 96.4888ZM145.112 40.1968L145.826 42.1277C153.834 63.785 158.586 75.6426 159.953 77.3737C162.229 80.2549 169.033 93.2747 170.322 95.7019L186.06 79.7344C184.879 78.2938 177.979 69.8863 176.048 67.9554C174.989 66.8962 173.96 62.3141 172.767 57.0118C171.557 51.5642 170.153 45.3539 168.833 44.3007C166.545 42.3819 148.005 40.2513 145.112 40.1726V40.1968Z" fill="#231F20"/>
<path d="M171.636 110.132L164.324 89.1647L184.813 75.8181L199.697 98.6557L171.636 110.132Z" fill="#231F20"/>
<path d="M171.636 110.429C171.594 110.437 171.55 110.437 171.508 110.429C171.472 110.411 171.439 110.387 171.412 110.357C171.385 110.327 171.364 110.291 171.351 110.253L164.039 89.2919C164.016 89.2274 164.015 89.157 164.037 89.0922C164.059 89.0273 164.103 88.9718 164.16 88.9348L184.649 75.5881C184.717 75.5449 184.799 75.5302 184.877 75.5472C184.955 75.5642 185.024 75.6116 185.067 75.6789L199.951 98.5165C199.975 98.5538 199.991 98.5958 199.997 98.6397C200.003 98.6835 200 98.7282 199.987 98.7707C199.973 98.8126 199.95 98.8509 199.92 98.8833C199.889 98.9156 199.853 98.9412 199.812 98.9584L171.751 110.459C171.711 110.455 171.672 110.445 171.636 110.429ZM164.687 89.2919L171.835 109.733L199.267 98.5104L184.74 76.2358L164.687 89.2919Z" fill="#231F20"/>
<path d="M31.3052 96.186C31.3052 96.186 39.3737 80.6604 41.8372 77.5371C44.3008 74.4138 56.7032 40.2331 56.8726 39.9062C57.0421 39.5794 35.1488 41.8795 32.5158 44.0222C29.8828 46.1649 27.4132 65.5766 25.2523 67.7193C23.0914 69.862 15.0653 79.7282 15.0653 79.7282L31.3052 96.186Z" fill="white"/>
<path d="M31.3053 96.4887C31.2656 96.4892 31.2262 96.4814 31.1897 96.4658C31.1533 96.4501 31.1204 96.427 31.0934 96.3979L14.8535 79.9401C14.8037 79.8855 14.7762 79.8143 14.7762 79.7404C14.7762 79.6665 14.8037 79.5953 14.8535 79.5406C15.1683 79.1351 22.9341 69.6199 25.0587 67.5014C25.9969 66.5632 27.1046 61.6301 28.1759 56.8544C29.5499 50.7531 30.8392 44.9907 32.3222 43.7862C33.8051 42.5817 40.2878 41.4921 45.4993 40.7597C47.2123 40.5176 56.6124 39.301 57.0543 39.652C57.1102 39.6961 57.1492 39.7581 57.1646 39.8276C57.1801 39.8971 57.171 39.9698 57.139 40.0334L56.2977 42.3093C53.2712 50.402 44.1919 75.0312 42.0794 77.7187C39.6583 80.7875 31.6563 96.1679 31.5777 96.3193C31.5546 96.3612 31.5226 96.3977 31.4839 96.4259C31.4452 96.4541 31.4007 96.4735 31.3537 96.4827L31.3053 96.4887ZM15.4769 79.7101L31.2145 95.6777C32.4795 93.2565 39.3072 80.2307 41.5831 77.3495C42.951 75.6184 47.7026 63.7607 55.7106 42.1035L56.4248 40.1726C53.5315 40.2513 34.9915 42.388 32.6853 44.2583C31.3658 45.3297 29.9797 51.5218 28.7509 56.9694C27.5404 62.2717 26.5295 66.8538 25.4703 67.913C23.5394 69.862 16.6573 78.2695 15.4769 79.7101Z" fill="#231F20"/>
<path d="M27.2255 109.902L37.231 89.1648L17.4864 72.9309L0.302246 94.564L27.2255 109.902Z" fill="#231F20"/>
<path d="M27.2256 110.205C27.174 110.206 27.1233 110.191 27.0803 110.162L0.151001 94.8244C0.112895 94.8032 0.0800492 94.7736 0.0549015 94.738C0.0297537 94.7024 0.0129489 94.6616 0.00573138 94.6186C-0.00280076 94.5762 -0.00179612 94.5325 0.0086742 94.4907C0.0191445 94.4488 0.0388164 94.4098 0.0662594 94.3764L17.2504 72.7434C17.2744 72.7119 17.3044 72.6854 17.3387 72.6657C17.373 72.6459 17.4109 72.6333 17.4502 72.6284C17.5305 72.6216 17.6105 72.6454 17.6741 72.695L37.4247 88.9349C37.4773 88.9774 37.5137 89.0366 37.528 89.1026C37.5423 89.1687 37.5336 89.2376 37.5034 89.2981L27.498 110.035C27.4592 110.109 27.3944 110.165 27.3164 110.193L27.2256 110.205ZM0.75629 94.4672L27.0985 109.472L36.8558 89.2496L17.5289 73.3547L0.75629 94.4672Z" fill="#231F20"/>
<path d="M58.8459 20.2587C58.8459 20.2587 37.2613 77.4162 38.4598 78.1304C39.6582 78.8447 66.4423 70.982 72.0352 69.5535L101.622 79.2018L133.599 72.4104L162.756 81.3445L147.182 22.4075L124.786 10.9735L102.832 21.6872L82.0285 12.396L58.8459 20.2587Z" fill="white"/>
<path d="M162.756 81.6471H162.665L133.581 72.7251L101.682 79.4983C101.63 79.5104 101.577 79.5104 101.525 79.4983L72.029 69.8802C70.5279 70.2676 67.5559 71.0908 64.13 72.0532C47.6601 76.6534 39.1497 78.8991 38.3083 78.4027C37.8967 78.1606 37.3399 77.7974 47.9203 48.8343C53.1077 34.6161 58.5069 20.307 58.5613 20.1617C58.5785 20.1202 58.6039 20.0826 58.6362 20.0514C58.6685 20.0202 58.7069 19.9959 58.749 19.9802L81.9316 12.1114C82.0038 12.0845 82.0833 12.0845 82.1555 12.1114L102.832 21.3542L124.689 10.695C124.732 10.6742 124.778 10.6634 124.825 10.6634C124.873 10.6634 124.919 10.6742 124.962 10.695L147.357 22.1229C147.395 22.1427 147.429 22.1702 147.456 22.2035C147.483 22.2368 147.503 22.2753 147.515 22.3166L163.101 81.2597C163.113 81.3044 163.115 81.3513 163.106 81.3967C163.097 81.4422 163.077 81.485 163.049 81.5218C163.021 81.5586 162.985 81.5885 162.944 81.6092C162.902 81.6299 162.857 81.6408 162.81 81.641L162.756 81.6471ZM133.575 72.1077H133.666L162.32 80.8784L146.909 22.589L124.798 11.3064L102.947 21.9595C102.866 21.9924 102.775 21.9924 102.693 21.9595L82.0163 12.7227L59.0819 20.5007C50.8257 42.3517 38.7805 75.1826 38.7139 77.8882C40.4208 78.0335 55.662 73.7723 63.9666 71.46C67.4651 70.4855 70.4855 69.6442 71.9624 69.2629C72.0175 69.2448 72.0769 69.2448 72.1319 69.2629L101.622 78.887L133.52 72.1138L133.575 72.1077Z" fill="#231F20"/>
<path d="M57.3145 40.5661C57.25 40.5656 57.1873 40.5449 57.1352 40.5069C57.0831 40.4689 57.0442 40.4155 57.024 40.3543C56.9752 40.2054 56.9571 40.0483 56.9706 39.8923C56.9841 39.7362 57.029 39.5846 57.1026 39.4463C57.5067 38.8572 58.1149 38.4388 58.8096 38.2721C63.6974 36.8517 68.8342 36.5028 73.8692 37.2491C74.4744 37.346 75.1342 37.461 75.7637 37.5699C77.8217 37.9392 79.9523 38.3144 82.0224 38.0421C84.1591 37.6958 86.1941 36.8859 87.9845 35.6693C92.9661 32.5581 95.9017 28.1577 95.8533 23.8964C95.8547 23.8171 95.886 23.7412 95.941 23.6839C95.996 23.6267 96.0706 23.5923 96.1499 23.5877C96.1903 23.5861 96.2307 23.5927 96.2685 23.6073C96.3063 23.6218 96.3408 23.6439 96.3697 23.6723C96.3986 23.7007 96.4214 23.7346 96.4367 23.7721C96.452 23.8097 96.4594 23.8499 96.4586 23.8904C96.5252 28.3635 93.4805 32.9697 88.3235 36.1838C86.4572 37.447 84.3379 38.2877 82.1132 38.6474C79.9584 38.9258 77.7793 38.5384 75.679 38.1692C75.0737 38.0542 74.426 37.9452 73.8026 37.8484C68.8526 37.1141 63.8025 37.4568 58.9972 38.8531C58.4611 38.9736 57.9863 39.283 57.6595 39.7248C57.6215 39.7912 57.598 39.8649 57.5907 39.9411C57.5834 40.0173 57.5924 40.0942 57.6171 40.1666C57.6422 40.2421 57.6366 40.3244 57.6015 40.3958C57.5664 40.4671 57.5046 40.5218 57.4295 40.548L57.3145 40.5661Z" fill="#D1D3D4"/>
<path d="M55.0145 67.2533C54.9659 67.2533 54.918 67.2416 54.8749 67.2192C54.8318 67.1967 54.7947 67.1643 54.7668 67.1245C54.7389 67.0847 54.721 67.0388 54.7146 66.9906C54.7082 66.9425 54.7135 66.8935 54.73 66.8478C57.3569 59.5177 60.22 52.6537 66.2971 49.1491C70.4554 46.728 75.903 46.165 82.4886 47.4119C84.9824 47.8841 87.464 48.562 89.867 49.2278C92.6886 50.0485 95.5516 50.7193 98.444 51.2374C102.505 51.885 105.447 51.5582 107.711 50.2023C109.975 48.8465 111.409 46.5101 112.874 44.0647C113.763 42.4513 114.814 40.9324 116.01 39.5311C119.889 35.294 125.882 34.0108 132.195 33C137.57 32.1405 142.745 31.5897 146.897 34.265C146.965 34.3092 147.012 34.3783 147.028 34.4572C147.045 34.5361 147.029 34.6183 146.985 34.6857C146.941 34.7531 146.872 34.8003 146.793 34.8167C146.714 34.8332 146.632 34.8176 146.565 34.7735C142.594 32.2131 137.546 32.7579 132.286 33.5992C126.088 34.5919 120.21 35.8267 116.457 39.9366C115.291 41.3096 114.265 42.796 113.395 44.3734C111.954 46.7945 110.471 49.2581 108.026 50.7229C105.58 52.1877 102.578 52.5387 98.3411 51.8366C95.4285 51.3143 92.5454 50.6395 89.7036 49.8149C87.3127 49.1612 84.8613 48.4893 82.3675 47.9991C75.9333 46.7885 70.6249 47.3393 66.5937 49.6576C60.6921 53.0653 57.8835 59.8204 55.2929 67.0354C55.276 67.0968 55.2398 67.1512 55.1897 67.1904C55.1396 67.2296 55.0781 67.2517 55.0145 67.2533Z" fill="#D1D3D4"/>
<path d="M101.622 79.5044C101.542 79.5013 101.467 79.4674 101.411 79.4099C101.356 79.3523 101.325 79.2756 101.325 79.1957L102.536 21.6932C102.542 21.6145 102.576 21.5406 102.633 21.4859C102.69 21.4312 102.765 21.3994 102.844 21.3966C102.884 21.3966 102.924 21.4047 102.961 21.4203C102.998 21.436 103.031 21.4589 103.059 21.4877C103.086 21.5166 103.108 21.5507 103.122 21.5881C103.136 21.6255 103.143 21.6654 103.141 21.7053L101.93 79.2078C101.93 79.2476 101.921 79.2868 101.905 79.3232C101.889 79.3596 101.866 79.3926 101.838 79.4201C101.809 79.4476 101.775 79.4693 101.738 79.4837C101.701 79.4982 101.661 79.5052 101.622 79.5044Z" fill="#D1D3D4"/>
<path d="M72.0351 69.856H71.9625C71.8836 69.8412 71.8136 69.7963 71.7673 69.7308C71.7209 69.6652 71.7019 69.5842 71.7143 69.5049L81.7077 12.3474C81.7213 12.2672 81.7663 12.1956 81.8327 12.1485C81.8991 12.1014 81.9815 12.0826 82.0618 12.0962C82.142 12.1099 82.2136 12.1548 82.2607 12.2213C82.3078 12.2877 82.3266 12.3701 82.313 12.4503L72.3378 69.6199C72.3214 69.6877 72.2826 69.7479 72.2276 69.7907C72.1727 69.8336 72.1048 69.8566 72.0351 69.856Z" fill="#D1D3D4"/>
<path d="M133.593 72.713C133.52 72.7136 133.45 72.6874 133.395 72.6394C133.341 72.5914 133.305 72.525 133.297 72.4528L124.502 11.0098C124.49 10.9295 124.512 10.8481 124.56 10.7834C124.609 10.7187 124.682 10.676 124.762 10.6648C124.842 10.6536 124.924 10.6747 124.988 10.7235C125.053 10.7723 125.096 10.8448 125.107 10.9251L133.902 72.368C133.912 72.4481 133.891 72.5292 133.842 72.5937C133.793 72.6582 133.721 72.701 133.642 72.713H133.593Z" fill="#D1D3D4"/>
<path d="M154.887 75.576C154.849 75.5816 154.81 75.5816 154.772 75.576L132.491 66.0608L100.914 73.4212C100.856 73.4393 100.795 73.4393 100.738 73.4212L73.2034 62.7378L46.6312 69.6199C46.5777 69.6336 46.5216 69.6329 46.4685 69.618C46.4154 69.6032 46.3671 69.5746 46.3285 69.5352C46.2922 69.4936 46.2675 69.4431 46.2569 69.389C46.2463 69.3348 46.2501 69.2787 46.268 69.2265L62.7016 23.0126C62.7161 22.9715 62.7392 22.934 62.7695 22.9027C62.7998 22.8713 62.8365 22.8469 62.8771 22.831L81.2114 15.6886C81.2503 15.6707 81.2926 15.6614 81.3354 15.6614C81.3783 15.6614 81.4206 15.6707 81.4595 15.6886L102.76 26.0996L125.01 15.2044C125.052 15.1836 125.099 15.1727 125.146 15.1727C125.194 15.1727 125.24 15.1836 125.282 15.2044L144.597 25.228C144.637 25.2485 144.672 25.2776 144.699 25.3132C144.726 25.3488 144.745 25.39 144.755 25.4338L155.232 75.2068C155.243 75.2609 155.239 75.317 155.221 75.3691C155.203 75.4213 155.171 75.4676 155.129 75.5034C155.097 75.5333 155.059 75.5554 155.017 75.568C154.975 75.5806 154.93 75.5834 154.887 75.576ZM132.491 65.4434C132.529 65.4344 132.569 65.4344 132.606 65.4434L154.464 74.7407L144.131 25.6759L125.107 15.8097L102.857 26.7049C102.814 26.7229 102.769 26.7322 102.723 26.7322C102.678 26.7322 102.632 26.7229 102.59 26.7049L81.3082 16.3L63.2221 23.3455L47.0306 68.8815L73.1731 62.1143C73.2343 62.096 73.2995 62.096 73.3607 62.1143L100.901 72.7977L132.491 65.4495V65.4434Z" fill="#D1D3D4"/>
<path d="M167.544 53.0715C162.52 49.6274 156.903 47.1275 151.159 45.0937C149.736 44.5913 148.223 44.1071 146.746 44.4219C145.269 44.7366 143.907 46.1348 144.204 47.6117C144.44 48.7739 145.535 49.5245 146.54 50.154L159.693 58.3859C158.975 61.1332 159.078 64.0307 159.989 66.7201C160.901 69.4095 162.58 71.7729 164.82 73.5181" fill="white"/>
<path d="M164.82 73.8571C164.754 73.8575 164.691 73.8362 164.638 73.7965C162.364 72.0466 160.65 69.6698 159.709 66.9585C158.768 64.2473 158.641 61.3201 159.342 58.5372L146.377 50.4263C145.269 49.7302 144.161 48.9433 143.907 47.6843C143.574 46.0016 145.118 44.4642 146.679 44.1373C148.241 43.8105 149.706 44.2766 151.262 44.8213C157.98 47.2062 163.21 49.7484 167.713 52.8293C167.747 52.8518 167.775 52.8806 167.797 52.9142C167.819 52.9477 167.834 52.9853 167.841 53.0247C167.849 53.0641 167.848 53.1046 167.84 53.1438C167.831 53.183 167.815 53.2201 167.792 53.253C167.77 53.286 167.742 53.3143 167.709 53.3362C167.676 53.3581 167.639 53.3732 167.6 53.3805C167.561 53.3878 167.521 53.3873 167.482 53.3789C167.443 53.3705 167.407 53.3545 167.374 53.3317C162.913 50.3052 157.726 47.757 151.062 45.3963C149.603 44.8758 148.181 44.44 146.825 44.7245C145.469 45.009 144.252 46.2316 144.519 47.5633C144.73 48.5923 145.729 49.2884 146.716 49.9118L159.857 58.1195C159.912 58.1541 159.955 58.2061 159.978 58.2674C160.001 58.3287 160.003 58.3959 159.984 58.4585C159.285 61.1505 159.388 63.9879 160.279 66.6223C161.171 69.2567 162.812 71.5735 165.002 73.2881C165.066 73.3363 165.108 73.4079 165.12 73.4874C165.131 73.5669 165.11 73.6476 165.062 73.7118C165.036 73.7535 165.001 73.7885 164.959 73.8137C164.917 73.839 164.869 73.8539 164.82 73.8571Z" fill="#231F20"/>
<path d="M125.04 43.8407C124.253 42.2488 123.497 40.7235 122.746 39.1982C120.325 34.265 117.904 29.3259 115.416 24.4109C114.467 22.6526 113.96 20.6893 113.939 18.6909C113.975 15.9953 114.99 13.4046 116.794 11.402C118.599 9.39935 121.071 8.12146 123.748 7.8066C126.426 7.49174 129.126 8.16141 131.346 9.69073C133.566 11.22 135.155 13.5046 135.814 16.1185C136.494 18.7028 136.194 21.447 134.973 23.8238L128.86 36.1959L125.264 43.4594C125.186 43.5926 125.125 43.6773 125.04 43.8407ZM125.04 24.4049C126.14 24.4085 127.217 24.0855 128.133 23.4768C129.049 22.8682 129.764 22.0013 130.187 20.9859C130.611 19.9706 130.723 18.8525 130.51 17.7732C130.297 16.694 129.769 15.7022 128.992 14.9236C128.215 14.1449 127.224 13.6143 126.146 13.3992C125.067 13.184 123.948 13.2938 122.932 13.7148C121.916 14.1357 121.047 14.8488 120.437 15.7638C119.826 16.6787 119.501 17.7544 119.502 18.8544C119.508 20.3203 120.092 21.7248 121.126 22.7637C122.16 23.8025 123.562 24.3922 125.028 24.4049H125.04Z" fill="#EE3384"/>
<path d="M78.8386 55.7528L76.5446 51.1042C74.1234 46.1771 71.7023 41.2319 69.2145 36.323C68.2655 34.5643 67.7586 32.6012 67.7376 30.603C67.7732 27.9074 68.788 25.3167 70.5928 23.314C72.3975 21.3114 74.869 20.0335 77.5465 19.7186C80.2239 19.4038 82.9244 20.0735 85.1446 21.6028C87.3647 23.1321 88.9528 25.4167 89.6128 28.0305C90.2901 30.611 89.9905 33.3507 88.7714 35.7237L82.6338 48.0959L79.0384 55.3593L78.8386 55.7528ZM78.8386 36.3169C79.9384 36.3205 81.0145 35.9977 81.9306 35.3893C82.8468 34.7809 83.5618 33.9144 83.9851 32.8994C84.4085 31.8844 84.5211 30.7666 84.3088 29.6875C84.0964 28.6085 83.5687 27.6167 82.7923 26.8378C82.0159 26.0588 81.0259 25.5278 79.9475 25.3119C78.8691 25.0961 77.751 25.205 76.7346 25.6251C75.7182 26.0451 74.8493 26.7573 74.2379 27.6714C73.6266 28.5856 73.3002 29.6606 73.3002 30.7604C73.3018 32.2295 73.8831 33.6386 74.918 34.6814C75.9528 35.7241 77.3575 36.3163 78.8265 36.329L78.8386 36.3169Z" fill="#EE3384"/>
<path d="M34.0109 53.0715C39.0348 49.6274 44.6519 47.1275 50.3961 45.0937C51.8185 44.5913 53.3318 44.1071 54.8087 44.4219C56.2856 44.7366 57.6475 46.1348 57.3509 47.6117C57.1148 48.7739 56.0193 49.5245 55.0145 50.154L41.8615 58.3859C42.5842 61.133 42.4836 64.032 41.5721 66.7224C40.6606 69.4128 38.9784 71.776 36.7347 73.5181" fill="white"/>
<path d="M36.7347 73.857C36.6878 73.8566 36.6416 73.8454 36.5997 73.8245C36.5577 73.8035 36.5211 73.7732 36.4926 73.736C36.4444 73.6718 36.4237 73.5911 36.4351 73.5116C36.4464 73.4321 36.4889 73.3604 36.5531 73.3123C38.7428 71.5977 40.3842 69.2809 41.2756 66.6465C42.167 64.012 42.2697 61.1746 41.571 58.4827C41.5455 58.4169 41.5443 58.3442 41.5676 58.2777C41.5909 58.2111 41.6372 58.155 41.6981 58.1195L54.8571 49.8876C55.8558 49.2823 56.8424 48.568 57.0543 47.539C57.3206 46.2074 56.0555 44.9787 54.7481 44.7002C53.4407 44.4218 51.9517 44.8516 50.5111 45.3721C43.8529 47.7327 38.6535 50.2568 34.1683 53.3075C34.1358 53.3302 34.0992 53.3463 34.0605 53.3547C34.0218 53.363 33.9818 53.3636 33.9428 53.3562C33.9039 53.3489 33.8668 53.3338 33.8338 53.312C33.8008 53.2901 33.7725 53.2618 33.7506 53.2288C33.7277 53.1959 33.7115 53.1588 33.7031 53.1196C33.6946 53.0804 33.694 53.0399 33.7013 53.0005C33.7087 52.961 33.7238 52.9235 33.7457 52.8899C33.7677 52.8564 33.7961 52.8275 33.8293 52.8051C38.3448 49.7362 43.5745 47.2243 50.2932 44.8031C51.8367 44.2584 53.3196 43.7984 54.8752 44.1192C56.4308 44.44 57.9804 45.9834 57.6474 47.6662C57.3932 48.9252 56.2855 49.712 55.1779 50.4081L42.2126 58.519C42.914 61.3019 42.7864 64.2291 41.8453 66.9403C40.9043 69.6516 39.191 72.0285 36.9163 73.7783C36.8665 73.8246 36.8024 73.8524 36.7347 73.857Z" fill="#231F20"/>
<path d="M40.3361 26.4447C40.2704 26.4461 40.2062 26.4247 40.1545 26.3841L29.4227 18.1704C29.3855 18.1489 29.3533 18.1198 29.3282 18.0849C29.3031 18.05 29.2857 18.0102 29.2772 17.968C29.2688 17.9259 29.2693 17.8825 29.2789 17.8406C29.2885 17.7987 29.3069 17.7594 29.3329 17.7251C29.3589 17.6909 29.3919 17.6626 29.4296 17.6422C29.4674 17.6217 29.5091 17.6095 29.552 17.6063C29.5948 17.6032 29.6378 17.6093 29.6782 17.6241C29.7185 17.6389 29.7552 17.6621 29.7859 17.6922L40.5177 25.8757C40.5685 25.9138 40.606 25.9669 40.625 26.0276C40.6439 26.0882 40.6433 26.1533 40.6232 26.2135C40.6031 26.2738 40.5646 26.3262 40.5131 26.3633C40.4615 26.4005 40.3996 26.4205 40.3361 26.4205V26.4447Z" fill="#D1D3D4"/>
<path d="M97.1426 6.73034C97.0692 6.73106 96.998 6.70506 96.9423 6.65717C96.8866 6.60929 96.8502 6.54278 96.84 6.47007L96.0773 0.344536C96.0669 0.264269 96.0887 0.183147 96.1381 0.119011C96.1875 0.0548761 96.2603 0.0129825 96.3406 0.00254789C96.4209 -0.00788674 96.502 0.0139907 96.5661 0.0633692C96.6303 0.112748 96.6721 0.185581 96.6826 0.265847L97.4392 6.39138C97.4451 6.43083 97.4431 6.47108 97.4331 6.50972C97.4231 6.54835 97.4055 6.58458 97.3812 6.61623C97.3569 6.64787 97.3264 6.67429 97.2917 6.6939C97.2569 6.71351 97.2186 6.7259 97.1789 6.73034H97.1426Z" fill="#D1D3D4"/>
<path d="M167.205 31.7653C167.158 31.7648 167.112 31.7537 167.07 31.7327C167.028 31.7117 166.991 31.6815 166.963 31.6442C166.914 31.5807 166.892 31.5005 166.902 31.4211C166.913 31.3417 166.954 31.2696 167.017 31.2205L178.264 22.3591C178.327 22.3093 178.408 22.2868 178.488 22.2964C178.568 22.3061 178.64 22.3471 178.69 22.4105C178.74 22.4739 178.763 22.5545 178.753 22.6345C178.743 22.7146 178.702 22.7875 178.639 22.8372L167.393 31.6987C167.338 31.7392 167.273 31.7624 167.205 31.7653Z" fill="#D1D3D4"/>
<path d="M143.532 10.5013C143.479 10.5015 143.427 10.4891 143.381 10.465C143.312 10.4234 143.261 10.3564 143.241 10.2783C143.221 10.2003 143.232 10.1174 143.272 10.0473L145.996 5.27763C146.015 5.24305 146.042 5.21273 146.073 5.18839C146.105 5.16405 146.141 5.14617 146.18 5.13577C146.218 5.12537 146.258 5.12266 146.298 5.12779C146.337 5.13291 146.376 5.14578 146.41 5.16565C146.445 5.18553 146.475 5.21201 146.499 5.24361C146.524 5.2752 146.542 5.31127 146.552 5.34977C146.562 5.38828 146.565 5.42845 146.56 5.468C146.555 5.50755 146.542 5.5457 146.522 5.58028L143.792 10.35C143.766 10.3957 143.728 10.4337 143.682 10.4603C143.637 10.4868 143.585 10.501 143.532 10.5013Z" fill="#D1D3D4"/>
<path d="M48.7013 102.366C48.6361 102.365 48.5728 102.343 48.5197 102.306C48.4551 102.256 48.4125 102.184 48.4012 102.103C48.3898 102.023 48.4107 101.941 48.4592 101.876L58.3435 88.9287C58.3917 88.8645 58.4634 88.822 58.5428 88.8107C58.6223 88.7993 58.703 88.82 58.7672 88.8682C58.8301 88.9173 58.8716 88.9888 58.8828 89.0678C58.8941 89.1468 58.8744 89.2271 58.8278 89.2919L48.9615 102.245C48.9312 102.285 48.8917 102.317 48.8463 102.338C48.801 102.359 48.7512 102.369 48.7013 102.366Z" fill="#D1D3D4"/>
<path d="M145.505 99.6364C145.461 99.6368 145.417 99.6279 145.376 99.6102C145.336 99.5924 145.299 99.5663 145.269 99.5335L134.374 86.5803C134.322 86.5185 134.296 86.4385 134.303 86.3579C134.31 86.2773 134.348 86.2027 134.41 86.1505C134.472 86.0983 134.552 86.0729 134.633 86.0797C134.713 86.0865 134.788 86.125 134.84 86.1868L145.735 99.14C145.787 99.2022 145.811 99.282 145.805 99.3623C145.798 99.4426 145.76 99.5171 145.699 99.5698C145.643 99.6114 145.575 99.6347 145.505 99.6364Z" fill="#D1D3D4"/>
<path d="M94.3582 98.2743C94.2783 98.2622 94.2063 98.2194 94.1577 98.1549C94.109 98.0904 94.0876 98.0094 94.098 97.9292L95.1209 90.4297C95.1329 90.3514 95.1751 90.2809 95.2385 90.2334C95.3018 90.1859 95.3813 90.1651 95.4599 90.1755C95.4995 90.1799 95.5379 90.1923 95.5726 90.2119C95.6074 90.2315 95.6378 90.2579 95.6621 90.2896C95.6864 90.3212 95.7041 90.3575 95.714 90.3961C95.724 90.4347 95.7261 90.475 95.7201 90.5144L94.6972 98.014C94.6867 98.0934 94.645 98.1654 94.5815 98.2142C94.518 98.263 94.4377 98.2846 94.3582 98.2743Z" fill="#D1D3D4"/>
<path d="M32.0134 92.8208C31.9459 92.8221 31.8798 92.8008 31.8258 92.7603L14.8777 79.9705C14.8135 79.9223 14.771 79.8506 14.7597 79.7712C14.7483 79.6917 14.769 79.611 14.8172 79.5468C14.8663 79.4839 14.9378 79.4425 15.0168 79.4312C15.0958 79.4199 15.1761 79.4396 15.2409 79.4863L32.189 92.276C32.2398 92.3141 32.2773 92.3673 32.2963 92.4279C32.3152 92.4885 32.3146 92.5536 32.2945 92.6139C32.2744 92.6741 32.2359 92.7265 32.1843 92.7637C32.1328 92.8008 32.0709 92.8208 32.0074 92.8208H32.0134Z" fill="white"/>
<path d="M169.705 93.5047C169.639 93.5045 169.576 93.4833 169.524 93.4441C169.472 93.4049 169.433 93.3499 169.415 93.2873C169.397 93.2247 169.399 93.1578 169.422 93.0966C169.445 93.0354 169.486 92.9833 169.541 92.9478L185.787 82.6034C185.856 82.5623 185.938 82.5495 186.016 82.5675C186.094 82.5856 186.161 82.6332 186.205 82.7003C186.248 82.7677 186.263 82.8496 186.246 82.9279C186.229 83.0062 186.181 83.0745 186.114 83.1179L169.868 93.4563C169.819 93.4861 169.762 93.5028 169.705 93.5047Z" fill="white"/>
</svg>
