<svg width="201" height="132" viewBox="0 0 201 132" fill="none" xmlns="http://www.w3.org/2000/svg">
<mask id="mask0" mask-type="alpha" maskUnits="userSpaceOnUse" x="0" y="0" width="201" height="132">
<rect x="0.0893555" y="0.518982" width="200.412" height="131.463" fill="#C4C4C4"/>
</mask>
<g mask="url(#mask0)">
<path d="M48.4877 91.677H62.1006C65.5013 91.677 68.2464 89.4389 68.2464 86.6835C68.2464 84.1228 65.8854 82.0281 62.8432 81.7259C62.924 81.3905 62.9652 81.0467 62.9662 80.7016C62.9662 77.8029 60.0725 75.4573 56.5029 75.4573C55.5488 75.4537 54.6023 75.6274 53.7116 75.9694C53.7116 75.9131 53.7116 75.8516 53.7116 75.7953C53.7116 72.8965 50.818 70.5509 47.2483 70.5509C44.6005 70.5509 42.3266 71.8415 41.3279 73.6903C40.6217 73.5765 39.9075 73.52 39.1923 73.5213C33.4921 73.5213 28.8315 77.1064 28.473 81.6747C25.1133 81.7106 22.3989 83.9282 22.3989 86.6682C22.3989 89.4082 25.1594 91.6616 28.5447 91.6616" fill="white"/>
<path d="M62.1005 91.9331H48.4876C48.4197 91.9331 48.3546 91.9061 48.3065 91.8581C48.2585 91.81 48.2315 91.7449 48.2315 91.677C48.2315 91.6091 48.2585 91.5439 48.3065 91.4959C48.3546 91.4479 48.4197 91.4209 48.4876 91.4209H62.1005C65.3526 91.4209 68.0004 89.2955 68.0004 86.6835C68.0004 84.2969 65.7777 82.274 62.8277 81.982C62.7908 81.9795 62.755 81.9685 62.723 81.9498C62.691 81.9312 62.6638 81.9054 62.6434 81.8745C62.6231 81.8449 62.609 81.8114 62.602 81.7762C62.5949 81.741 62.5951 81.7048 62.6024 81.6696C62.6787 81.356 62.7183 81.0346 62.7202 80.7119C62.7202 77.9617 59.9341 75.7236 56.513 75.7236C55.5892 75.7245 54.6738 75.8982 53.8139 76.2357C53.7745 76.2514 53.7317 76.2568 53.6896 76.2514C53.6475 76.246 53.6075 76.2301 53.5732 76.205C53.539 76.1796 53.5113 76.1463 53.4926 76.108C53.4739 76.0697 53.4647 76.0274 53.4657 75.9848V75.9028C53.4681 75.8756 53.4681 75.8482 53.4657 75.8209C53.4657 73.0707 50.6847 70.8326 47.2584 70.8326C44.7848 70.8326 42.5518 72.0105 41.5634 73.8389C41.5384 73.8861 41.4993 73.9243 41.4515 73.9481C41.4038 73.972 41.3498 73.9804 41.297 73.972C40.6045 73.8592 39.904 73.8027 39.2024 73.803C33.6814 73.803 29.0874 77.2805 28.7392 81.7208C28.7353 81.7847 28.7071 81.8446 28.6605 81.8884C28.6138 81.9322 28.5522 81.9565 28.4882 81.9564C25.2771 81.9923 22.6651 84.1177 22.6651 86.6938C22.6651 89.2699 25.3129 91.4312 28.5702 91.4312C28.6381 91.4312 28.7032 91.4581 28.7512 91.5062C28.7993 91.5542 28.8262 91.6193 28.8262 91.6872C28.8262 91.7551 28.7993 91.8203 28.7512 91.8683C28.7032 91.9163 28.6381 91.9433 28.5702 91.9433C25.0312 91.9433 22.153 89.5874 22.153 86.6938C22.153 83.8975 24.8673 81.5723 28.2526 81.4494C28.7648 76.8401 33.5124 73.2909 39.2024 73.2909C39.8727 73.289 40.5421 73.3387 41.2049 73.4394C42.3213 71.5393 44.6721 70.3204 47.2584 70.3204C50.8896 70.3204 53.8549 72.6865 53.9778 75.6263C54.7924 75.3572 55.6449 75.2206 56.5027 75.2217C60.2055 75.2217 63.2221 77.6902 63.2221 80.7221C63.2209 80.9883 63.1969 81.2539 63.1504 81.516C66.2233 81.9359 68.5023 84.1177 68.5023 86.6938C68.5126 89.5772 65.6343 91.9331 62.1005 91.9331Z" fill="#D1D3D4"/>
<path d="M105.377 122.252C134.779 122.252 158.615 98.4169 158.615 69.0144C158.615 39.612 134.779 15.7767 105.377 15.7767C75.9746 15.7767 52.1393 39.612 52.1393 69.0144C52.1393 98.4169 75.9746 122.252 105.377 122.252Z" fill="white"/>
<path d="M105.377 15.787C115.913 15.7819 126.213 18.9014 134.976 24.751C143.738 30.6006 150.569 38.9174 154.604 48.6496C158.64 58.3817 159.698 69.092 157.646 79.4258C155.593 89.7596 150.523 99.2526 143.075 106.704C135.627 114.156 126.136 119.231 115.803 121.288C105.47 123.346 94.7597 122.292 85.0256 118.262C75.2915 114.231 66.9714 107.404 61.1176 98.6446C55.2638 89.8849 52.1393 79.5859 52.1393 69.0503C52.1393 54.924 57.7509 41.3763 67.7398 31.3874C77.7286 21.3986 91.2763 15.787 105.403 15.787H105.377ZM105.403 15.3209C94.7783 15.3158 84.3911 18.4619 75.555 24.3611C66.7189 30.2603 59.8309 38.6477 55.7623 48.4621C51.6938 58.2766 50.6274 69.0773 52.6981 79.4979C54.7688 89.9185 59.8836 99.4909 67.3955 107.004C74.9073 114.517 84.4787 119.634 94.899 121.707C105.319 123.78 116.12 122.715 125.935 118.648C135.751 114.582 144.139 107.695 150.04 98.8604C155.941 90.0255 159.089 79.6389 159.086 69.0145C159.068 54.7754 153.404 41.1246 143.336 31.056C133.267 20.9874 119.616 15.3232 105.377 15.3055L105.403 15.3209Z" fill="#231F20"/>
<path d="M145.299 33.7889C144.908 33.9389 144.481 33.9657 144.075 33.8658L144.787 33.2C143.824 32.1398 142.81 31.1206 141.765 30.1271C141.793 30.5199 141.918 30.8996 142.128 31.2328C142.338 31.566 142.626 31.8423 142.969 32.0374C141.842 32.104 140.966 31.433 139.983 31.136C138.809 30.8488 137.621 30.6265 136.423 30.4702L138.19 31.7352C137.855 31.8626 137.513 31.9704 137.166 32.0579C136.838 31.346 136.408 31.9247 136.024 31.9042C135.153 31.853 134.201 32.8722 133.54 31.8172C133.229 31.8559 132.922 31.9228 132.623 32.0169C131.805 32.275 131.025 32.6401 130.303 33.1026C129.504 33.748 129.253 33.8197 128.634 32.8722L129.448 32.5905V32.2576L127.794 31.9042C127.728 32.2949 127.704 32.6915 127.722 33.0873C127.792 33.3383 127.905 33.5756 128.055 33.7889C127.568 33.8314 127.083 33.905 126.605 34.0092C126.15 34.17 125.704 34.3564 125.269 34.5674L125.668 35.392L123.461 35.0334L123.435 35.2485L124.285 35.8017C123.015 36.1807 122.237 35.52 122.237 34.2243L121.156 33.6455C121.542 33.6114 121.931 33.6585 122.298 33.7838C123.492 34.0501 124.7 34.3472 125.883 33.748C126.488 33.4407 126.457 33.0053 125.883 32.7237C125.175 32.3356 124.431 32.0182 123.661 31.7762C122.314 31.3921 120.936 31.1258 119.563 30.8082C119.63 30.7058 119.707 30.5778 119.789 30.4548C119.155 30.2738 118.51 30.1369 117.858 30.0451C117.462 30.1001 117.079 30.225 116.726 30.4139C116.839 30.1783 116.905 30.0246 117.064 29.6866C116.419 29.9888 115.902 30.46 115.528 30.3729C114.672 30.1783 113.991 30.8441 113.136 30.6699C112.624 30.5726 111.968 31.3204 111.6 31.556C111.194 31.6048 110.794 31.6941 110.406 31.8223C110.042 32.0528 109.7 32.315 109.382 32.6059L110.734 32.2781C110.125 33.0361 109.469 33.9272 108.732 34.7415C108.219 35.3049 107.676 36.0321 107.016 36.2114C106.114 36.4826 105.285 36.9554 104.593 37.5942C104.462 37.7377 104.361 37.9068 104.298 38.091C104.234 38.2752 104.209 38.4704 104.225 38.6646C104.313 39.2309 104.47 39.7846 104.691 40.3137C104.812 40.6011 105.039 40.8314 105.324 40.9579C105.61 41.0844 105.932 41.0976 106.227 40.9948C106.739 40.7337 107.426 40.0935 107.764 40.242C108.24 40.4622 108.47 41.2304 108.788 41.7784C108.854 41.8911 108.911 42.0089 108.967 42.1216C109.269 42.7515 109.233 44.2316 110.411 42.7054C111.364 42.9103 111.369 42.1318 111.436 41.5992C111.438 41.3388 111.506 41.0834 111.634 40.8567C111.763 40.6301 111.946 40.4397 112.168 40.3035C112.305 40.2559 112.425 40.1689 112.513 40.0533C112.601 39.9377 112.653 39.7988 112.663 39.6538C112.672 39.5088 112.638 39.3644 112.566 39.2385C112.493 39.1126 112.385 39.0109 112.255 38.9463C111.523 38.4341 111.441 37.922 112.071 37.2613C112.409 36.9028 112.916 36.7082 113.285 36.3702C113.653 36.0321 113.853 35.5814 114.222 35.2895C114.641 34.927 115.129 34.6519 115.656 34.4803C115.958 34.3984 116.357 34.6801 116.798 34.8235C115.927 35.5097 115.261 36.0168 114.631 36.534C114.273 36.8208 113.848 38.5826 114.176 38.7619C114.778 39.1255 115.456 39.3463 116.158 39.4072C116.772 39.443 117.402 39.0999 118.032 39.0128C118.346 39.0236 118.655 39.0859 118.949 39.1972V39.5864C118.396 39.6377 117.848 39.6837 117.3 39.7401C116.865 39.7626 116.432 39.8139 116.004 39.8937C115.415 40.0218 115.338 40.4059 115.748 40.79C116.26 41.3021 116.117 41.635 115.676 42.0243C114.565 41.1178 114.319 41.2099 114.058 42.6132C114.027 42.9386 114.027 43.2661 114.058 43.5914C113.607 43.7861 113.034 44.2367 112.772 44.1036C111.61 43.5453 110.836 44.5799 109.807 44.6567C109.495 43.8475 108.911 44.3443 108.378 44.3545C108.019 44.3104 107.685 44.1503 107.426 43.8987C107.282 43.7758 107.185 43.3354 107.277 43.2381C107.5 43.0045 107.648 42.709 107.701 42.3902C107.754 42.0713 107.71 41.7439 107.574 41.4507C106.171 42.2189 106.181 42.2189 106.509 43.6529C106.561 43.9469 106.579 44.2458 106.565 44.544L104.486 45.3737C103.82 46.0344 103.344 46.5107 102.862 46.9767C102.693 47.1457 102.437 47.2533 102.35 47.4479C102.271 47.6402 102.153 47.8143 102.005 47.9598C101.856 48.1053 101.679 48.2191 101.485 48.2942C101.291 48.3694 101.084 48.4044 100.876 48.3972C100.668 48.3899 100.464 48.3405 100.276 48.252C100.312 48.5388 100.348 48.8153 100.384 49.1226L98.5398 49.0407C99.0695 49.7124 99.6463 50.3456 100.266 50.9356C101.003 51.7807 100.399 52.6821 100.266 53.5425C98.7293 53.6654 97.1621 52.9484 95.6564 53.8549C96.5065 55.5859 95.0828 57.3836 96.1071 59.0788L97.1314 58.9559C97.3874 59.2939 97.6128 59.5909 97.7357 59.7599C99.2721 59.3963 100.809 59.1761 101.254 57.8343C101.254 57.3221 101.136 56.9329 101.254 56.7383C101.613 56.2261 102.094 55.842 102.494 55.3811C102.765 55.0687 103.211 54.7102 103.195 54.3926C103.144 53.3939 103.743 53.4503 104.291 53.6705C104.524 53.7967 104.792 53.84 105.053 53.7935C105.314 53.747 105.551 53.6133 105.725 53.4144C106.072 53.139 106.438 52.8891 106.821 52.6667C107.082 52.9996 107.333 53.3581 107.63 53.691C108.082 54.2975 108.597 54.8538 109.167 55.3504C110.191 56.0827 111.369 56.6205 110.939 58.2542L111.656 57.2709L111.323 56.1032L112.475 56.6154C112.439 56.4259 112.475 56.2927 112.404 56.262C111.722 55.8113 111.313 55.0021 110.427 54.8075C110.162 54.6914 109.941 54.4964 109.792 54.2492C109.53 53.9061 109.361 53.4913 109.09 53.1584C108.409 52.3338 108.532 51.8934 109.464 51.6219C109.545 51.8324 109.651 52.032 109.781 52.216C109.884 52.3287 110.201 52.3184 110.227 52.4157C110.473 53.3427 111.251 53.6193 111.979 54.0495C112.419 54.3209 113.003 54.8433 113.003 55.253C113.003 57.1275 114.345 58.2747 115 59.7599C115.289 59.3397 115.543 58.896 115.758 58.4335C115.832 58.1365 115.8 57.8229 115.666 57.5475C115.443 57.1261 115.192 56.7205 114.913 56.3337C115.338 56.3593 115.727 56.4976 115.876 56.3695C116.603 55.714 116.583 55.6935 117.213 56.0571C117.161 56.7434 117.115 57.3221 117.08 57.8343C117.361 58.2542 117.592 58.8944 117.981 59.0839C118.493 59.3144 118.908 60.1953 119.779 59.4271C120.05 59.1863 120.967 59.6729 121.586 59.8214C121.619 59.8219 121.651 59.813 121.679 59.7958L123.256 59.0737C122.928 60.5179 122.672 61.6651 122.411 62.8124C122.242 63.5498 121.96 64.103 121.033 64.1286C120.675 64.1286 120.327 64.5229 120.147 64.6407L121.592 66.1772L120.875 66.7098C120.905 66.8071 120.936 66.8993 120.972 66.9915L122.36 66.5715C122.549 66.9095 122.816 67.3295 123.036 67.7751C123.41 68.5279 123.763 69.3115 124.101 70.0644C124.373 70.6841 124.613 71.314 124.864 71.9491C125.038 72.41 125.11 72.9119 125.325 73.3472C125.6 73.8434 125.908 74.3208 126.247 74.7761C127.2 76.1589 127.174 77.7927 127.451 79.3496C127.548 79.8976 127.783 80.1025 128.29 79.8618C129.204 79.4388 130.093 78.9652 130.954 78.4431C131.86 77.849 132.623 77.0398 133.555 76.4918C134.42 76.0556 135.182 75.4391 135.788 74.6839C135.947 74.4586 136.07 74.2076 136.218 73.9721C136.344 73.7182 136.495 73.478 136.669 73.255C137.74 72.0771 137.519 71.0374 136.09 70.3358C135.801 70.1568 135.585 69.8809 135.481 69.5573C135.392 69.1432 135.346 68.721 135.343 68.2975C134.939 68.7259 134.577 69.1925 134.262 69.6905C133.852 70.5048 133.197 70.008 132.654 70.1156C132.598 69.7776 132.546 69.4344 132.48 69.0913C132.439 68.8711 132.388 68.6508 132.275 68.1643L131.901 69.0503L130.262 65.5472C131.138 64.569 131.322 64.5895 131.937 65.7777C132.024 65.9435 132.101 66.1145 132.167 66.2898C132.279 66.62 132.461 66.922 132.701 67.1751C132.941 67.4283 133.232 67.6266 133.556 67.7565C133.879 67.8864 134.227 67.9448 134.575 67.9277C134.924 67.9105 135.264 67.8183 135.573 67.6573C136.029 68.7891 136.121 68.9325 137.417 69.0145C138.713 69.0964 140.07 69.0145 141.253 69.0145L143.424 71.483L142.805 71.7391L144.234 72.9785L144.971 72.0822C145.304 73.8799 145.586 75.9643 146.103 77.9975C146.552 80.0583 147.205 82.0691 148.054 83.9999C149.291 82.5536 149.913 80.6801 149.785 78.7811C149.711 78.313 149.771 77.8333 149.959 77.3983C150.42 76.7172 151.173 76.2357 151.614 75.5495C152.295 74.4842 153.662 73.9413 153.898 72.5483C153.929 72.369 154.313 72.1949 154.564 72.1334C155.255 71.9542 155.967 71.8313 156.694 71.6828C156.782 72.2188 156.955 72.7374 157.206 73.2192C157.636 73.7865 157.996 74.4039 158.277 75.0578C159.121 67.6538 158.402 60.1552 156.166 53.0464C153.931 45.9377 150.229 39.3772 145.299 33.7889Z" fill="#EE3384"/>
<path d="M71.5087 110.089C71.6709 109.752 71.7748 109.39 71.816 109.018C71.8826 108.117 72.1796 107.513 72.9274 107.169C73.8032 106.77 74.7353 106.504 75.6366 106.145C75.847 106.089 76.0348 105.969 76.1744 105.802C76.6368 105.068 77.0034 104.278 77.2653 103.451C77.4708 102.3 77.6042 101.137 77.6647 99.9687C77.6619 99.8399 77.6881 99.7121 77.7416 99.5948C78.2025 98.9956 78.7351 98.4425 79.1449 97.8074C79.5546 97.1724 80.2409 96.3427 80.2818 95.5796C80.3088 95.357 80.2898 95.1312 80.226 94.9162C80.1622 94.7013 80.055 94.5017 79.911 94.3298C79.767 94.158 79.5892 94.0175 79.3887 93.9171C79.1882 93.8167 78.9693 93.7585 78.7454 93.7461C78.5903 93.7014 78.4572 93.6011 78.3715 93.4644C77.3472 92.0611 75.8108 92.3735 74.3716 92.3479C74.4997 91.7436 74.1924 91.549 73.5624 91.4056C72.0977 91.0676 70.9249 90.3813 70.4896 88.727C70.044 86.9806 69.1836 86.4941 67.3603 86.3916C66.8134 86.2796 66.303 86.0331 65.8751 85.6746C65.5264 85.3899 65.2072 85.0708 64.9225 84.722C64.7834 84.5356 64.6255 84.364 64.4513 84.2099C63.9392 83.8616 63.5858 83.1139 62.9149 83.2573C62.244 83.4007 61.4911 83.5902 60.7792 83.2573C60.0673 82.9244 59.4937 82.653 58.7306 82.2893L58.0188 84.2355C57.5066 83.4724 58.0188 82.7247 58.1417 81.9308C56.723 82.8066 55.0688 83.3034 54.7564 85.2393L54.6642 85.183C57.7707 94.9303 63.6186 103.577 71.5087 110.089Z" fill="#EE3384"/>
<path d="M60.8253 51.6936C62.6127 52.1033 63.9442 51.1815 65.3731 50.5105C65.5065 50.4459 65.6225 50.3504 65.7116 50.2319C65.8007 50.1135 65.8602 49.9755 65.8853 49.8294C65.8632 49.6565 65.8065 49.4898 65.7185 49.3393C65.6305 49.1888 65.513 49.0576 65.3731 48.9536C64.9724 48.7896 64.5495 48.6861 64.1184 48.6463C64.3335 48.508 64.5793 48.3442 64.6766 48.2878C63.9538 47.9285 63.2677 47.4997 62.628 47.0075C62.3156 46.7258 62.418 46.0395 62.1773 45.6247C61.7374 44.9171 61.2604 44.2333 60.7484 43.5761C60.267 44.247 60.139 45.4608 58.9713 45.1688C58.6107 45.095 58.294 44.8814 58.0904 44.5748C54.8054 50.9245 52.8419 57.8744 52.3185 65.0043C52.5019 64.8074 52.7102 64.6353 52.9382 64.4922C54.3927 63.6574 54.4746 63.3962 54.1059 61.7163C54.0508 61.1697 54.0508 60.619 54.1059 60.0723C54.2595 60.6408 54.3671 61.0557 54.4746 61.4756C54.8229 60.8662 55.3197 60.3643 55.3658 59.8265C55.4528 58.8688 55.9291 58.6537 56.7383 58.6383C57.0586 58.6026 57.3744 58.5339 57.6807 58.4335L57.4092 58.3106C57.4604 57.8343 57.3375 57.107 57.5936 56.938C58.6096 56.3288 59.6614 55.7815 60.7433 55.2991L60.057 56.7792L60.2977 56.8356L63.6369 55.0533C63.5857 54.9662 63.5396 54.8792 63.4884 54.7972L63.0736 55.0328L63.3041 54.2492C63.2308 54.2512 63.1593 54.272 63.0965 54.3097C63.0337 54.3473 62.9817 54.4006 62.9456 54.4643C62.3412 55.3606 62.0186 55.4323 61.1172 54.787C60.4463 54.3056 60.2004 53.7627 60.9174 53.0713C60.984 53.0098 60.8099 52.5233 60.7228 52.513C60.3468 52.4728 59.9666 52.5023 59.6012 52.6001C59.1139 52.7686 58.6368 52.9653 58.1723 53.1891C58.9047 52.4721 59.678 51.4324 60.8253 51.6936Z" fill="#EE3384"/>
<path d="M106.862 87.8871C107.113 88.3014 107.203 88.7938 107.113 89.2699C106.698 90.6834 106.688 91.8665 107.84 93.0495C108.326 93.5686 108.699 94.1833 108.934 94.8543C109.17 95.5253 109.263 96.238 109.208 96.947C109.195 97.1413 109.243 97.3347 109.346 97.5001C109.817 98.13 109.531 98.5858 109.218 99.226C108.532 100.64 107.871 102.089 108.844 103.748C109.418 104.726 110.048 105.7 110.094 106.995C110.065 108.232 110.502 109.435 111.318 110.365C111.83 110.918 112.342 111.82 112.271 112.506C112.211 112.856 112.268 113.216 112.431 113.531C112.595 113.846 112.857 114.099 113.177 114.252C113.47 114.122 113.775 114.02 114.089 113.95C114.967 113.926 115.842 113.834 116.706 113.674C118.872 113.049 119.937 111.19 121.038 109.438C121.243 109.116 121.11 108.583 121.146 107.963C121.274 107.892 121.571 107.707 121.884 107.559C122.073 107.498 122.248 107.398 122.397 107.266C122.546 107.133 122.665 106.971 122.748 106.79C122.83 106.608 122.874 106.412 122.876 106.213C122.878 106.013 122.838 105.816 122.759 105.633C122.662 105.295 122.498 104.972 122.416 104.609C122.37 104.419 122.344 104.097 122.447 104.02C123.169 103.359 123.983 102.77 124.67 102.099C125.131 101.659 125.74 101.172 125.858 100.619C125.97 99.7648 125.927 98.8971 125.73 98.0583C125.638 97.4898 125.259 96.9675 125.156 96.3938C125.054 95.8202 125.458 95.0469 124.793 94.4938C124.711 94.4272 124.752 94.0841 124.849 93.9509C125.93 92.4605 126.8 90.6988 128.183 89.5772C130.016 88.0919 130.933 86.1406 131.942 84.1842C132.149 83.5932 132.271 82.976 132.306 82.3508C130.908 82.7041 129.668 83.0473 128.413 83.3238C128.279 83.3285 128.146 83.3007 128.024 83.2427C127.903 83.1848 127.798 83.0984 127.717 82.9909C127.507 82.6376 127.538 82.1203 127.287 81.8181C126.831 81.2599 126.221 80.8245 125.714 80.2817C125.422 80.0095 125.191 79.6777 125.038 79.3086C124.624 78.0385 123.676 77.0295 123.528 75.5904C123.435 74.7044 122.621 73.9106 122.216 73.0297C121.704 71.9416 121.254 70.825 120.869 69.6853C120.588 68.8505 120.117 68.9222 119.451 69.1015C118.957 69.2689 118.428 69.3077 117.914 69.2142C116.92 68.9259 115.942 68.5839 114.985 68.1899C114.124 67.8621 113.448 68.236 113.356 69.1066C113.3 69.7366 113.028 70.0797 112.424 69.6188C111.82 69.1578 110.637 69.4139 110.422 68.2872C110.422 68.2462 110.191 68.2872 110.089 68.2308C109.177 67.8365 107.938 68.3384 107.426 67.3704C107.677 66.6381 107.881 66.0235 108.107 65.3526C107.691 65.2602 107.267 65.2019 106.842 65.1784C105.736 65.2194 104.629 65.2553 103.538 65.4038C102.754 65.5071 101.987 65.7102 101.254 66.0081C100.092 66.4844 98.97 66.9095 97.9253 66.0696C97.4131 66.6329 97.0034 67.2885 96.4247 67.606C96.0945 67.7702 95.8172 68.0239 95.6243 68.3381C95.4314 68.6523 95.3307 69.0145 95.3338 69.3832C95.3338 70.556 94.7192 70.9657 93.7973 71.2525C93.561 71.3199 93.3537 71.464 93.2084 71.6622C92.6604 72.5534 92.1124 73.4496 91.6412 74.3869C91.3134 75.0424 90.7091 75.6006 91.3134 76.5635C91.6668 77.1166 91.6054 78.0999 91.38 78.8016C91.0945 79.7927 91.0229 80.8331 91.17 81.854C91.2364 82.0861 91.3658 82.2953 91.5439 82.4583C91.6822 82.6222 91.8973 82.7297 92.0151 82.8987C92.5194 83.741 93.0771 84.5501 93.6847 85.3212C94.3858 85.9845 95.1245 86.607 95.8971 87.1854C96.1002 87.3599 96.349 87.4725 96.6141 87.5097C96.8792 87.5469 97.1494 87.5072 97.3926 87.3954C98.1879 87.244 98.9953 87.1652 99.8048 87.1598C100.118 87.1475 100.429 87.1012 100.732 87.0215C101.347 86.7661 101.974 86.5422 102.611 86.3506C103.252 86.2123 104.148 85.8078 104.43 86.7706C104.701 87.6412 105.193 87.6105 105.889 87.5439C106.067 87.5268 106.246 87.5487 106.414 87.608C106.582 87.6672 106.735 87.7625 106.862 87.8871Z" fill="#EE3384"/>
<path d="M66.5869 32.5649C66.7666 32.5029 66.9384 32.4204 67.0991 32.319L68.6355 33.4099L66.6381 33.1231L66.592 33.4201L68.5024 34.1372V35.0795L66.254 36.2728L67.3039 37.1025C67.2513 37.38 67.2513 37.6649 67.3039 37.9424C68.0261 39.4276 68.7636 40.9077 69.5471 42.3571C69.7687 42.7281 70.0828 43.0352 70.4588 43.2483C71.0004 43.5296 71.5578 43.7792 72.1284 43.996C72.5586 44.1855 72.958 44.4006 73.0861 43.6529C73.2141 42.9051 73.4036 42.2445 73.5726 41.5428C73.6034 41.4148 73.6494 41.2355 73.7468 41.1894C74.5355 40.7797 74.6789 40.1139 74.6737 39.2945C74.6737 39.0282 75.1347 38.5109 75.3447 38.5314C76.8811 38.6748 77.8695 37.8861 78.7043 36.7286C78.9348 36.406 79.324 36.0116 79.6621 35.986C81.7107 35.8631 83.4059 34.9617 85.2137 33.9374L82.781 33.6813L83.4366 32.8926L85.3674 33.7018C85.5108 32.6775 85.1523 32.2268 84.4097 31.9349C83.58 31.6123 83.498 31.1667 83.9283 30.588H86.1561L85.5364 29.8197L86.9653 29.6149L86.3353 28.9593C87.4467 28.2014 85.9871 27.8224 86.0742 27.2488L87.4621 27.1617C87.206 26.7776 87.0677 26.3167 86.7809 26.1886C86.3282 26.0819 85.8616 26.0474 85.3981 26.0862C86.6836 24.1656 88.8654 23.5254 90.8679 22.5933C90.3306 22.3038 89.7372 22.1337 89.1281 22.0948C88.5191 22.0559 87.9088 22.1491 87.3392 22.368C86.3054 22.6517 85.2528 22.8622 84.1894 22.9979L84.7016 22.2144C84.2919 22.2604 83.8822 22.3117 83.4673 22.3475C83.242 22.3475 83.0115 22.3475 82.781 22.3475L82.7503 21.9532L85.2547 21.5332C84.4045 21.3027 83.5902 20.9801 82.7708 20.8162C76.6852 23.6795 71.1945 27.6654 66.5869 32.5649Z" fill="#EE3384"/>
<path d="M59.8061 41.4712C59.7036 41.6402 59.6063 41.8143 59.5039 41.9833C59.7088 42.0499 59.9136 42.1216 60.1185 42.2035L59.8061 41.4712Z" fill="#EE3384"/>
<path d="M62.7152 37.2203H62.6844C62.5257 37.4303 62.372 37.6403 62.2184 37.8554C62.3874 37.6351 62.5513 37.4252 62.7152 37.2203Z" fill="#EE3384"/>
<path d="M60.7383 41.1843C60.8117 40.8197 60.7906 40.4424 60.6768 40.0883C60.4566 40.4314 60.2415 40.7695 60.0264 41.1126L60.7383 41.1843Z" fill="#EE3384"/>
<path d="M127.712 104.993C127.374 105.72 127.471 107.118 128.055 107.615C128.187 107.734 128.346 107.818 128.518 107.861C128.691 107.903 128.871 107.902 129.043 107.858C129.215 107.814 129.373 107.728 129.503 107.608C129.634 107.488 129.733 107.337 129.791 107.169C130.344 105.336 130.815 103.487 131.328 101.643C131.369 101.505 131.328 101.326 131.425 101.218C131.648 100.881 131.741 100.475 131.686 100.074C131.632 99.6735 131.433 99.3066 131.128 99.0417C130.057 99.8407 129.945 101.602 128.019 101.515C128.019 102.14 128.06 102.719 128.019 103.293C128.012 103.873 127.909 104.447 127.712 104.993Z" fill="#EE3384"/>
<path d="M102.012 46.3058C102.099 46.0702 102.325 45.7322 102.243 45.6298C102.1 45.5005 101.921 45.4183 101.731 45.3942C100.983 44.3699 100.338 43.4736 99.6461 42.521C100.209 41.4967 100.184 41.1485 99.431 40.6619C98.965 40.3546 97.8946 40.7797 97.4285 41.4609C97.2083 41.7733 97.5309 42.3674 98.3606 43.1561L98.2428 43.7553C98.4067 43.7553 98.5245 43.7553 98.5911 43.8014C98.8881 44.0267 99.3286 44.2214 99.4156 44.5184C99.5027 44.8155 99.2313 45.1791 98.7396 44.9742C98.6243 45.0639 98.5401 45.1875 98.4989 45.3276C98.463 45.681 98.4989 46.0344 98.4989 46.4748L99.2978 46.7155L97.8843 47.7962L101.7 47.1867C101.864 46.7155 101.925 46.5158 102.012 46.3058Z" fill="#EE3384"/>
<path d="M134.559 27.1054C133.841 27.8818 133.071 28.609 132.255 29.282C133.279 30.2704 134.569 30.4036 136.157 30.3421C135.722 30.0349 135.358 29.8966 135.194 29.6303C135.03 29.3639 134.897 28.8467 135.036 28.6674C135.747 27.8185 136.633 27.1322 137.632 26.6547C137.294 26.3986 136.956 26.1425 136.608 25.8967C135.813 26.0686 135.094 26.4925 134.559 27.1054Z" fill="#EE3384"/>
<path d="M86.4685 41.1946C86.8436 41.2868 87.2355 41.2868 87.6106 41.1946C88.2046 41.0417 88.7642 40.7776 89.2597 40.4161C89.6284 40.1088 90.4735 39.8579 90.0689 39.1614C89.6746 38.6549 89.2108 38.2066 88.6912 37.8298L88.6144 38.1473L85.7003 38.8336L84.9935 37.8861L85.1011 38.2037L83.8309 38.936L83.9641 39.0999H85.3315L84.0921 39.7503L85.4647 40.1447L84.7733 40.6568C85.3469 40.8822 85.9 41.0717 86.4685 41.1946Z" fill="#EE3384"/>
<path d="M111.441 25.1183C112.066 24.6061 112.578 24.1759 113.131 23.7969C113.232 23.7465 113.343 23.7202 113.456 23.7202C113.569 23.7202 113.68 23.7465 113.781 23.7969C113.94 23.9045 113.976 24.1964 114.089 24.4627H115.953C115.953 24.3449 115.953 24.2272 115.989 24.1145L110.755 22.0249C110.975 22.5371 111.057 22.6958 111.072 22.7368L107.958 22.4654L107.887 22.788C108.279 23.1657 108.735 23.4709 109.233 23.6894C109.689 23.8072 110.258 23.5716 110.77 23.4897L110.801 23.7304L109.618 24.1555L109.659 24.3193L110.591 24.4064L109.961 24.7291L111.441 25.1183Z" fill="#EE3384"/>
<path d="M97.5975 44.5543C98.0431 44.288 98.1096 43.9039 97.6692 43.6888C97.2287 43.4737 96.7217 43.0793 96.2147 43.6888C95.9381 44.0012 95.6103 44.2624 95.2314 44.6158V46.1522L94.9241 46.3007C95.0931 46.439 95.2979 46.7156 95.4362 46.6848C96.133 46.5186 96.8083 46.2729 97.449 45.9525C97.6077 45.8603 97.4899 45.2713 97.5104 44.9282C97.5002 44.7592 97.5258 44.6004 97.5975 44.5543Z" fill="#EE3384"/>
<path d="M52.8615 74.9451C52.7307 74.8822 52.5933 74.8341 52.4518 74.8017L52.5286 75.4726C52.9135 75.6039 53.2884 75.7631 53.6502 75.9489C54.0292 76.1384 54.2648 76.6147 54.6745 77.0705L56.4312 76.8708C55.1354 76.1743 54.019 75.5238 52.8615 74.9451Z" fill="#EE3384"/>
<path d="M59.7907 78.1767C59.8676 77.3163 58.3311 76.7735 56.9381 77.1524L57.6756 77.9975L56.2262 77.8694C57.3683 78.6633 58.6026 78.0794 59.7907 78.1767Z" fill="#EE3384"/>
<path d="M117.52 22.0864H112.603C113.245 22.4216 113.937 22.6499 114.652 22.7624C115.608 22.7793 116.564 22.7348 117.515 22.6292C117.52 22.4449 117.52 22.2656 117.52 22.0864Z" fill="#EE3384"/>
<path d="M150.257 86.3814C150.533 86.2739 150.907 85.7464 150.835 85.5518C150.563 84.9408 150.236 84.3562 149.857 83.8053L149.57 83.9385C149.57 84.5275 149.57 85.1164 149.57 85.7003C149.57 86.2841 149.724 86.5914 150.257 86.3814Z" fill="#EE3384"/>
<path d="M107.006 55.5347L106.371 55.7959V57.4399C107.461 57.3836 106.965 56.5027 107.185 56.0315C107.236 55.9239 107.077 55.7344 107.006 55.5347Z" fill="#EE3384"/>
<path d="M110.539 58.2132H108.803L108.752 58.4181L110.34 59.3809C110.411 58.9456 110.483 58.5564 110.539 58.2132Z" fill="#EE3384"/>
<path d="M104.353 77.9104L102.54 74.2486C100.614 70.3562 98.714 66.4537 96.7575 62.5767C96.0067 61.1905 95.6075 59.6412 95.595 58.0647C95.627 55.9413 96.4286 53.9016 97.851 52.3246C99.2733 50.7476 101.22 49.7404 103.328 49.4901C105.437 49.2398 107.565 49.7634 109.317 50.9636C111.069 52.1639 112.326 53.9592 112.854 56.0161C113.389 58.0548 113.154 60.2191 112.194 62.0953C110.579 65.3526 108.964 68.6081 107.349 71.862C106.4 73.7706 105.454 75.6809 104.511 77.5929L104.353 77.9104ZM104.353 62.546C105.22 62.549 106.07 62.2945 106.792 61.8146C107.515 61.3348 108.08 60.6511 108.414 59.8503C108.748 59.0496 108.837 58.1676 108.67 57.3162C108.502 56.4648 108.086 55.6822 107.473 55.0675C106.861 54.4529 106.08 54.0338 105.229 53.8634C104.378 53.693 103.496 53.7789 102.694 54.1103C101.892 54.4416 101.206 55.0035 100.724 55.7248C100.242 56.4461 99.9841 57.2943 99.9841 58.162C99.98 59.3239 100.436 60.4401 101.253 61.2665C102.07 62.0929 103.181 62.5621 104.342 62.5716L104.353 62.546Z" fill="#231F20"/>
<path d="M153.14 60.8816C152.592 59.7651 152.059 58.6998 151.532 57.6294C149.826 54.1776 148.136 50.7206 146.41 47.284C145.748 46.0524 145.396 44.6776 145.386 43.2791C145.415 41.3948 146.127 39.5851 147.39 38.1865C148.653 36.788 150.381 35.8959 152.253 35.6761C154.124 35.4563 156.012 35.9238 157.565 36.9917C159.118 38.0595 160.23 39.655 160.694 41.4814C161.172 43.2878 160.964 45.207 160.11 46.8692C158.676 49.7577 157.244 52.6445 155.813 55.5296L153.294 60.6101C153.242 60.687 153.201 60.7638 153.14 60.8816ZM153.14 47.2789C153.909 47.281 154.662 47.0547 155.302 46.6288C155.943 46.2029 156.443 45.5965 156.739 44.8864C157.034 44.1763 157.113 43.3944 156.964 42.6397C156.815 41.885 156.446 41.1914 155.902 40.6467C155.359 40.102 154.667 39.7308 153.912 39.58C153.158 39.4292 152.376 39.5055 151.665 39.7994C150.954 40.0934 150.346 40.5916 149.919 41.231C149.491 41.8705 149.263 42.6225 149.263 43.3917C149.266 44.4201 149.675 45.4057 150.401 46.1338C151.127 46.8619 152.112 47.2735 153.14 47.2789Z" fill="#231F20"/>
<path d="M75.8619 30.8748C75.401 29.9427 74.9554 29.0464 74.515 28.1501C73.081 25.2565 71.6674 22.3578 70.2129 19.4744C69.6557 18.4433 69.3586 17.2918 69.3474 16.1198C69.3745 14.5418 69.9732 13.0271 71.0322 11.8569C72.0913 10.6868 73.5389 9.94049 75.1064 9.75659C76.674 9.57269 78.255 9.96365 79.5561 10.8569C80.8573 11.7502 81.7902 13.0852 82.1818 14.6141C82.5754 16.1313 82.3929 17.7406 81.6697 19.1312L78.0847 26.3884L75.9797 30.6392L75.8619 30.8748ZM75.8619 19.4744C76.5078 19.4764 77.1398 19.2867 77.6777 18.9292C78.2157 18.5717 78.6354 18.0626 78.8838 17.4664C79.1321 16.8701 79.1979 16.2136 79.0727 15.5799C78.9476 14.9463 78.6372 14.364 78.1808 13.907C77.7245 13.4499 77.1427 13.1386 76.5093 13.0124C75.8758 12.8863 75.2192 12.951 74.6225 13.1984C74.0259 13.4458 73.5161 13.8648 73.1578 14.4022C72.7995 14.9396 72.6088 15.5712 72.6098 16.2171C72.6138 17.078 72.9569 17.9026 73.5646 18.5123C74.1724 19.122 74.996 19.4676 75.8568 19.4744H75.8619Z" fill="#231F20"/>
<path d="M69.3423 92.522C68.8762 91.5899 68.4358 90.6936 67.9902 89.7974C66.5613 86.9037 65.1478 84.005 63.6933 81.1267C63.1341 80.0946 62.8369 78.9409 62.8278 77.767C62.8549 76.189 63.4535 74.6743 64.5126 73.5042C65.5717 72.334 67.0192 71.5877 68.5868 71.4038C70.1543 71.2199 71.7353 71.6109 73.0365 72.5042C74.3376 73.3974 75.2706 74.7324 75.6622 76.2613C76.0503 77.7789 75.8681 79.3862 75.15 80.7784L71.565 88.0407C70.8617 89.4576 70.1583 90.8763 69.4549 92.2967C69.4242 92.3632 69.3884 92.4298 69.3423 92.522ZM69.3423 81.1216C69.9884 81.1246 70.6208 80.9357 71.1595 80.5789C71.6981 80.2221 72.1186 79.7133 72.3677 79.1172C72.6169 78.521 72.6834 77.8643 72.5588 77.2303C72.4343 76.5963 72.1243 76.0136 71.6681 75.556C71.212 75.0984 70.6302 74.7866 69.9966 74.6601C69.363 74.5335 68.7061 74.5979 68.1092 74.8452C67.5123 75.0924 67.0022 75.5114 66.6437 76.0489C66.2851 76.5864 66.0943 77.2182 66.0953 77.8643C66.0966 78.7243 66.4374 79.5489 67.0435 80.1589C67.6497 80.7688 68.4721 81.1148 69.332 81.1216H69.3423Z" fill="#231F20"/>
<path d="M110.509 74.3408H110.458C110.425 74.3341 110.393 74.3209 110.365 74.3021C110.338 74.2833 110.314 74.2591 110.295 74.2311C110.277 74.203 110.264 74.1716 110.257 74.1386C110.251 74.1055 110.251 74.0716 110.258 74.0386C110.289 73.8952 113.443 59.427 129.381 52.3645C134.646 50.0343 139.276 49.7065 143.138 51.3914C148.541 53.7473 150.513 59.3195 150.533 59.3758C150.555 59.4404 150.55 59.5107 150.52 59.5719C150.491 59.6332 150.438 59.6804 150.374 59.7036C150.31 59.725 150.239 59.7204 150.178 59.6908C150.117 59.6611 150.07 59.6088 150.047 59.5448C150.047 59.4885 148.126 54.1212 142.928 51.8626C139.199 50.2442 134.733 50.572 129.612 52.8408C113.92 59.7907 110.811 74.0028 110.78 74.1462C110.767 74.2063 110.732 74.2593 110.682 74.2952C110.632 74.3311 110.57 74.3473 110.509 74.3408Z" fill="#231F20"/>
<path d="M72.1028 92.0304C72.0622 92.0299 72.0222 92.0211 71.985 92.0048C71.9549 91.9891 71.9282 91.9677 71.9065 91.9417C71.8848 91.9156 71.8685 91.8855 71.8584 91.8531C71.8484 91.8207 71.845 91.7867 71.8482 91.7529C71.8515 91.7192 71.8614 91.6864 71.8775 91.6565C82.7504 70.6994 101.07 77.6032 101.229 77.6749C101.262 77.6851 101.294 77.7022 101.32 77.7251C101.347 77.748 101.369 77.7761 101.384 77.8078C101.4 77.8394 101.409 77.874 101.41 77.9092C101.412 77.9444 101.406 77.9795 101.393 78.0123C101.38 78.0452 101.361 78.0751 101.336 78.1001C101.311 78.1251 101.282 78.1448 101.249 78.1578C101.216 78.1708 101.181 78.177 101.146 78.1758C101.111 78.1747 101.076 78.1663 101.044 78.1512C100.865 78.0795 82.986 71.355 72.3282 91.8921C72.3067 91.9335 72.2744 91.9682 72.2347 91.9926C72.195 92.0169 72.1494 92.03 72.1028 92.0304Z" fill="#231F20"/>
<path d="M100.22 48.508C100.167 48.508 100.116 48.4918 100.073 48.4615C100.03 48.4313 99.9969 48.3885 99.979 48.339C99.9226 48.1854 94.0893 32.9746 79.616 31.1309C79.5481 31.1227 79.4862 31.0879 79.4439 31.0341C79.4016 30.9804 79.3825 30.912 79.3906 30.8441C79.3988 30.7762 79.4336 30.7143 79.4874 30.672C79.5411 30.6297 79.6095 30.6106 79.6774 30.6187C94.4631 32.5085 100.404 48.001 100.46 48.1547C100.473 48.1863 100.479 48.22 100.478 48.2539C100.477 48.2878 100.47 48.3212 100.456 48.3522C100.442 48.3831 100.422 48.411 100.397 48.4343C100.373 48.4575 100.344 48.4756 100.312 48.4876C100.282 48.4993 100.251 48.5063 100.22 48.508Z" fill="#231F20"/>
<path d="M176.996 22.4448C177.049 22.2165 177.077 21.9828 177.078 21.7483C177.078 19.7612 175.091 18.1633 172.642 18.1633C171.989 18.1614 171.341 18.2813 170.732 18.5167C170.732 18.4757 170.732 18.4347 170.732 18.3938C170.732 16.4117 168.745 14.8087 166.297 14.8087C165.49 14.7759 164.688 14.9583 163.975 15.3371C163.261 15.716 162.661 16.2778 162.236 16.9649C161.751 16.8863 161.262 16.8469 160.771 16.8471C156.863 16.8112 153.652 19.3003 153.422 22.4448C151.117 22.4448 149.258 23.9813 149.258 25.8711C149.258 27.7609 151.148 29.2974 153.483 29.2974H165.611" fill="white"/>
<path d="M165.611 29.5279H153.483C151.009 29.5279 149.002 27.8736 149.002 25.8455C149.002 23.9045 150.861 22.2963 153.191 22.1734C153.58 19.0135 156.858 16.5705 160.776 16.5705C161.222 16.5705 161.666 16.6013 162.108 16.6627C162.57 15.9826 163.198 15.4306 163.931 15.0581C164.664 14.6856 165.48 14.5046 166.302 14.5322C168.791 14.5322 170.835 16.1352 170.983 18.1479C171.52 17.9795 172.08 17.8949 172.643 17.897C175.229 17.897 177.334 19.6229 177.334 21.7483C177.333 22.0038 177.303 22.2583 177.242 22.5063C177.226 22.5721 177.185 22.6289 177.127 22.6644C177.069 22.6999 177 22.7112 176.934 22.6958C176.901 22.688 176.87 22.6737 176.842 22.6537C176.815 22.6337 176.792 22.6084 176.774 22.5794C176.756 22.5503 176.745 22.518 176.74 22.4843C176.735 22.4507 176.736 22.4164 176.745 22.3834C176.796 22.1755 176.821 21.9623 176.822 21.7483C176.822 19.9046 174.947 18.4091 172.643 18.4091C172.021 18.4068 171.404 18.5215 170.824 18.7472C170.78 18.7603 170.732 18.7618 170.687 18.7513C170.641 18.7409 170.599 18.7189 170.565 18.6875C170.53 18.6561 170.505 18.6164 170.49 18.5721C170.475 18.5278 170.472 18.4805 170.481 18.4347C170.481 16.5449 168.607 15.0443 166.302 15.0443C165.539 15.0159 164.781 15.1905 164.107 15.5504C163.433 15.9103 162.867 16.4426 162.466 17.0929C162.442 17.1402 162.402 17.1783 162.354 17.2014C162.306 17.2245 162.252 17.2314 162.2 17.221C161.729 17.1449 161.253 17.1072 160.776 17.1083C157.032 17.1083 153.913 19.459 153.678 22.4654C153.674 22.5292 153.646 22.5892 153.599 22.633C153.552 22.6767 153.491 22.7011 153.427 22.7009C151.271 22.7009 149.514 24.1452 149.514 25.8711C149.514 27.5971 151.291 29.0413 153.483 29.0413H165.611C165.679 29.0413 165.744 29.0683 165.792 29.1163C165.84 29.1644 165.867 29.2295 165.867 29.2974C165.867 29.3653 165.84 29.4305 165.792 29.4785C165.744 29.5265 165.679 29.5535 165.611 29.5535V29.5279Z" fill="#D1D3D4"/>
<path d="M178.747 114.631C178.747 111.302 175.444 108.598 171.352 108.552C170.922 103.016 165.247 98.6319 158.313 98.6319C157.441 98.6311 156.571 98.7013 155.711 98.8419C154.497 96.5885 151.726 95.0162 148.505 95.0162C144.162 95.0162 140.638 97.874 140.638 101.398C140.638 101.469 140.638 101.541 140.638 101.613C139.555 101.194 138.404 100.981 137.243 100.983C132.895 100.983 129.376 103.84 129.376 107.364C129.376 107.78 129.426 108.194 129.525 108.598C125.822 108.967 122.949 111.523 122.949 114.631C122.949 117.986 126.303 120.711 130.442 120.711" fill="white"/>
<path d="M130.447 120.987C126.175 120.987 122.698 118.145 122.698 114.652C122.698 111.533 125.484 108.885 129.223 108.399C129.157 108.061 129.124 107.718 129.125 107.374C129.125 103.712 132.767 100.716 137.248 100.716C138.311 100.713 139.366 100.886 140.372 101.229C140.475 97.6435 144.08 94.7448 148.495 94.7448C151.639 94.7448 154.497 96.23 155.839 98.5449C156.654 98.4216 157.478 98.3599 158.302 98.3605C165.216 98.3605 170.999 102.704 171.577 108.291C175.674 108.434 178.993 111.236 178.993 114.616C178.993 114.684 178.966 114.749 178.918 114.797C178.87 114.845 178.805 114.872 178.737 114.872C178.669 114.872 178.604 114.845 178.556 114.797C178.508 114.749 178.481 114.684 178.481 114.616C178.481 111.451 175.28 108.839 171.342 108.793C171.278 108.793 171.216 108.769 171.169 108.725C171.123 108.681 171.095 108.621 171.091 108.557C170.666 103.129 165.047 98.8727 158.287 98.8727C157.429 98.8714 156.573 98.9399 155.726 99.0776C155.673 99.0867 155.619 99.0787 155.571 99.0547C155.523 99.0308 155.484 98.9921 155.46 98.9444C154.251 96.7063 151.511 95.2569 148.479 95.2569C144.285 95.2569 140.869 98.002 140.869 101.403C140.869 101.439 140.869 101.474 140.869 101.505V101.608C140.869 101.65 140.859 101.692 140.84 101.73C140.822 101.768 140.795 101.802 140.761 101.828C140.726 101.853 140.685 101.869 140.642 101.874C140.599 101.88 140.556 101.874 140.516 101.859C139.464 101.449 138.345 101.24 137.217 101.244C133.018 101.244 129.607 103.989 129.607 107.39C129.607 107.787 129.655 108.182 129.75 108.568C129.758 108.603 129.758 108.639 129.751 108.674C129.744 108.71 129.73 108.743 129.709 108.773C129.689 108.803 129.662 108.829 129.63 108.848C129.598 108.866 129.562 108.878 129.525 108.88C125.909 109.239 123.179 111.722 123.179 114.657C123.179 117.868 126.426 120.48 130.416 120.48C130.484 120.48 130.549 120.507 130.597 120.555C130.645 120.603 130.672 120.668 130.672 120.736C130.672 120.804 130.645 120.869 130.597 120.917C130.549 120.965 130.484 120.992 130.416 120.992L130.447 120.987Z" fill="#D1D3D4"/>
</g>
</svg>
