<svg width="201" height="132" viewBox="0 0 201 132" fill="none" xmlns="http://www.w3.org/2000/svg">
<mask id="mask0" mask-type="alpha" maskUnits="userSpaceOnUse" x="0" y="0" width="201" height="132">
<rect x="0.519043" y="0.518982" width="200.412" height="131.463" fill="#C4C4C4"/>
</mask>
<g mask="url(#mask0)">
<path d="M179.32 112.95H22.8387C22.7708 112.95 22.7057 112.923 22.6576 112.875C22.6096 112.827 22.5826 112.762 22.5826 112.694C22.5826 112.626 22.6096 112.561 22.6576 112.513C22.7057 112.465 22.7708 112.438 22.8387 112.438H179.32C179.388 112.438 179.453 112.465 179.501 112.513C179.549 112.561 179.576 112.626 179.576 112.694C179.576 112.762 179.549 112.827 179.501 112.875C179.453 112.923 179.388 112.95 179.32 112.95Z" fill="#D1D3D4"/>
<path d="M147.875 75.6352H118.769V112.694H147.875V75.6352Z" fill="white"/>
<path d="M147.88 112.95H118.769C118.701 112.95 118.636 112.923 118.588 112.875C118.54 112.827 118.513 112.762 118.513 112.694V75.6352C118.513 75.5673 118.54 75.5021 118.588 75.4541C118.636 75.4061 118.701 75.3791 118.769 75.3791H147.88C147.948 75.3791 148.013 75.4061 148.061 75.4541C148.109 75.5021 148.136 75.5673 148.136 75.6352V112.704C148.133 112.771 148.105 112.833 148.057 112.879C148.01 112.925 147.946 112.95 147.88 112.95ZM119.025 112.438H147.624V75.8913H119.005L119.025 112.438Z" fill="#D1D3D4"/>
<path d="M145.134 78.1652H121.514V110.159H145.134V78.1652Z" fill="white"/>
<path d="M145.124 110.415H121.514C121.446 110.415 121.381 110.388 121.333 110.34C121.285 110.292 121.258 110.227 121.258 110.159V78.1652C121.258 78.0973 121.285 78.0322 121.333 77.9842C121.381 77.9361 121.446 77.9092 121.514 77.9092H145.124C145.192 77.9092 145.257 77.9361 145.305 77.9842C145.353 78.0322 145.38 78.0973 145.38 78.1652V110.144C145.382 110.179 145.377 110.214 145.365 110.246C145.354 110.279 145.335 110.309 145.311 110.335C145.287 110.36 145.258 110.381 145.226 110.394C145.194 110.408 145.159 110.415 145.124 110.415ZM121.76 109.903H144.868V78.4213H121.77L121.76 109.903Z" fill="#D1D3D4"/>
<path d="M145.134 107.091V110.159H143.198L132.853 96.536L130.733 93.7601L121.514 81.6222V78.1652H123.117L132.853 90.9638L134.968 93.7601L145.134 107.091Z" fill="white"/>
<path d="M145.124 110.415H143.188C143.149 110.416 143.111 110.407 143.076 110.389C143.041 110.371 143.011 110.345 142.989 110.313L121.309 81.7759C121.277 81.7309 121.26 81.6774 121.258 81.6222V78.1652C121.258 78.0973 121.285 78.0322 121.333 77.9841C121.381 77.9361 121.446 77.9091 121.514 77.9091H123.102C123.141 77.9085 123.18 77.917 123.216 77.9339C123.251 77.9508 123.282 77.9756 123.307 78.0064L135.158 93.6065L145.324 106.922C145.356 106.967 145.374 107.021 145.375 107.076V110.149C145.377 110.183 145.371 110.217 145.359 110.249C145.347 110.281 145.329 110.31 145.306 110.335C145.282 110.36 145.254 110.379 145.223 110.393C145.192 110.407 145.158 110.415 145.124 110.415ZM143.316 109.903H144.853V107.178L132.623 91.1174L122.964 78.4213H121.77V81.5351L143.316 109.903Z" fill="#D1D3D4"/>
<path d="M145.134 78.1652V80.4084L134.968 93.7601L132.853 96.536L122.503 110.159H121.514V105.878L130.733 93.7601L132.853 90.9638L142.604 78.1652H145.134Z" fill="white"/>
<path d="M122.503 110.415H121.514C121.446 110.415 121.381 110.388 121.333 110.34C121.285 110.292 121.258 110.227 121.258 110.159V105.878C121.26 105.822 121.277 105.769 121.309 105.724L142.4 78.0065C142.424 77.9759 142.455 77.9513 142.491 77.9344C142.526 77.9176 142.565 77.9089 142.604 77.9092H145.124C145.192 77.9092 145.257 77.9362 145.305 77.9842C145.353 78.0322 145.38 78.0973 145.38 78.1652V80.4085C145.379 80.4636 145.361 80.5171 145.329 80.5621L122.697 110.313C122.674 110.343 122.645 110.368 122.611 110.385C122.578 110.403 122.541 110.413 122.503 110.415ZM121.77 109.903H122.375L144.878 80.3214V78.4213H142.733L121.77 105.965V109.903Z" fill="#D1D3D4"/>
<path d="M82.3555 112.694H118.774V75.6351H82.3555V112.694Z" fill="white"/>
<path d="M118.769 112.95H82.3503C82.2824 112.95 82.2173 112.923 82.1692 112.875C82.1212 112.827 82.0942 112.762 82.0942 112.694V75.6352C82.0942 75.5673 82.1212 75.5021 82.1692 75.4541C82.2173 75.4061 82.2824 75.3791 82.3503 75.3791H118.769C118.837 75.3791 118.902 75.4061 118.95 75.4541C118.998 75.5021 119.025 75.5673 119.025 75.6352V112.704C119.023 112.771 118.994 112.833 118.947 112.879C118.899 112.925 118.835 112.95 118.769 112.95ZM82.6064 112.438H118.493V75.8913H82.6064V112.438Z" fill="#D1D3D4"/>
<path d="M116.132 78.1652H84.9879V110.159H116.132V78.1652Z" fill="white"/>
<path d="M116.132 110.415H84.9879C84.92 110.415 84.8548 110.388 84.8068 110.34C84.7588 110.292 84.7318 110.227 84.7318 110.159V78.1652C84.7318 78.0973 84.7588 78.0322 84.8068 77.9842C84.8548 77.9361 84.92 77.9092 84.9879 77.9092H116.132C116.2 77.9092 116.265 77.9361 116.313 77.9842C116.361 78.0322 116.388 78.0973 116.388 78.1652V110.144C116.39 110.179 116.385 110.214 116.373 110.246C116.361 110.279 116.342 110.309 116.318 110.335C116.294 110.36 116.265 110.381 116.233 110.394C116.201 110.408 116.167 110.415 116.132 110.415ZM85.244 109.903H115.876V78.4213H85.244V109.903Z" fill="#D1D3D4"/>
<path d="M84.993 107.091V110.159H87.5384L101.187 96.536L103.978 93.7601L116.132 81.6222V78.1652H114.016L101.187 90.9638L98.3908 93.7601L84.993 107.091Z" fill="white"/>
<path d="M87.5384 110.415H84.9776C84.9097 110.415 84.8446 110.388 84.7966 110.34C84.7485 110.292 84.7216 110.227 84.7216 110.159V107.086C84.7231 107.019 84.7506 106.955 84.7984 106.907L100.992 90.7743L113.827 77.9706C113.875 77.9242 113.939 77.8985 114.006 77.8989H116.121C116.189 77.8989 116.254 77.9259 116.302 77.9739C116.35 78.0219 116.377 78.0871 116.377 78.155V81.612C116.378 81.6788 116.352 81.7431 116.306 81.7912L87.7125 110.328C87.6907 110.353 87.6641 110.374 87.6342 110.389C87.6043 110.404 87.5717 110.413 87.5384 110.415ZM85.244 109.903H87.4359L115.876 81.5147V78.4418H114.124L98.5752 93.9599L85.2593 107.219L85.244 109.903Z" fill="#D1D3D4"/>
<path d="M84.993 78.1652V80.4084L98.3908 93.7601L101.187 96.536L114.831 110.159H116.132V105.878L103.978 93.7601L101.187 90.9638L88.3271 78.1652H84.993Z" fill="white"/>
<path d="M116.132 110.415H114.831C114.797 110.416 114.764 110.409 114.733 110.396C114.702 110.382 114.674 110.363 114.651 110.338L98.2115 93.9496L84.8086 80.5979C84.7608 80.5503 84.7333 80.486 84.7318 80.4186V78.1754C84.7318 78.1075 84.7588 78.0424 84.8068 77.9943C84.8548 77.9463 84.92 77.9193 84.9879 77.9193H88.3271C88.3939 77.9189 88.4582 77.9447 88.5063 77.991L104.152 93.5808L116.306 105.698C116.352 105.746 116.378 105.811 116.377 105.877V110.144C116.379 110.178 116.375 110.212 116.363 110.244C116.352 110.276 116.335 110.306 116.312 110.331C116.289 110.356 116.261 110.377 116.23 110.391C116.199 110.406 116.166 110.414 116.132 110.415ZM114.938 109.903H115.876V105.985L101.023 91.1327L88.2195 78.411H85.244V80.2906L101.366 96.3464L114.938 109.903Z" fill="#D1D3D4"/>
<path d="M161.953 38.571H132.848V75.6301H161.953V38.571Z" fill="white"/>
<path d="M161.959 75.8913H132.833C132.765 75.8913 132.7 75.8643 132.652 75.8163C132.604 75.7682 132.577 75.7031 132.577 75.6352V38.571C132.578 38.5035 132.605 38.4392 132.653 38.3914C132.701 38.3437 132.765 38.3163 132.833 38.315H161.943C162.011 38.3163 162.075 38.3437 162.123 38.3914C162.171 38.4392 162.198 38.5035 162.199 38.571V75.6352C162.199 75.7005 162.175 75.7634 162.13 75.811C162.085 75.8586 162.024 75.8873 161.959 75.8913ZM133.104 75.3791H161.703V38.8271H133.104V75.3791Z" fill="#D1D3D4"/>
<path d="M159.214 41.101H135.593V73.0949H159.214V41.101Z" fill="white"/>
<path d="M159.213 73.3561H135.593C135.525 73.3561 135.46 73.3291 135.412 73.2811C135.364 73.2331 135.337 73.1679 135.337 73.1V41.101C135.337 41.0331 135.364 40.968 135.412 40.9199C135.46 40.8719 135.525 40.8449 135.593 40.8449H159.213C159.281 40.8449 159.346 40.8719 159.394 40.9199C159.442 40.968 159.469 41.0331 159.469 41.101V73.1C159.469 73.1679 159.442 73.2331 159.394 73.2811C159.346 73.3291 159.281 73.3561 159.213 73.3561ZM135.849 72.8439H158.952V41.3571H135.849V72.8439Z" fill="#D1D3D4"/>
<path d="M159.214 70.0322V73.0949H157.278L146.932 59.4769L144.812 56.701L135.593 44.558V41.101H137.196L146.932 53.8996L149.047 56.701L159.214 70.0322Z" fill="white"/>
<path d="M159.213 73.3561H157.277C157.239 73.3553 157.2 73.3457 157.166 73.3279C157.131 73.3102 157.101 73.2848 157.078 73.2537L135.393 44.7117C135.36 44.6672 135.343 44.6134 135.342 44.558V41.101C135.342 41.0331 135.369 40.968 135.417 40.9199C135.465 40.8719 135.53 40.8449 135.598 40.8449H137.201C137.241 40.8453 137.28 40.8548 137.316 40.8725C137.351 40.8903 137.382 40.9159 137.406 40.9474L149.257 56.5423L159.423 69.8581C159.456 69.9026 159.474 69.9564 159.475 70.0118V73.0846C159.477 73.12 159.471 73.1554 159.459 73.1886C159.447 73.2218 159.428 73.2521 159.403 73.2776C159.379 73.3031 159.349 73.3233 159.317 73.3368C159.284 73.3503 159.249 73.3569 159.213 73.3561ZM157.406 72.8439H158.942V70.1193L146.712 54.0532L137.053 41.3571H135.834V44.4709L157.406 72.8439Z" fill="#D1D3D4"/>
<path d="M159.214 41.101V43.3442L149.047 56.701L146.932 59.4769L136.582 73.0949H135.593V68.8185L144.812 56.701L146.932 53.8996L156.684 41.101H159.214Z" fill="white"/>
<path d="M136.582 73.3561H135.593C135.525 73.3561 135.46 73.3291 135.412 73.2811C135.364 73.2331 135.337 73.1679 135.337 73.1V68.8185C135.337 68.7631 135.355 68.7093 135.388 68.6648L156.479 40.9474C156.503 40.9161 156.534 40.8907 156.569 40.873C156.605 40.8553 156.644 40.8457 156.683 40.8449H159.213C159.281 40.8449 159.346 40.8719 159.394 40.9199C159.442 40.968 159.469 41.0331 159.469 41.101V43.3442C159.469 43.3996 159.451 43.4534 159.418 43.4979L136.786 73.269C136.76 73.2969 136.728 73.3191 136.693 73.3341C136.658 73.3491 136.62 73.3566 136.582 73.3561ZM135.849 72.8439H136.454L158.952 43.2572V41.3571H156.806L135.844 68.9055L135.849 72.8439Z" fill="#D1D3D4"/>
<path d="M96.4344 75.6352H132.853V38.5762L96.4344 38.5762V75.6352Z" fill="white"/>
<path d="M132.833 75.8913H96.4293C96.3614 75.8913 96.2962 75.8643 96.2482 75.8163C96.2002 75.7682 96.1732 75.7031 96.1732 75.6352V38.571C96.1745 38.5035 96.2019 38.4392 96.2497 38.3914C96.2974 38.3437 96.3618 38.3163 96.4293 38.315H132.833C132.901 38.315 132.966 38.342 133.014 38.39C133.062 38.438 133.089 38.5031 133.089 38.571V75.6352C133.089 75.7031 133.062 75.7682 133.014 75.8163C132.966 75.8643 132.901 75.8913 132.833 75.8913ZM96.67 75.3791H132.577V38.8271H96.6854L96.67 75.3791Z" fill="#D1D3D4"/>
<path d="M130.21 41.101H99.0668V73.0949H130.21V41.101Z" fill="white"/>
<path d="M130.211 73.3561H99.072C99.0041 73.3561 98.9389 73.3291 98.8909 73.2811C98.8429 73.2331 98.8159 73.1679 98.8159 73.1V41.101C98.8159 41.0331 98.8429 40.968 98.8909 40.9199C98.9389 40.8719 99.0041 40.8449 99.072 40.8449H130.211C130.279 40.8449 130.344 40.8719 130.392 40.9199C130.44 40.968 130.467 41.0331 130.467 41.101V73.1C130.467 73.1679 130.44 73.2331 130.392 73.2811C130.344 73.3291 130.279 73.3561 130.211 73.3561ZM99.3281 72.8439H129.955V41.3571H99.3281V72.8439Z" fill="#D1D3D4"/>
<path d="M99.0668 70.0322V73.0949H101.617L115.266 59.4769L118.057 56.701L130.21 44.558V41.101H128.095L115.266 53.8996L112.47 56.701L99.0668 70.0322Z" fill="white"/>
<path d="M101.617 73.3561H99.0566C98.9887 73.3561 98.9236 73.3292 98.8755 73.2811C98.8275 73.2331 98.8005 73.168 98.8005 73.1001V70.0272C98.8009 69.959 98.8264 69.8933 98.8722 69.8428L115.066 53.7153L127.901 40.9116C127.948 40.8638 128.013 40.8363 128.08 40.8347H130.195C130.263 40.8347 130.328 40.8617 130.376 40.9097C130.424 40.9578 130.451 41.0229 130.451 41.0908V44.5478C130.451 44.616 130.425 44.6817 130.38 44.7322L101.802 73.2691C101.754 73.3209 101.688 73.3522 101.617 73.3561ZM99.328 72.844H101.515L129.954 44.4505V41.3776H128.223L112.654 56.8803L99.3383 70.1398L99.328 72.844Z" fill="#D1D3D4"/>
<path d="M99.0668 41.101V43.3442L112.47 56.701L115.266 59.4769L128.91 73.0949H130.21V68.8185L118.057 56.701L115.266 53.8996L102.406 41.101H99.0668Z" fill="white"/>
<path d="M130.211 73.3561H128.91C128.843 73.3506 128.78 73.3194 128.736 73.269L112.296 56.8803L98.8927 43.5286C98.8469 43.4781 98.8214 43.4124 98.821 43.3442V41.101C98.821 41.0331 98.848 40.968 98.8961 40.92C98.9441 40.8719 99.0092 40.845 99.0771 40.845H102.411C102.445 40.8445 102.478 40.8512 102.509 40.8644C102.54 40.8776 102.568 40.8972 102.59 40.9218L118.247 56.5167L130.395 68.6597C130.441 68.7102 130.466 68.7759 130.467 68.8441V73.1256C130.46 73.189 130.431 73.2478 130.383 73.2904C130.336 73.333 130.274 73.3564 130.211 73.3561ZM129.017 72.844H129.955V68.926L115.102 54.0737L102.299 41.3469H99.3281V43.2264L115.445 59.2823L129.017 72.844Z" fill="#D1D3D4"/>
<path d="M176.985 75.6352H147.88V112.694H176.985V75.6352Z" fill="white"/>
<path d="M176.985 112.95H147.88C147.812 112.95 147.747 112.923 147.699 112.875C147.651 112.827 147.624 112.762 147.624 112.694V75.6352C147.624 75.5673 147.651 75.5021 147.699 75.4541C147.747 75.4061 147.812 75.3791 147.88 75.3791H176.985C177.053 75.3791 177.118 75.4061 177.166 75.4541C177.214 75.5021 177.241 75.5673 177.241 75.6352V112.704C177.238 112.771 177.21 112.833 177.163 112.879C177.115 112.925 177.051 112.95 176.985 112.95ZM148.136 112.438H176.729V75.8913H148.136V112.438Z" fill="#D1D3D4"/>
<path d="M174.24 78.1652H150.62V110.159H174.24V78.1652Z" fill="white"/>
<path d="M174.24 110.415H150.62C150.552 110.415 150.487 110.388 150.439 110.34C150.39 110.292 150.364 110.227 150.364 110.159V78.1652C150.364 78.0973 150.39 78.0322 150.439 77.9842C150.487 77.9361 150.552 77.9092 150.62 77.9092H174.24C174.308 77.9092 174.373 77.9361 174.421 77.9842C174.469 78.0322 174.496 78.0973 174.496 78.1652V110.144C174.498 110.179 174.493 110.214 174.481 110.246C174.469 110.279 174.451 110.309 174.427 110.335C174.403 110.36 174.374 110.381 174.342 110.394C174.309 110.408 174.275 110.415 174.24 110.415ZM150.876 109.903H173.984V78.4213H150.876V109.903Z" fill="#D1D3D4"/>
<path d="M174.24 107.091V110.159H172.309L161.959 96.536L159.838 93.7601L150.62 81.6222V78.1652H152.228L161.959 90.9638L164.079 93.7601L174.24 107.091Z" fill="white"/>
<path d="M174.24 110.415H172.309C172.269 110.416 172.23 110.407 172.194 110.389C172.158 110.371 172.127 110.345 172.104 110.313L150.415 81.7759C150.383 81.7309 150.365 81.6774 150.364 81.6222V78.1652C150.364 78.0973 150.39 78.0322 150.439 77.9842C150.487 77.9362 150.552 77.9092 150.62 77.9092H152.228C152.266 77.909 152.304 77.9176 152.339 77.9345C152.374 77.9514 152.404 77.976 152.427 78.0065L164.284 93.6065L174.445 106.922C174.479 106.966 174.497 107.02 174.496 107.076V110.149C174.497 110.183 174.492 110.218 174.479 110.25C174.467 110.282 174.449 110.312 174.425 110.337C174.401 110.361 174.372 110.381 174.34 110.395C174.309 110.408 174.274 110.415 174.24 110.415ZM172.437 109.903H173.974V107.178L161.743 91.1175L152.089 78.4213H150.865V81.5352L172.437 109.903Z" fill="#D1D3D4"/>
<path d="M174.24 78.1652V80.4084L164.079 93.7601L161.959 96.536L151.608 110.159H150.62V105.878L159.838 93.7601L161.959 90.9638L171.71 78.1652H174.24Z" fill="white"/>
<path d="M151.608 110.415H150.62C150.552 110.415 150.487 110.388 150.439 110.34C150.39 110.292 150.364 110.227 150.364 110.159V105.878C150.365 105.822 150.383 105.769 150.415 105.724L171.505 78.0065C171.53 77.9764 171.561 77.9522 171.597 77.9354C171.632 77.9186 171.671 77.9097 171.71 77.9092H174.24C174.308 77.9092 174.373 77.9361 174.421 77.9842C174.469 78.0322 174.496 78.0973 174.496 78.1652V80.4084C174.497 80.464 174.479 80.5183 174.445 80.5621L151.813 110.313C151.789 110.345 151.758 110.371 151.723 110.389C151.687 110.407 151.648 110.416 151.608 110.415ZM150.876 109.903H151.48L173.984 80.3214V78.4213H171.838L150.876 105.965V109.903Z" fill="#D1D3D4"/>
<path d="M134.093 82.2265H123.937V90.8664H134.093V82.2265Z" fill="white"/>
<path d="M134.093 91.1225H123.937C123.869 91.1225 123.804 91.0956 123.756 91.0475C123.708 90.9995 123.681 90.9344 123.681 90.8665V82.2265C123.681 82.1586 123.708 82.0935 123.756 82.0455C123.804 81.9974 123.869 81.9705 123.937 81.9705H134.093C134.161 81.9705 134.226 81.9974 134.274 82.0455C134.322 82.0935 134.349 82.1586 134.349 82.2265V90.8665C134.349 90.9344 134.322 90.9995 134.274 91.0475C134.226 91.0956 134.161 91.1225 134.093 91.1225ZM124.193 90.6104H133.857V82.4877H124.193V90.6104Z" fill="#D1D3D4"/>
<path d="M132.356 84.6234H125.663C125.595 84.6221 125.531 84.5947 125.483 84.5469C125.435 84.4992 125.408 84.4348 125.406 84.3673C125.406 84.2994 125.433 84.2343 125.482 84.1863C125.53 84.1382 125.595 84.1113 125.663 84.1113H132.32C132.388 84.1113 132.454 84.1382 132.502 84.1863C132.55 84.2343 132.577 84.2994 132.577 84.3673C132.576 84.4292 132.554 84.4889 132.513 84.5357C132.473 84.5826 132.417 84.6137 132.356 84.6234Z" fill="#D1D3D4"/>
<path d="M132.356 86.8051H125.663C125.595 86.8038 125.531 86.7764 125.483 86.7286C125.435 86.6809 125.408 86.6165 125.406 86.549C125.406 86.4811 125.433 86.416 125.482 86.368C125.53 86.3199 125.595 86.293 125.663 86.293H132.32C132.388 86.293 132.454 86.3199 132.502 86.368C132.55 86.416 132.577 86.4811 132.577 86.549C132.576 86.6109 132.554 86.6706 132.513 86.7175C132.473 86.7643 132.417 86.7954 132.356 86.8051Z" fill="#D1D3D4"/>
<path d="M130.149 88.9868H125.663C125.595 88.9855 125.531 88.9581 125.483 88.9104C125.435 88.8627 125.408 88.7983 125.406 88.7308C125.406 88.6629 125.433 88.5977 125.482 88.5497C125.53 88.5017 125.595 88.4747 125.663 88.4747H130.139C130.207 88.4747 130.272 88.5017 130.32 88.5497C130.368 88.5977 130.395 88.6629 130.395 88.7308C130.394 88.7966 130.368 88.8595 130.322 88.907C130.277 88.9545 130.215 88.983 130.149 88.9868Z" fill="#D1D3D4"/>
<path d="M164.294 82.2265H154.138V90.8664H164.294V82.2265Z" fill="white"/>
<path d="M164.289 91.1225H154.138C154.07 91.1225 154.005 91.0956 153.957 91.0475C153.909 90.9995 153.882 90.9344 153.882 90.8665V82.2265C153.882 82.1586 153.909 82.0935 153.957 82.0455C154.005 81.9974 154.07 81.9705 154.138 81.9705H164.289C164.357 81.9705 164.422 81.9974 164.47 82.0455C164.518 82.0935 164.545 82.1586 164.545 82.2265V90.8665C164.545 90.9344 164.518 90.9995 164.47 91.0475C164.422 91.0956 164.357 91.1225 164.289 91.1225ZM154.394 90.6104H164.033V82.4877H154.394V90.6104Z" fill="#D1D3D4"/>
<path d="M162.537 84.6234H155.879C155.811 84.6234 155.746 84.5964 155.698 84.5484C155.65 84.5004 155.623 84.4352 155.623 84.3673C155.623 84.2994 155.65 84.2343 155.698 84.1863C155.746 84.1382 155.811 84.1113 155.879 84.1113H162.537C162.605 84.1113 162.67 84.1382 162.718 84.1863C162.766 84.2343 162.793 84.2994 162.793 84.3673C162.793 84.4352 162.766 84.5004 162.718 84.5484C162.67 84.5964 162.605 84.6234 162.537 84.6234Z" fill="#D1D3D4"/>
<path d="M162.537 86.8051H155.879C155.811 86.8051 155.746 86.7781 155.698 86.7301C155.65 86.6821 155.623 86.6169 155.623 86.549C155.623 86.4811 155.65 86.416 155.698 86.368C155.746 86.3199 155.811 86.293 155.879 86.293H162.537C162.605 86.293 162.67 86.3199 162.718 86.368C162.766 86.416 162.793 86.4811 162.793 86.549C162.793 86.6169 162.766 86.6821 162.718 86.7301C162.67 86.7781 162.605 86.8051 162.537 86.8051Z" fill="#D1D3D4"/>
<path d="M160.345 88.9868H155.879C155.811 88.9868 155.746 88.9599 155.698 88.9118C155.65 88.8638 155.623 88.7987 155.623 88.7308C155.623 88.6629 155.65 88.5977 155.698 88.5497C155.746 88.5017 155.811 88.4747 155.879 88.4747H160.35C160.418 88.4747 160.483 88.5017 160.531 88.5497C160.58 88.5977 160.606 88.6629 160.606 88.7308C160.607 88.7648 160.6 88.7986 160.587 88.83C160.573 88.8614 160.554 88.8898 160.53 88.9137C160.505 88.9375 160.477 88.9563 160.445 88.9688C160.413 88.9814 160.379 88.9875 160.345 88.9868Z" fill="#D1D3D4"/>
<path d="M149.145 44.6144H138.989V53.2543H149.145V44.6144Z" fill="white"/>
<path d="M149.145 53.5104H138.978C138.911 53.5104 138.845 53.4834 138.797 53.4354C138.749 53.3874 138.722 53.3223 138.722 53.2543V44.6144C138.722 44.5465 138.749 44.4814 138.797 44.4333C138.845 44.3853 138.911 44.3583 138.978 44.3583H149.134C149.202 44.3583 149.267 44.3853 149.315 44.4333C149.363 44.4814 149.39 44.5465 149.39 44.6144V53.2543C149.39 53.3205 149.365 53.3841 149.319 53.4319C149.273 53.4796 149.211 53.5078 149.145 53.5104ZM139.245 52.9983H148.889V44.8705H139.245V52.9983Z" fill="#D1D3D4"/>
<path d="M147.409 47.0061H140.751C140.683 47.0061 140.618 46.9791 140.57 46.9311C140.521 46.8831 140.495 46.8179 140.495 46.75C140.496 46.6825 140.523 46.6181 140.571 46.5704C140.619 46.5227 140.683 46.4953 140.751 46.4939H147.409C147.476 46.4953 147.54 46.5227 147.588 46.5704C147.636 46.6181 147.663 46.6825 147.665 46.75C147.665 46.8179 147.638 46.8831 147.59 46.9311C147.542 46.9791 147.476 47.0061 147.409 47.0061Z" fill="#D1D3D4"/>
<path d="M147.409 49.1981H140.751C140.683 49.1981 140.618 49.1711 140.57 49.1231C140.521 49.0751 140.495 49.01 140.495 48.942C140.496 48.8745 140.523 48.8102 140.571 48.7624C140.619 48.7147 140.683 48.6873 140.751 48.686H147.409C147.476 48.6873 147.54 48.7147 147.588 48.7624C147.636 48.8102 147.663 48.8745 147.665 48.942C147.665 49.01 147.638 49.0751 147.59 49.1231C147.542 49.1711 147.476 49.1981 147.409 49.1981Z" fill="#D1D3D4"/>
<path d="M145.201 51.3747H140.725C140.657 51.3734 140.593 51.346 140.545 51.2983C140.497 51.2505 140.47 51.1861 140.469 51.1186C140.469 51.0507 140.496 50.9856 140.544 50.9376C140.592 50.8895 140.657 50.8626 140.725 50.8626H145.201C145.269 50.8626 145.334 50.8895 145.382 50.9376C145.43 50.9856 145.457 51.0507 145.457 51.1186C145.456 51.1861 145.428 51.2505 145.381 51.2983C145.333 51.346 145.268 51.3734 145.201 51.3747Z" fill="#D1D3D4"/>
<path d="M43.3093 30.1155C43.3093 30.1155 24.8412 57.6639 25.2356 57.9507C25.63 58.2375 34.2699 61.7765 34.2699 61.7765L45.1377 51.2467L43.3093 30.1155Z" fill="#231F20"/>
<path d="M34.2697 62.0325C34.2375 62.0373 34.2047 62.0373 34.1724 62.0325C32.7231 61.4384 25.4659 58.4475 25.0869 58.176C24.7899 57.9609 24.6414 57.8534 33.9112 43.8052C38.4284 36.9629 43.0531 30.0642 43.0992 29.9772C43.1288 29.9339 43.1709 29.9008 43.2199 29.8822C43.2689 29.8637 43.3225 29.8606 43.3733 29.8735C43.4241 29.8863 43.4698 29.9144 43.5041 29.954C43.5384 29.9937 43.5597 30.0428 43.5652 30.095L45.3885 51.2467C45.3928 51.2845 45.388 51.3227 45.3747 51.3583C45.3613 51.394 45.3397 51.4259 45.3116 51.4515L34.449 61.9608C34.4003 62.0063 34.3364 62.0319 34.2697 62.0325ZM25.5632 57.8227C26.4902 58.2733 31.0688 60.1734 34.239 61.4743L44.8968 51.1596L43.1197 30.8632C36.2415 41.1266 26.398 56.0148 25.5376 57.8227H25.5632Z" fill="#231F20"/>
<path d="M72.8602 30.2743L84.6909 50.4427C84.6909 50.4427 81.997 56.9265 78.7653 56.148C75.5336 55.3695 67.6107 38.443 67.6107 38.443L72.8602 30.2743Z" fill="#231F20"/>
<path d="M79.3337 56.4655C79.1284 56.4667 78.9237 56.4426 78.7243 56.3938C75.4107 55.5897 67.7028 39.2215 67.3802 38.525C67.3576 38.488 67.3456 38.4454 67.3456 38.402C67.3456 38.3587 67.3576 38.3161 67.3802 38.2791L72.6297 30.136C72.6528 30.0999 72.6847 30.0702 72.7222 30.0497C72.7598 30.0291 72.802 30.0183 72.8448 30.0182C72.8878 30.0197 72.9298 30.0323 72.9666 30.0547C73.0033 30.0771 73.0337 30.1086 73.0548 30.1462L84.911 50.3146C84.9286 50.3496 84.9377 50.3881 84.9377 50.4273C84.9377 50.4664 84.9286 50.505 84.911 50.5399C84.8393 50.796 82.4425 56.4655 79.3337 56.4655ZM67.8975 38.443C70.1458 43.2162 76.312 55.2927 78.8421 55.9021C81.5974 56.5679 84.0455 51.2928 84.4245 50.4631L72.8499 30.7608L67.8975 38.443Z" fill="#231F20"/>
<path d="M44.18 57.9507L41.9214 115.219H49.7419L56.7378 74.3753L60.6353 114.502H68.6299L68.8911 61.7764L44.18 57.9507Z" fill="#231F20"/>
<path d="M49.7417 115.475H41.9212C41.8867 115.475 41.8525 115.468 41.8208 115.455C41.789 115.441 41.7603 115.421 41.7364 115.397C41.7125 115.372 41.6938 115.342 41.6816 115.31C41.6693 115.278 41.6637 115.243 41.6651 115.209L43.9237 57.9405C43.9251 57.9042 43.934 57.8686 43.9498 57.836C43.9657 57.8034 43.9882 57.7744 44.0159 57.751C44.0443 57.728 44.0772 57.7112 44.1124 57.7015C44.1477 57.6918 44.1846 57.6894 44.2207 57.6946L68.9268 61.5255C68.9879 61.533 69.044 61.5628 69.0847 61.609C69.1253 61.6553 69.1474 61.7149 69.147 61.7764L68.8858 114.528C68.8832 114.594 68.8552 114.657 68.8076 114.704C68.76 114.751 68.6964 114.777 68.6297 114.779H60.6197C60.556 114.779 60.4945 114.756 60.4471 114.713C60.3998 114.67 60.37 114.612 60.3636 114.548L56.6506 76.3214L49.9926 115.291C49.9769 115.345 49.9438 115.392 49.8984 115.425C49.8531 115.459 49.798 115.476 49.7417 115.475ZM42.1875 114.963H49.5266L56.4816 74.3343C56.4816 74.2664 56.5085 74.2013 56.5566 74.1532C56.6046 74.1052 56.6697 74.0782 56.7376 74.0782C56.8056 74.0782 56.8707 74.1052 56.9187 74.1532C56.9667 74.2013 56.9937 74.2664 56.9937 74.3343L60.8707 114.231H68.3788L68.64 61.9915L44.4307 58.2426L42.1875 114.963Z" fill="#231F20"/>
<path d="M59.1449 106.216C60.0514 106.349 65.3573 107.388 65.767 106.216C66.0075 105.52 66.4723 104.923 67.0883 104.52H70.4787L68.9167 120.428C68.9167 120.428 76.3479 124.991 76.3479 125.769C76.3479 126.548 63.7901 123.972 63.7901 123.972L63.5033 125.211L61.2908 124.95L59.1449 106.216Z" fill="#EE3384"/>
<path d="M51.6367 106.216C50.7302 106.349 45.4244 107.388 45.0147 106.216C44.7828 105.52 44.3272 104.92 43.7189 104.51H40.3029L41.8394 120.417C41.8394 120.417 34.4132 124.981 34.4132 125.759C34.4132 126.538 46.9916 123.972 46.9916 123.972L47.2784 125.211L49.4908 124.95L51.6367 106.216Z" fill="#EE3384"/>
<path d="M65.6287 28.6661C65.6287 28.6661 50.4384 27.1297 47.4833 29.547C44.5282 31.9643 43.3093 63.8609 43.3093 63.8609L68.6863 64.7981C68.6863 64.7981 71.1753 34.0283 65.6287 28.6661Z" fill="#231F20"/>
<path d="M68.6861 65.0747L43.3092 64.1375C43.2432 64.1319 43.1814 64.1028 43.1351 64.0555C43.1122 64.0308 43.0945 64.0018 43.083 63.9701C43.0716 63.9384 43.0666 63.9048 43.0685 63.8712C43.1146 62.5652 44.3233 31.8158 47.3296 29.3524C50.3359 26.889 65.0396 28.3281 65.6645 28.41C65.7224 28.4154 65.7768 28.4407 65.8181 28.4817C68.1689 30.7557 69.4031 37.5724 69.5004 48.7474C69.5721 57.034 68.9576 64.7623 68.9524 64.8391C68.9472 64.9052 68.9165 64.9667 68.8668 65.0107C68.8172 65.0546 68.7524 65.0776 68.6861 65.0747ZM43.5909 63.6356L68.4505 64.5626C68.6656 61.6689 70.576 34.0539 65.5159 28.9222C64.2612 28.7993 50.3717 27.5292 47.642 29.757C45.3168 31.6519 43.9289 54.6064 43.5755 63.6356H43.5909Z" fill="#231F20"/>
<path d="M57.1066 45.8128C57.0559 45.8101 57.0071 45.7926 56.9662 45.7626C56.9253 45.7326 56.894 45.6913 56.8762 45.6438C55.985 43.2316 51.5601 31.1449 52.0568 30.013C52.0858 29.9522 52.1371 29.905 52.2001 29.8811C52.2631 29.8572 52.3329 29.8586 52.3949 29.885C52.4562 29.912 52.5045 29.962 52.5294 30.0242C52.5543 30.0865 52.5538 30.156 52.528 30.2179C52.2771 30.9298 54.679 38.1818 57.1373 44.8653C58.0234 42.786 60.9631 35.6467 61.7467 31.1654C61.7592 31.0986 61.7972 31.0394 61.8526 31.0002C61.9081 30.961 61.9766 30.9449 62.0437 30.9554C62.1102 30.9678 62.169 31.006 62.2074 31.0617C62.2457 31.1173 62.2606 31.1859 62.2486 31.2524C61.3472 36.5685 57.419 45.5926 57.3781 45.6591C57.3568 45.7116 57.3184 45.7554 57.2691 45.7833C57.2198 45.8111 57.1626 45.8216 57.1066 45.8128Z" fill="white"/>
<path d="M53.0861 27.775L52.574 39.4878L52.4408 42.7143L52.2565 47.2161L52.1233 50.4426L51.7085 60.5627L39.8062 60.0505C39.8062 60.0505 39.8932 55.7075 40.1032 50.3197C40.1442 49.2954 40.1903 48.1892 40.2415 47.0881C40.3132 45.5977 40.39 44.0766 40.4771 42.5914C40.5436 41.4903 40.6153 40.4045 40.6973 39.3649C41.0251 35.0014 41.4604 31.3395 42.034 30.1462C43.8009 26.4434 53.0861 27.775 53.0861 27.775Z" fill="#EE3384"/>
<path d="M73.6745 42.9806C73.6745 44.4659 73.6335 45.9767 73.5977 47.4773C73.5721 48.5733 73.5414 49.6539 73.5106 50.7038C73.316 56.7625 73.0343 61.7765 73.0343 61.7765L61.1781 60.8187L61.383 50.5758L61.4495 47.3441L61.5366 42.8475L61.6032 39.6209L61.8388 27.9593C61.8388 27.9593 71.124 26.6329 72.8602 30.2947C73.4236 31.488 73.6387 35.2472 73.6796 39.7695C73.6796 40.7938 73.6796 41.8744 73.6745 42.9806Z" fill="#EE3384"/>
<path d="M45.1376 70.3754C45.0885 70.3748 45.0405 70.3606 44.9989 70.3344C44.9573 70.3082 44.9238 70.271 44.902 70.2269C44.8743 70.1651 44.8722 70.0948 44.8962 70.0315C44.9202 69.9681 44.9684 69.9168 45.0301 69.8889C45.9242 69.473 46.7118 68.8588 47.333 68.093C47.9542 67.3271 48.3927 66.4298 48.6151 65.4691C48.6276 65.4033 48.6649 65.3449 48.7192 65.3058C48.7735 65.2668 48.8407 65.25 48.907 65.2591C48.9404 65.2647 48.9723 65.2768 49.001 65.2948C49.0296 65.3127 49.0544 65.3362 49.0739 65.3638C49.0935 65.3915 49.1073 65.4227 49.1147 65.4557C49.1221 65.4887 49.1229 65.5228 49.117 65.5561C48.891 66.6007 48.4243 67.578 47.7538 68.4102C47.0834 69.2425 46.2279 69.9066 45.2554 70.3498C45.219 70.3684 45.1785 70.3773 45.1376 70.3754Z" fill="white"/>
<path d="M67.8156 70.3754C67.7579 70.3747 67.7021 70.3549 67.6569 70.3191C66.9536 69.7313 66.3924 68.9919 66.0154 68.1564C65.6385 67.3209 65.4555 66.4109 65.4802 65.4946C65.485 65.4267 65.5165 65.3635 65.5679 65.3188C65.6193 65.2742 65.6863 65.2517 65.7542 65.2565C65.8221 65.2612 65.8854 65.2928 65.9301 65.3442C65.9747 65.3956 65.9971 65.4626 65.9924 65.5305C65.9823 66.3634 66.1555 67.1884 66.4998 67.9469C66.8441 68.7054 67.351 69.3789 67.9846 69.9196C68.0263 69.953 68.0564 69.9985 68.0709 70.0499C68.0854 70.1012 68.0834 70.1558 68.0654 70.206C68.0473 70.2562 68.0141 70.2995 67.9702 70.3299C67.9263 70.3603 67.8741 70.3762 67.8207 70.3754H67.8156Z" fill="white"/>
<path d="M56.6918 73.6736C56.6252 73.6736 56.5614 73.6472 56.5143 73.6001C56.4672 73.5531 56.4408 73.4893 56.4408 73.4227C56.4408 73.1564 56.8556 65.8122 56.8761 65.4998C56.8759 65.4659 56.8829 65.4323 56.8966 65.4013C56.9102 65.3703 56.9303 65.3425 56.9554 65.3198C56.9806 65.2971 57.0102 65.2799 57.0424 65.2695C57.0747 65.259 57.1087 65.2555 57.1424 65.2591C57.1759 65.2604 57.2087 65.2683 57.239 65.2825C57.2693 65.2967 57.2964 65.3167 57.3189 65.3415C57.3413 65.3664 57.3585 65.3954 57.3696 65.427C57.3806 65.4585 57.3852 65.492 57.3832 65.5254C57.2654 67.6508 56.9478 73.2076 56.9478 73.4227C56.9478 73.4561 56.9412 73.4891 56.9282 73.5199C56.9153 73.5507 56.8964 73.5786 56.8725 73.602C56.8487 73.6254 56.8204 73.6437 56.7894 73.656C56.7583 73.6683 56.7251 73.6743 56.6918 73.6736Z" fill="white"/>
<path d="M68.6862 65.0747L43.3093 64.1375C43.2414 64.1375 43.1762 64.1105 43.1282 64.0625C43.0802 64.0145 43.0532 63.9493 43.0532 63.8814C43.0532 63.8135 43.0802 63.7484 43.1282 63.7004C43.1762 63.6523 43.2414 63.6254 43.3093 63.6254L68.6965 64.5626C68.7644 64.5626 68.8295 64.5896 68.8775 64.6376C68.9256 64.6856 68.9525 64.7507 68.9525 64.8187C68.9525 64.8866 68.9256 64.9517 68.8775 64.9997C68.8295 65.0477 68.7644 65.0747 68.6965 65.0747H68.6862Z" fill="white"/>
<path d="M40.7229 39.3392L52.5996 39.4878L52.4665 42.7143L40.5027 42.5658C40.5693 41.4647 40.6461 40.3789 40.7229 39.3392Z" fill="white"/>
<path d="M73.6745 42.9807L61.5366 42.827L61.6032 39.6005L73.6796 39.749C73.6796 40.7938 73.6797 41.8744 73.6745 42.9807Z" fill="white"/>
<path d="M40.2672 47.0624L52.2822 47.2161L52.149 50.4426L40.134 50.2941C40.1699 49.2493 40.216 48.1738 40.2672 47.0624Z" fill="white"/>
<path d="M73.5978 47.4773C73.5722 48.5733 73.5414 49.6539 73.5107 50.7038L61.3831 50.5553L61.4496 47.3236L73.5978 47.4773Z" fill="white"/>
<path d="M64.1588 19.1913C64.0666 19.0018 64.9782 16.8662 64.6709 13.4963C64.3636 10.1263 58.1717 8.93814 55.9644 9.22494C53.757 9.51175 51.5036 11.7857 51.0426 14.0289C50.5817 16.2721 51.5548 20.2617 51.5548 20.2617L64.1588 19.1913Z" fill="white"/>
<path d="M51.5446 20.5178C51.4856 20.5183 51.4282 20.4988 51.3817 20.4626C51.3353 20.4263 51.3024 20.3754 51.2885 20.3181C51.2476 20.1542 50.3052 16.2209 50.7764 13.9726C51.2885 11.5501 53.629 9.25055 55.8979 8.95863C57.4343 8.75889 61.3113 9.27104 63.4623 11.0072C63.8633 11.2939 64.2002 11.6611 64.4515 12.0852C64.7029 12.5093 64.863 12.9812 64.9219 13.4707C65.0841 15.2322 64.9386 17.0085 64.4917 18.7202C64.4507 18.8943 64.4098 19.0736 64.4046 19.1401C64.4149 19.2033 64.4041 19.2681 64.3739 19.3245C64.352 19.3618 64.3216 19.3934 64.2851 19.4165C64.2485 19.4397 64.207 19.4538 64.1639 19.4577L51.5651 20.5178H51.5446ZM56.6661 9.44517C56.4283 9.44301 56.1906 9.45498 55.9542 9.48102C53.9056 9.74734 51.7136 11.8932 51.2629 14.0904C50.8839 15.9443 51.5344 19.1248 51.7239 19.9903L63.8874 18.966C63.8874 18.8738 63.9335 18.7611 63.9693 18.6126C64.4026 16.9562 64.543 15.2368 64.3842 13.5321C64.331 13.1146 64.1916 12.7128 63.9747 12.3522C63.7577 11.9915 63.4681 11.68 63.1243 11.4374C61.5161 10.1058 58.5303 9.45029 56.6917 9.45029L56.6661 9.44517Z" fill="#231F20"/>
<path d="M62.2894 18.9814C62.6326 16.8355 66.1971 16.3028 66.023 18.8328C65.9946 19.7123 65.6573 20.5536 65.0704 21.2092C64.7726 21.5331 64.3846 21.7603 63.9565 21.8616C63.5284 21.9629 63.0798 21.9337 62.6684 21.7777" fill="white"/>
<path d="M63.4213 22.1977C63.1284 22.1994 62.8385 22.1383 62.5712 22.0184C62.5078 21.9893 62.4584 21.9366 62.4335 21.8715C62.4086 21.8064 62.4102 21.7341 62.438 21.6701C62.4681 21.6064 62.5218 21.5569 62.5878 21.532C62.6537 21.5072 62.7267 21.509 62.7914 21.537C63.1516 21.6658 63.5416 21.686 63.9131 21.5949C64.2847 21.5039 64.6212 21.3056 64.881 21.0248C65.4132 20.414 65.7173 19.6376 65.7414 18.8277C65.7977 18.0185 65.4238 17.5115 64.7171 17.4296C64.2207 17.3857 63.7253 17.5242 63.3237 17.8193C62.9221 18.1144 62.6418 18.5457 62.5353 19.0326C62.524 19.1016 62.4859 19.1634 62.4294 19.2046C62.3728 19.2459 62.3024 19.2632 62.2332 19.2528C62.1641 19.2415 62.1023 19.2034 62.0611 19.1469C62.0199 19.0903 62.0026 19.0198 62.0129 18.9506C62.137 18.3266 62.489 17.7712 63.0003 17.3925C63.5115 17.0138 64.1454 16.8389 64.7785 16.9021C65.0094 16.9218 65.2335 16.9896 65.4366 17.1011C65.6396 17.2127 65.817 17.3656 65.9574 17.5499C66.0978 17.7342 66.1981 17.9458 66.2517 18.1712C66.3053 18.3966 66.3112 18.6307 66.2689 18.8585C66.2418 19.8065 65.8788 20.714 65.2446 21.4192C64.7624 21.9077 64.1077 22.1873 63.4213 22.1977Z" fill="#231F20"/>
<path d="M53.4139 18.9814C53.0708 16.8355 49.5062 16.3028 49.6855 18.8328C49.7094 19.7123 50.0452 20.5546 50.633 21.2092C50.9307 21.5283 51.3165 21.7516 51.7414 21.851C52.1663 21.9504 52.6112 21.9213 53.0196 21.7675" fill="white"/>
<path d="M52.2821 22.1977C51.5883 22.1873 50.9269 21.9018 50.4435 21.4038C49.8101 20.6982 49.4472 19.7909 49.4192 18.8431C49.3839 18.6203 49.3945 18.3926 49.4501 18.174C49.5058 17.9554 49.6055 17.7504 49.743 17.5716C49.8806 17.3928 50.0532 17.244 50.2503 17.1341C50.4473 17.0243 50.6647 16.9558 50.8891 16.9328C51.5222 16.8697 52.1561 17.0445 52.6674 17.4232C53.1786 17.8019 53.5306 18.3574 53.6547 18.9814C53.665 19.0506 53.6477 19.1211 53.6065 19.1776C53.5653 19.2342 53.5035 19.2722 53.4345 19.2835C53.3653 19.2939 53.2948 19.2766 53.2382 19.2354C53.1817 19.1942 53.1436 19.1324 53.1323 19.0633C53.0295 18.5774 52.7536 18.1454 52.356 17.8477C51.9585 17.55 51.4663 17.4069 50.971 17.4449C50.2643 17.5269 49.8904 18.0339 49.9467 18.8431C49.9775 19.6513 50.2869 20.424 50.8225 21.03C51.0844 21.3158 51.4254 21.5171 51.8021 21.6083C52.1788 21.6995 52.5741 21.6765 52.9377 21.5421C53.0024 21.5141 53.0754 21.5123 53.1413 21.5372C53.2073 21.562 53.261 21.6115 53.2911 21.6753C53.3189 21.7392 53.3205 21.8115 53.2956 21.8766C53.2707 21.9417 53.2213 21.9945 53.1579 22.0235C52.8823 22.1453 52.5833 22.2047 52.2821 22.1977Z" fill="#231F20"/>
<path d="M53.4139 28.7582C53.4139 28.7582 54.6892 31.8311 57.5111 31.8311C58.2954 31.8523 59.0717 31.6701 59.7646 31.3021C60.4575 30.9341 61.0433 30.393 61.4649 29.7313L61.3369 28.2L61.0603 24.7123L60.7991 21.4499H54.3819L54.1668 24.1182L54.1002 24.9837L53.4139 28.7582Z" fill="white"/>
<path d="M57.5009 32.077C54.5458 32.077 53.2244 29.0041 53.1681 28.8607C53.1531 28.8123 53.1531 28.7606 53.1681 28.7122L53.8544 24.9479L54.1309 21.4448C54.1362 21.3782 54.1667 21.3162 54.2162 21.2714C54.2657 21.2267 54.3305 21.2026 54.3973 21.2041H60.8145C60.8807 21.2026 60.9449 21.2269 60.9936 21.2718C61.0423 21.3167 61.0717 21.3787 61.0757 21.4448L61.7312 29.6955C61.7369 29.7454 61.7261 29.7957 61.7005 29.8389C61.2578 30.5471 60.6369 31.1265 59.8998 31.5193C59.1628 31.9121 58.3356 32.1044 57.5009 32.077ZM53.6854 28.7122C53.8954 29.1526 55.1296 31.5392 57.5009 31.5392C58.2257 31.5625 58.9444 31.4001 59.5889 31.0676C60.2334 30.7351 60.7822 30.2434 61.1832 29.6392L60.5533 21.7214H54.6226L54.3614 25.0093L53.6854 28.7122Z" fill="#231F20"/>
<path d="M53.6648 23.8877C53.7359 24.2831 53.8838 24.6607 54.1001 24.9991C54.6394 25.7794 55.3646 26.413 56.2102 26.8428C57.593 27.6111 59.6569 28.4715 61.3316 28.2154L61.0551 24.7277C59.8251 24.8739 58.5822 24.8739 57.3523 24.7277C56.2635 24.6877 55.1873 24.4804 54.1616 24.1131C53.9926 24.0567 53.8287 23.9748 53.6648 23.8877Z" fill="#231F20"/>
<path d="M60.6967 28.5124C58.981 28.5124 57.1116 27.6367 56.0873 27.0682C55.2018 26.6189 54.4442 25.9529 53.8851 25.1323C53.6503 24.766 53.4902 24.357 53.4139 23.9287C53.4064 23.881 53.4124 23.8321 53.4315 23.7877C53.4505 23.7433 53.4817 23.7052 53.5215 23.6778C53.5624 23.6529 53.6093 23.6397 53.6572 23.6397C53.7051 23.6397 53.752 23.6529 53.7929 23.6778C53.9475 23.7645 54.1065 23.8431 54.2692 23.9134C55.2706 24.2704 56.3207 24.4724 57.3831 24.5126C58.5925 24.6584 59.815 24.6584 61.0244 24.5126C61.0942 24.505 61.1641 24.5252 61.2191 24.5689C61.2465 24.5903 61.2689 24.6175 61.2848 24.6484C61.3007 24.6794 61.3098 24.7134 61.3113 24.7482L61.5878 28.2359C61.5937 28.3001 61.5746 28.3641 61.5346 28.4147C61.4945 28.4652 61.4366 28.4984 61.3727 28.5073C61.1478 28.5246 60.9219 28.5263 60.6967 28.5124ZM54.0388 24.364C54.1038 24.5433 54.1879 24.715 54.2897 24.8762C54.8021 25.625 55.4965 26.2313 56.3076 26.638C57.3677 27.2218 59.3805 28.1744 61.0347 28.0054L60.7991 25.0298C59.6398 25.153 58.4707 25.153 57.3114 25.0298C56.1961 24.9868 55.0941 24.7726 54.0439 24.3948L54.0388 24.364Z" fill="#231F20"/>
<path d="M57.4034 25.5471H57.977C59.281 25.5471 60.5316 25.0291 61.4536 24.1071C62.3757 23.185 62.8937 21.9345 62.8937 20.6305V12.8356H52.4817V20.6305C52.4817 21.2766 52.609 21.9163 52.8564 22.5132C53.1038 23.11 53.4665 23.6523 53.9235 24.1089C54.3806 24.5655 54.9232 24.9275 55.5203 25.1743C56.1175 25.4211 56.7573 25.5478 57.4034 25.5471Z" fill="white"/>
<path d="M62.8938 12.8356V20.6305C62.8938 21.9345 62.3758 23.185 61.4538 24.1071C60.5318 25.0291 59.2812 25.5471 57.9772 25.5471H57.4036C56.7575 25.5478 56.1176 25.4211 55.5205 25.1743C54.9234 24.9275 54.3808 24.5655 53.9237 24.1089C53.4666 23.6523 53.104 23.11 52.8566 22.5132C52.6092 21.9163 52.4819 21.2766 52.4819 20.6305V12.8356H62.8938ZM62.8938 12.3234H52.4819C52.346 12.3234 52.2158 12.3774 52.1197 12.4735C52.0237 12.5695 51.9697 12.6998 51.9697 12.8356V20.6305C51.9724 22.0744 52.5476 23.4584 53.5691 24.4789C54.5906 25.4994 55.975 26.0733 57.419 26.0746H57.9926C59.436 26.0733 60.82 25.4993 61.8407 24.4786C62.8614 23.4579 63.4354 22.0739 63.4367 20.6305V12.8356C63.4367 12.6998 63.3828 12.5695 63.2867 12.4735C63.1907 12.3774 63.0604 12.3234 62.9246 12.3234H62.8938Z" fill="#231F20"/>
<path d="M57.7672 20.8149C57.5258 20.8139 57.2847 20.7985 57.0451 20.7688C56.9762 20.7609 56.9101 20.7368 56.8522 20.6986C56.7944 20.6603 56.7464 20.6089 56.7122 20.5486C56.3281 19.9084 57.2243 17.4757 57.4958 16.7382C57.5077 16.7058 57.526 16.6761 57.5495 16.6508C57.573 16.6255 57.6013 16.6051 57.6327 16.5909C57.6642 16.5766 57.6981 16.5687 57.7326 16.5676C57.7671 16.5665 57.8015 16.5723 57.8338 16.5846C57.8996 16.6098 57.9527 16.6601 57.9815 16.7244C58.0103 16.7887 58.0124 16.8618 57.9874 16.9277C57.4036 18.4641 57.0348 19.934 57.1526 20.2515C57.5919 20.2973 58.0347 20.2973 58.474 20.2515C58.5083 20.2473 58.5432 20.2498 58.5765 20.2591C58.6098 20.2684 58.641 20.2843 58.6681 20.3057C58.6953 20.3272 58.7179 20.3538 58.7347 20.384C58.7515 20.4143 58.7621 20.4476 58.7659 20.482C58.7709 20.5164 58.7688 20.5516 58.7598 20.5852C58.7508 20.6188 58.735 20.6502 58.7135 20.6776C58.6919 20.7049 58.665 20.7275 58.6344 20.7441C58.6038 20.7607 58.5701 20.7708 58.5354 20.7739C58.2806 20.8051 58.0239 20.8188 57.7672 20.8149Z" fill="#231F20"/>
<path d="M64.676 13.4963C64.676 13.4963 62.6684 16.5077 61.4546 15.9085C60.2408 15.3093 59.6108 13.6551 57.4957 13.6141C55.6622 13.5834 54.6123 16.2516 53.0861 15.8675C52.6291 15.7365 52.2075 15.5041 51.8528 15.1875C51.4981 14.8709 51.2194 14.4784 51.0375 14.0392C51.8651 12.8339 53.0002 11.8721 54.3249 11.2534C55.6496 10.6347 57.1157 10.3818 58.5712 10.5207C63.7592 10.9048 64.676 13.4963 64.676 13.4963Z" fill="white"/>
<path d="M61.7928 16.2465C61.6323 16.2469 61.4741 16.2083 61.3319 16.1338C60.8959 15.8843 60.499 15.5719 60.1539 15.2069C59.4779 14.5615 58.7762 13.8958 57.4907 13.8701C56.6969 13.8701 56.0209 14.4591 55.3705 15.0378C54.72 15.6166 53.9313 16.3438 53.0248 16.1134C52.5234 15.9749 52.0605 15.7234 51.6716 15.378C51.2827 15.0326 50.9783 14.6026 50.7816 14.1211C50.7654 14.0849 50.757 14.0456 50.757 14.0059C50.757 13.9661 50.7654 13.9269 50.7816 13.8906C51.6422 12.6507 52.8174 11.6623 54.1864 11.0268C55.5554 10.3914 57.0689 10.1319 58.5714 10.2749C63.8875 10.6641 64.881 13.3119 64.9169 13.4246C64.9319 13.463 64.9374 13.5045 64.933 13.5455C64.9285 13.5865 64.9142 13.6259 64.8913 13.6602C64.7171 13.9367 63.109 16.2465 61.7928 16.2465ZM57.46 13.3478H57.501C58.9965 13.3478 59.8057 14.1467 60.5175 14.833C60.8275 15.1602 61.1828 15.4414 61.5726 15.6678C62.264 16.0212 63.6212 14.5564 64.374 13.4758C64.1179 12.9636 62.8376 11.1045 58.5406 10.7921C57.1585 10.6644 55.7669 10.8984 54.5026 11.4713C53.2383 12.0442 52.1448 12.9362 51.3296 14.0596C51.5058 14.4313 51.7598 14.7609 52.0743 15.0259C52.3889 15.291 52.7567 15.4854 53.1528 15.5961C53.7828 15.7549 54.3564 15.2376 55.0171 14.6435C55.6777 14.0494 56.4664 13.3478 57.46 13.3478Z" fill="#231F20"/>
<path d="M51.0272 14.0289C51.0181 12.4896 51.19 10.9546 51.5393 9.45541C52.0925 7.40682 56.3023 5.96256 58.4994 6.34155C60.6965 6.72054 63.7131 8.39014 64.1331 9.37859C64.553 10.367 64.6452 13.4758 64.6452 13.4758C64.6452 13.4758 56.1999 9.05594 51.0272 14.0289Z" fill="white"/>
<path d="M51.0273 14.2952C50.995 14.3 50.9622 14.3 50.93 14.2952C50.8822 14.2753 50.8413 14.242 50.8122 14.1992C50.7831 14.1565 50.7671 14.1062 50.7661 14.0545C50.7531 12.4913 50.925 10.9321 51.2782 9.40931C51.8826 7.15586 56.2461 5.70135 58.5405 6.10083C60.8349 6.5003 63.9027 8.19039 64.3892 9.29151C64.8757 10.3926 64.927 13.3887 64.927 13.5116C64.929 13.5575 64.9187 13.6031 64.8971 13.6437C64.8755 13.6842 64.8433 13.7182 64.804 13.7421C64.7639 13.7636 64.719 13.7749 64.6734 13.7749C64.6279 13.7749 64.583 13.7636 64.5428 13.7421C64.4609 13.696 56.1743 9.44516 51.2014 14.2542C51.1504 14.2888 51.0884 14.3034 51.0273 14.2952ZM57.7466 6.5464C55.6007 6.5464 52.2615 7.79604 51.8006 9.52198C51.4861 10.8016 51.3144 12.1122 51.2885 13.4297C55.8978 9.5988 62.6684 12.2927 64.379 13.0712C64.3431 12.1851 64.2202 10.2031 63.9027 9.48613C63.5186 8.6206 60.63 6.98173 58.4432 6.60274C58.2129 6.56537 57.9799 6.54653 57.7466 6.5464Z" fill="#231F20"/>
<path d="M58.0591 24.0005C57.3261 23.9678 56.6115 23.7606 55.9747 23.3961C55.944 23.3804 55.9167 23.3588 55.8944 23.3325C55.8721 23.3062 55.8552 23.2758 55.8447 23.2429C55.8343 23.2101 55.8304 23.1755 55.8334 23.1411C55.8363 23.1067 55.8461 23.0733 55.862 23.0427C55.8947 22.9804 55.9508 22.9335 56.018 22.9124C56.0852 22.8913 56.158 22.8976 56.2205 22.9301C57.1885 23.4422 58.013 23.5856 58.6737 23.3756C59.0609 23.2624 59.3905 23.0061 59.5956 22.6586C59.6283 22.5963 59.6844 22.5494 59.7516 22.5283C59.8188 22.5072 59.8916 22.5135 59.9541 22.546C60.0156 22.5768 60.0626 22.6306 60.0846 22.6959C60.1067 22.7611 60.1021 22.8324 60.0719 22.8942C59.8023 23.3645 59.3652 23.7157 58.8478 23.8775C58.5932 23.9602 58.3269 24.0017 58.0591 24.0005Z" fill="#231F20"/>
<path d="M59.9613 17.0431C60.125 17.0323 60.2376 16.7192 60.2128 16.3438C60.188 15.9684 60.0352 15.6729 59.8715 15.6837C59.7078 15.6945 59.5952 16.0076 59.62 16.383C59.6448 16.7584 59.7976 17.0539 59.9613 17.0431Z" fill="#231F20"/>
<path d="M55.5771 17.3622C55.7408 17.3514 55.8534 17.0383 55.8286 16.6629C55.8038 16.2875 55.651 15.992 55.4873 16.0028C55.3236 16.0136 55.211 16.3267 55.2358 16.7021C55.2606 17.0775 55.4134 17.373 55.5771 17.3622Z" fill="#231F20"/>
<path d="M59.3857 52.1071H54.8276C54.7597 52.1071 54.6946 52.0801 54.6465 52.0321C54.5985 51.9841 54.5715 51.9189 54.5715 51.851V45.5567C54.5715 45.4888 54.5985 45.4237 54.6465 45.3757C54.6946 45.3276 54.7597 45.3007 54.8276 45.3007H59.3857C59.4536 45.3007 59.5188 45.3276 59.5668 45.3757C59.6148 45.4237 59.6418 45.4888 59.6418 45.5567V51.851C59.6405 51.9185 59.6131 51.9829 59.5653 52.0307C59.5176 52.0784 59.4532 52.1058 59.3857 52.1071ZM55.0786 51.595H59.1296V45.8128H55.0786V51.595Z" fill="white"/>
<path d="M91.4562 39.4212C91.3794 39.3751 84.5115 54.0174 80.3426 54.6678C76.1737 55.3183 74.1354 52.1071 75.9688 48.5221C77.8023 44.937 84.6907 38.612 84.6907 38.612L92.6239 35.6825L91.4562 39.4212Z" fill="white"/>
<path d="M79.3081 55.011C78.624 55.0526 77.9401 54.927 77.3155 54.645C76.6909 54.363 76.1443 53.9332 75.7231 53.3926C74.7858 52.0917 74.7858 50.2326 75.7231 48.4145C77.5617 44.8295 84.235 38.6837 84.5218 38.4174C84.5466 38.3929 84.5763 38.3737 84.6088 38.361L92.542 35.4367C92.5887 35.4186 92.6395 35.4143 92.6885 35.4243C92.7376 35.4343 92.7827 35.4581 92.8186 35.493C92.8537 35.5276 92.8786 35.5714 92.8903 35.6193C92.9021 35.6672 92.9003 35.7175 92.8851 35.7645L91.7021 39.498C91.6895 39.5321 91.6704 39.5635 91.6457 39.5902C91.5996 39.6721 91.446 39.9743 91.2719 40.3175C86.5038 49.6283 82.8368 54.5449 80.3734 54.929C80.0208 54.9827 79.6647 55.01 79.3081 55.011ZM84.8495 38.8425C84.2964 39.3546 77.9253 45.316 76.2045 48.6552C75.3594 50.2941 75.3441 51.9483 76.1635 53.0853C76.9829 54.2223 78.4784 54.6883 80.3017 54.4066C81.874 54.1608 84.9725 51.4772 90.8109 40.0665C91.0312 39.6312 91.1438 39.4161 91.2155 39.2983L92.2398 36.1076L84.8495 38.8425Z" fill="#231F20"/>
<path d="M87.4667 44.2251H73.5568L80.1123 26.6585H94.0222L87.4667 44.2251Z" fill="white"/>
<path d="M87.4666 44.4863H73.5567C73.5143 44.4866 73.4725 44.4765 73.4349 44.457C73.3973 44.4375 73.365 44.4091 73.3408 44.3743C73.3166 44.3395 73.3013 44.2994 73.2961 44.2573C73.2908 44.2153 73.2959 44.1726 73.3109 44.133L79.8664 26.5663C79.8844 26.5154 79.9176 26.4714 79.9616 26.4402C80.0057 26.409 80.0583 26.3922 80.1122 26.3922H94.0221C94.0645 26.3917 94.1064 26.4017 94.1439 26.4214C94.1814 26.441 94.2135 26.4697 94.2372 26.5048C94.2623 26.5401 94.2782 26.581 94.2836 26.6239C94.289 26.6668 94.2836 26.7103 94.268 26.7507L87.7125 44.3173C87.693 44.3668 87.6593 44.4094 87.6154 44.4395C87.5716 44.4696 87.5198 44.4859 87.4666 44.4863ZM73.9357 43.9742H87.2823L93.6431 26.9197H80.2966L73.9357 43.9742Z" fill="#231F20"/>
<path d="M90.6624 40.9474C90.7392 40.7221 93.4894 36.2101 93.3255 34.6685C93.2077 33.5418 88.9211 31.5393 88.0043 31.7032C87.0876 31.867 89.8378 33.7005 89.8378 33.7005C89.8378 33.7005 85.628 31.8619 85.3616 32.9426C85.0953 34.0232 89.3513 35.1038 89.3513 35.1038C89.3513 35.1038 84.8188 34.2946 84.7112 35.2114C84.6037 36.1281 88.4345 36.6659 88.4345 36.6659C88.4345 36.6659 84.8751 36.4508 85.4692 37.26C86.0633 38.0692 89.8685 39.1754 89.8685 39.1754" fill="white"/>
<path d="M90.6574 41.2086C90.6271 41.2158 90.5955 41.2158 90.5652 41.2086C90.5014 41.1855 90.4494 41.138 90.4206 41.0765C90.3917 41.015 90.3885 40.9447 90.4116 40.8808C90.496 40.7051 90.5901 40.5341 90.6933 40.3687C91.3078 39.2675 93.1874 35.9181 93.0645 34.735C93.0645 34.6582 92.9774 34.3765 92.2963 33.8644C90.9647 32.8401 88.7778 31.9899 88.1325 31.9899C88.6795 32.5821 89.303 33.0988 89.9865 33.5264C90.0405 33.563 90.0792 33.6181 90.0953 33.6814C90.1113 33.7446 90.1036 33.8116 90.0736 33.8695C90.0428 33.9285 89.9907 33.9735 89.9279 33.9954C89.8651 34.0173 89.7963 34.0144 89.7355 33.9873C88.4808 33.4444 86.2785 32.6864 85.6896 32.963C85.6332 32.9937 85.623 33.0193 85.6179 33.0449C85.495 33.5571 87.5231 34.4021 89.418 34.8836C89.4851 34.8994 89.5432 34.9411 89.5797 34.9997C89.6162 35.0582 89.628 35.1288 89.6126 35.196C89.5978 35.2632 89.5575 35.3221 89.5003 35.3603C89.443 35.3985 89.3731 35.413 89.3053 35.4008C86.9955 34.986 85.0801 34.9962 84.9726 35.2779C84.865 35.5596 86.637 36.1844 88.4705 36.4405C88.5389 36.4507 88.6008 36.4865 88.6436 36.5408C88.6865 36.595 88.707 36.6636 88.701 36.7324C88.6945 36.8008 88.6613 36.864 88.6085 36.9081C88.5558 36.9522 88.4878 36.9737 88.4193 36.968C87.1799 36.8912 85.961 36.968 85.6896 37.1421C86.1659 37.7106 88.532 38.5505 89.9404 38.9603C89.974 38.97 90.0054 38.9863 90.0327 39.0082C90.0601 39.03 90.0828 39.0571 90.0997 39.0878C90.1166 39.1184 90.1273 39.1521 90.1311 39.1869C90.135 39.2217 90.132 39.257 90.1222 39.2906C90.1125 39.3242 90.0962 39.3556 90.0743 39.3829C90.0524 39.4103 90.0254 39.433 89.9947 39.4499C89.964 39.4668 89.9303 39.4775 89.8955 39.4813C89.8607 39.4852 89.8255 39.4822 89.7919 39.4724C89.3924 39.3546 85.8842 38.3149 85.2542 37.4597C85.1959 37.3892 85.1591 37.3034 85.1482 37.2126C85.1373 37.1218 85.1528 37.0298 85.1928 36.9475C85.3106 36.7273 85.6691 36.5941 86.1249 36.5224C85.1825 36.2356 84.3836 35.8208 84.4502 35.2472C84.4604 35.1689 84.4866 35.0935 84.5272 35.0256C84.5677 34.9578 84.6217 34.899 84.6858 34.8528C85.0494 34.5865 85.8944 34.5455 86.7753 34.5916C85.7818 34.1563 84.9418 33.5673 85.1057 32.9476C85.1288 32.8541 85.1725 32.7669 85.2336 32.6925C85.2948 32.618 85.3718 32.5582 85.4591 32.5174C86.0071 32.246 87.1748 32.5174 88.1991 32.8554C87.7228 32.4252 87.5128 32.0821 87.564 31.8312C87.584 31.7395 87.6333 31.6569 87.7044 31.5959C87.7756 31.5349 87.8648 31.4988 87.9584 31.4931C88.7829 31.3497 91.359 32.5174 92.6138 33.4547C93.2335 33.9207 93.551 34.3253 93.592 34.6941C93.7149 35.8925 92.3526 38.5044 91.1542 40.6452C91.021 40.8808 90.9288 41.0447 90.9084 41.0959C90.8796 41.1346 90.8415 41.1652 90.7976 41.185C90.7536 41.2047 90.7054 41.2128 90.6574 41.2086Z" fill="#231F20"/>
<path d="M84.8753 26.1309L83.9688 28.5585L89.5307 28.3946L90.4218 26.1309H84.8753Z" fill="#231F20"/>
<path d="M83.9688 28.8146C83.9285 28.8144 83.8889 28.8046 83.8532 28.7859C83.8176 28.7671 83.7869 28.7401 83.7639 28.7071C83.7397 28.6735 83.7238 28.6346 83.7176 28.5936C83.7113 28.5526 83.7149 28.5108 83.7281 28.4715L84.6346 26.0388C84.6533 25.9902 84.6864 25.9486 84.7294 25.9193C84.7724 25.89 84.8233 25.8745 84.8753 25.8749H90.4219C90.4632 25.8754 90.5037 25.8859 90.5401 25.9055C90.5764 25.9251 90.6075 25.9532 90.6306 25.9875C90.6538 26.0217 90.6683 26.061 90.673 26.102C90.6776 26.1431 90.6723 26.1846 90.6574 26.2231L89.7663 28.492C89.748 28.5383 89.7163 28.5782 89.6753 28.6065C89.6342 28.6347 89.5857 28.6501 89.5358 28.6507L83.9739 28.8146H83.9688ZM85.0494 26.387L84.3375 28.2922L89.3515 28.1488L90.048 26.387H85.0494Z" fill="#231F20"/>
<path d="M88.9775 26.5561C89.0442 26.3339 89.0442 26.097 88.9775 25.8749C88.9092 25.6945 88.7947 25.5352 88.6455 25.413C88.4963 25.2907 88.3176 25.2098 88.1273 25.1784C87.9367 25.1514 87.7426 25.1624 87.5563 25.2108C87.3699 25.2591 87.195 25.3438 87.0415 25.4601C86.7418 25.6693 86.5287 25.9807 86.4423 26.3358C86.4061 26.499 86.4044 26.6679 86.4373 26.8318C86.4702 26.9957 86.5371 27.1508 86.6336 27.2873C86.73 27.4238 86.854 27.5386 86.9974 27.6244C87.1409 27.7101 87.3007 27.7649 87.4666 27.7852C87.8185 27.7746 88.1571 27.6485 88.4301 27.4264C88.7032 27.2042 88.8955 26.8984 88.9775 26.5561Z" fill="#231F20"/>
<path d="M87.5382 28.0464H87.4461C87.2501 28.0322 87.0597 27.9753 86.888 27.8798C86.7164 27.7842 86.5677 27.6523 86.4525 27.4932C86.3258 27.3217 86.2363 27.1256 86.1896 26.9175C86.1428 26.7094 86.1399 26.4938 86.1811 26.2846C86.2867 25.871 86.5352 25.5082 86.8827 25.2603C87.2501 24.9878 87.7104 24.8718 88.1631 24.9376C88.3945 24.9799 88.6109 25.082 88.7906 25.2339C88.9703 25.3857 89.1071 25.582 89.1874 25.8032C89.2675 26.0722 89.2675 26.3587 89.1874 26.6277C89.0888 27.0035 88.8783 27.3405 88.5837 27.5939C88.2892 27.8472 87.9246 28.0051 87.5382 28.0464ZM87.907 25.4139C87.6442 25.419 87.3897 25.5068 87.1797 25.6649C86.9266 25.8373 86.7446 26.0957 86.6676 26.3921C86.6405 26.5291 86.643 26.6703 86.6748 26.8063C86.7066 26.9423 86.767 27.07 86.852 27.1808C86.9225 27.2821 87.0147 27.3664 87.1219 27.4275C87.2291 27.4887 87.3486 27.5251 87.4717 27.5342C87.7622 27.52 88.0405 27.4127 88.2655 27.2283C88.4905 27.0439 88.6503 26.792 88.7213 26.5099C88.7678 26.3424 88.7678 26.1653 88.7213 25.9978C88.6659 25.8638 88.577 25.7463 88.4631 25.6566C88.3492 25.5669 88.2141 25.508 88.0709 25.4856C88.0186 25.4566 87.9638 25.4326 87.907 25.4139Z" fill="#231F20"/>
<path d="M36.3542 59.7586C36.3542 59.7586 34.1008 56.0968 30.8384 56.2094C28.59 56.2914 25.2355 57.9507 25.2355 57.9507L40.5026 73.4227C40.5026 73.4227 45.4243 77.1819 46.2079 75.9835C46.9915 74.785 47.4627 73.5866 47.0018 72.8081C46.5408 72.0297 43.9289 70.6571 43.9289 70.6571L43.6062 67.5279C43.6062 67.5279 41.7779 68.1783 41.194 67.8505C40.6102 67.5228 36.3542 59.7586 36.3542 59.7586Z" fill="white"/>
<path d="M45.701 76.5007C44.1646 76.5007 40.7434 73.9399 40.3439 73.6326L25.0461 58.135C25.0165 58.1052 24.9945 58.0687 24.982 58.0286C24.9695 57.9885 24.9669 57.9459 24.9744 57.9046C24.982 57.8634 24.9988 57.8245 25.0237 57.7908C25.0485 57.7571 25.0807 57.7294 25.1178 57.71C25.2561 57.6434 28.5492 56.025 30.8282 55.9482H30.9921C34.275 55.9482 36.4875 59.4717 36.5796 59.6254C38.5873 63.2975 40.9329 67.3588 41.3273 67.6456C41.655 67.8249 42.8022 67.5534 43.5141 67.2974C43.5521 67.2847 43.5924 67.2804 43.6322 67.2848C43.672 67.2893 43.7103 67.3023 43.7446 67.323C43.7786 67.3439 43.8073 67.3723 43.8286 67.406C43.85 67.4397 43.8632 67.4779 43.8675 67.5176L44.1799 70.5085C44.7535 70.8158 46.7867 71.9426 47.2221 72.6954C47.8008 73.6839 47.1043 75.123 46.418 76.1524C46.3553 76.2406 46.2752 76.3152 46.1828 76.3715C46.0903 76.4279 45.9874 76.4648 45.8802 76.4802C45.8211 76.4917 45.7612 76.4986 45.701 76.5007ZM25.6863 58.0275L40.6922 73.2332C41.7165 74.0372 44.7586 76.137 45.8137 75.9629C45.8494 75.9599 45.8841 75.9498 45.9158 75.933C45.9475 75.9163 45.9754 75.8934 45.998 75.8656C46.8482 74.5852 47.1299 73.5558 46.7867 72.9668C46.4436 72.3779 44.5333 71.287 43.8265 70.9183C43.7886 70.8978 43.7563 70.8685 43.7322 70.8328C43.7081 70.7972 43.693 70.7562 43.6883 70.7134L43.3963 67.9119C42.792 68.1014 41.6192 68.4241 41.0865 68.1117C40.4771 67.7788 37.1481 61.7457 36.1392 59.9173C36.0419 59.7637 33.8653 56.404 30.859 56.5013C29.0869 56.5371 26.5774 57.6178 25.6863 58.0275Z" fill="#231F20"/>
<path d="M48.8404 109.498H43.555C43.5241 109.498 43.4935 109.492 43.4649 109.481C43.4363 109.469 43.4103 109.451 43.3885 109.429C43.3666 109.408 43.3492 109.382 43.3374 109.353C43.3255 109.324 43.3195 109.294 43.3195 109.263C43.3195 109.232 43.3255 109.201 43.3374 109.173C43.3492 109.144 43.3666 109.118 43.3885 109.096C43.4103 109.074 43.4363 109.057 43.4649 109.045C43.4935 109.033 43.5241 109.027 43.555 109.027H48.8404C48.9029 109.027 48.9628 109.052 49.007 109.096C49.0512 109.14 49.076 109.2 49.076 109.263C49.076 109.325 49.0512 109.385 49.007 109.429C48.9628 109.474 48.9029 109.498 48.8404 109.498Z" fill="#231F20"/>
<path d="M66.7656 109.498H61.4956C61.4331 109.498 61.3732 109.474 61.329 109.429C61.2848 109.385 61.26 109.325 61.26 109.263C61.26 109.2 61.2848 109.14 61.329 109.096C61.3732 109.052 61.4331 109.027 61.4956 109.027H66.7656C66.8281 109.027 66.888 109.052 66.9322 109.096C66.9764 109.14 67.0012 109.2 67.0012 109.263C67.0012 109.325 66.9764 109.385 66.9322 109.429C66.888 109.474 66.8281 109.498 66.7656 109.498Z" fill="#231F20"/>
<path d="M57.8081 10.5258C58.5464 10.5258 59.1448 9.92735 59.1448 9.18911C59.1448 8.45087 58.5464 7.8524 57.8081 7.8524C57.0699 7.8524 56.4714 8.45087 56.4714 9.18911C56.4714 9.92735 57.0699 10.5258 57.8081 10.5258Z" fill="#EE3384"/>
</g>
</svg>
