<svg width="28" height="34" viewBox="0 0 28 34" fill="none" xmlns="http://www.w3.org/2000/svg">
<path d="M14.0005 0C13.2277 0 12.6005 0.634667 12.6005 1.41667V29.6785L2.41417 18.8565C1.88148 18.2906 0.995987 18.2672 0.434592 18.8077C-0.125404 19.3474 -0.147104 20.2435 0.386292 20.8101L12.0202 33.1698C12.5494 33.7053 13.2522 34 14.0005 34C14.7481 34 15.4516 33.7053 16.0039 33.145L27.614 20.8101C28.1474 20.2435 28.125 19.3474 27.5657 18.8077C27.0064 18.2672 26.1202 18.2899 25.5868 18.8565L15.4005 29.7238V1.41667C15.4005 0.634667 14.7733 0 14.0005 0Z" fill="#694AE6"/>
</svg>
